G04 EAGLE Gerber RS-274X export*
G75*
%MOMM*%
%FSLAX34Y34*%
%LPD*%
%INTop Copper*%
%IPPOS*%
%AMOC8*
5,1,8,0,0,1.08239X$1,22.5*%
G01*
%ADD10C,0.130000*%
%ADD11C,0.152400*%
%ADD12R,0.348000X1.397000*%
%ADD13R,1.000000X1.100000*%
%ADD14R,5.080000X2.540000*%
%ADD15C,2.540000*%
%ADD16R,1.050000X0.350000*%
%ADD17R,0.350000X1.050000*%
%ADD18R,4.200000X4.200000*%
%ADD19R,1.100000X1.000000*%
%ADD20R,1.981200X0.558800*%
%ADD21C,1.879600*%
%ADD22C,2.000000*%
%ADD23R,0.850000X0.900000*%
%ADD24R,0.900000X0.850000*%
%ADD25C,0.756400*%


D10*
X2875000Y2845000D02*
X2875000Y2879500D01*
X2900000Y2879500D02*
X2900000Y2845000D01*
X2874350Y2860000D02*
X2823000Y2860000D01*
X2900650Y2860000D02*
X2975539Y2860000D01*
X2874350Y2860000D02*
X2849000Y2863192D01*
X2849000Y2856808D01*
X2874350Y2860000D01*
X2849000Y2861300D01*
X2849000Y2858700D02*
X2874350Y2860000D01*
X2849000Y2862600D01*
X2849000Y2857400D02*
X2874350Y2860000D01*
X2900650Y2860000D02*
X2926000Y2863192D01*
X2926000Y2856808D01*
X2900650Y2860000D01*
X2926000Y2861300D01*
X2926000Y2858700D02*
X2900650Y2860000D01*
X2926000Y2862600D01*
X2926000Y2857400D02*
X2900650Y2860000D01*
D11*
X2931729Y2882763D02*
X2931854Y2882761D01*
X2931979Y2882755D01*
X2932104Y2882746D01*
X2932228Y2882732D01*
X2932352Y2882715D01*
X2932476Y2882694D01*
X2932598Y2882669D01*
X2932720Y2882640D01*
X2932841Y2882608D01*
X2932961Y2882572D01*
X2933080Y2882532D01*
X2933197Y2882489D01*
X2933313Y2882442D01*
X2933428Y2882391D01*
X2933540Y2882337D01*
X2933652Y2882279D01*
X2933761Y2882219D01*
X2933868Y2882154D01*
X2933974Y2882087D01*
X2934077Y2882016D01*
X2934178Y2881942D01*
X2934277Y2881865D01*
X2934373Y2881785D01*
X2934467Y2881702D01*
X2934558Y2881617D01*
X2934647Y2881528D01*
X2934732Y2881437D01*
X2934815Y2881343D01*
X2934895Y2881247D01*
X2934972Y2881148D01*
X2935046Y2881047D01*
X2935117Y2880944D01*
X2935184Y2880838D01*
X2935249Y2880731D01*
X2935309Y2880622D01*
X2935367Y2880510D01*
X2935421Y2880398D01*
X2935472Y2880283D01*
X2935519Y2880167D01*
X2935562Y2880050D01*
X2935602Y2879931D01*
X2935638Y2879811D01*
X2935670Y2879690D01*
X2935699Y2879568D01*
X2935724Y2879446D01*
X2935745Y2879322D01*
X2935762Y2879198D01*
X2935776Y2879074D01*
X2935785Y2878949D01*
X2935791Y2878824D01*
X2935793Y2878699D01*
X2931729Y2882763D02*
X2931586Y2882761D01*
X2931444Y2882755D01*
X2931301Y2882745D01*
X2931159Y2882732D01*
X2931018Y2882714D01*
X2930876Y2882693D01*
X2930736Y2882668D01*
X2930596Y2882639D01*
X2930457Y2882606D01*
X2930319Y2882569D01*
X2930182Y2882529D01*
X2930047Y2882485D01*
X2929912Y2882437D01*
X2929779Y2882385D01*
X2929647Y2882330D01*
X2929517Y2882271D01*
X2929389Y2882209D01*
X2929262Y2882143D01*
X2929137Y2882074D01*
X2929014Y2882002D01*
X2928894Y2881926D01*
X2928775Y2881847D01*
X2928658Y2881764D01*
X2928544Y2881679D01*
X2928432Y2881590D01*
X2928323Y2881499D01*
X2928216Y2881404D01*
X2928111Y2881307D01*
X2928010Y2881206D01*
X2927911Y2881103D01*
X2927815Y2880998D01*
X2927722Y2880889D01*
X2927632Y2880778D01*
X2927545Y2880665D01*
X2927461Y2880550D01*
X2927381Y2880432D01*
X2927303Y2880312D01*
X2927229Y2880190D01*
X2927159Y2880066D01*
X2927091Y2879940D01*
X2927028Y2879812D01*
X2926967Y2879683D01*
X2926910Y2879552D01*
X2926857Y2879420D01*
X2926808Y2879286D01*
X2926762Y2879151D01*
X2934438Y2875538D02*
X2934532Y2875630D01*
X2934622Y2875724D01*
X2934710Y2875821D01*
X2934795Y2875921D01*
X2934877Y2876023D01*
X2934956Y2876128D01*
X2935031Y2876235D01*
X2935103Y2876344D01*
X2935172Y2876455D01*
X2935238Y2876569D01*
X2935300Y2876684D01*
X2935359Y2876801D01*
X2935414Y2876920D01*
X2935465Y2877040D01*
X2935513Y2877162D01*
X2935558Y2877285D01*
X2935598Y2877409D01*
X2935635Y2877535D01*
X2935668Y2877662D01*
X2935697Y2877789D01*
X2935723Y2877918D01*
X2935744Y2878047D01*
X2935762Y2878177D01*
X2935775Y2878307D01*
X2935785Y2878437D01*
X2935791Y2878568D01*
X2935793Y2878699D01*
X2934438Y2875538D02*
X2926762Y2866507D01*
X2935793Y2866507D01*
X2941768Y2866507D02*
X2941768Y2867410D01*
X2942671Y2867410D01*
X2942671Y2866507D01*
X2941768Y2866507D01*
X2948646Y2866507D02*
X2954064Y2866507D01*
X2954182Y2866509D01*
X2954300Y2866515D01*
X2954418Y2866524D01*
X2954535Y2866538D01*
X2954652Y2866555D01*
X2954769Y2866576D01*
X2954884Y2866601D01*
X2954999Y2866630D01*
X2955113Y2866663D01*
X2955225Y2866699D01*
X2955336Y2866739D01*
X2955446Y2866782D01*
X2955555Y2866829D01*
X2955662Y2866879D01*
X2955767Y2866934D01*
X2955870Y2866991D01*
X2955971Y2867052D01*
X2956071Y2867116D01*
X2956168Y2867183D01*
X2956263Y2867253D01*
X2956355Y2867327D01*
X2956446Y2867403D01*
X2956533Y2867483D01*
X2956618Y2867565D01*
X2956700Y2867650D01*
X2956780Y2867737D01*
X2956856Y2867828D01*
X2956930Y2867920D01*
X2957000Y2868015D01*
X2957067Y2868112D01*
X2957131Y2868212D01*
X2957192Y2868313D01*
X2957249Y2868416D01*
X2957304Y2868521D01*
X2957354Y2868628D01*
X2957401Y2868737D01*
X2957444Y2868847D01*
X2957484Y2868958D01*
X2957520Y2869070D01*
X2957553Y2869184D01*
X2957582Y2869299D01*
X2957607Y2869414D01*
X2957628Y2869531D01*
X2957645Y2869648D01*
X2957659Y2869765D01*
X2957668Y2869883D01*
X2957674Y2870001D01*
X2957676Y2870119D01*
X2957677Y2870119D02*
X2957677Y2871926D01*
X2957676Y2871926D02*
X2957674Y2872044D01*
X2957668Y2872162D01*
X2957659Y2872280D01*
X2957645Y2872397D01*
X2957628Y2872514D01*
X2957607Y2872631D01*
X2957582Y2872746D01*
X2957553Y2872861D01*
X2957520Y2872975D01*
X2957484Y2873087D01*
X2957444Y2873198D01*
X2957401Y2873308D01*
X2957354Y2873417D01*
X2957304Y2873524D01*
X2957249Y2873629D01*
X2957192Y2873732D01*
X2957131Y2873833D01*
X2957067Y2873933D01*
X2957000Y2874030D01*
X2956930Y2874125D01*
X2956856Y2874217D01*
X2956780Y2874308D01*
X2956700Y2874395D01*
X2956618Y2874480D01*
X2956533Y2874562D01*
X2956446Y2874642D01*
X2956355Y2874718D01*
X2956263Y2874792D01*
X2956168Y2874862D01*
X2956071Y2874929D01*
X2955971Y2874993D01*
X2955870Y2875054D01*
X2955767Y2875111D01*
X2955662Y2875166D01*
X2955555Y2875216D01*
X2955446Y2875263D01*
X2955336Y2875306D01*
X2955225Y2875346D01*
X2955113Y2875382D01*
X2954999Y2875415D01*
X2954884Y2875444D01*
X2954769Y2875469D01*
X2954652Y2875490D01*
X2954535Y2875507D01*
X2954418Y2875521D01*
X2954300Y2875530D01*
X2954182Y2875536D01*
X2954064Y2875538D01*
X2948646Y2875538D01*
X2948646Y2882763D01*
X2957677Y2882763D01*
X2965632Y2880505D02*
X2965495Y2880216D01*
X2965365Y2879924D01*
X2965242Y2879628D01*
X2965127Y2879330D01*
X2965018Y2879029D01*
X2964917Y2878726D01*
X2964823Y2878420D01*
X2964736Y2878113D01*
X2964657Y2877803D01*
X2964585Y2877491D01*
X2964521Y2877178D01*
X2964464Y2876863D01*
X2964414Y2876547D01*
X2964372Y2876230D01*
X2964338Y2875912D01*
X2964311Y2875594D01*
X2964292Y2875274D01*
X2964281Y2874955D01*
X2964277Y2874635D01*
X2965631Y2880506D02*
X2965670Y2880614D01*
X2965713Y2880721D01*
X2965759Y2880826D01*
X2965810Y2880930D01*
X2965863Y2881032D01*
X2965920Y2881132D01*
X2965981Y2881230D01*
X2966045Y2881325D01*
X2966112Y2881419D01*
X2966183Y2881510D01*
X2966256Y2881599D01*
X2966333Y2881685D01*
X2966412Y2881768D01*
X2966494Y2881849D01*
X2966579Y2881927D01*
X2966667Y2882001D01*
X2966757Y2882073D01*
X2966849Y2882141D01*
X2966944Y2882207D01*
X2967041Y2882269D01*
X2967140Y2882327D01*
X2967242Y2882383D01*
X2967344Y2882434D01*
X2967449Y2882482D01*
X2967555Y2882527D01*
X2967663Y2882568D01*
X2967772Y2882605D01*
X2967882Y2882638D01*
X2967994Y2882667D01*
X2968106Y2882693D01*
X2968219Y2882715D01*
X2968333Y2882732D01*
X2968447Y2882746D01*
X2968562Y2882756D01*
X2968677Y2882762D01*
X2968792Y2882764D01*
X2968792Y2882763D02*
X2968907Y2882761D01*
X2969022Y2882755D01*
X2969137Y2882745D01*
X2969251Y2882731D01*
X2969365Y2882714D01*
X2969478Y2882692D01*
X2969590Y2882666D01*
X2969702Y2882637D01*
X2969812Y2882604D01*
X2969921Y2882567D01*
X2970029Y2882526D01*
X2970135Y2882481D01*
X2970240Y2882433D01*
X2970342Y2882382D01*
X2970443Y2882326D01*
X2970543Y2882268D01*
X2970640Y2882206D01*
X2970734Y2882141D01*
X2970827Y2882072D01*
X2970917Y2882000D01*
X2971005Y2881926D01*
X2971090Y2881848D01*
X2971172Y2881767D01*
X2971251Y2881684D01*
X2971328Y2881598D01*
X2971401Y2881509D01*
X2971472Y2881418D01*
X2971539Y2881324D01*
X2971603Y2881229D01*
X2971664Y2881131D01*
X2971721Y2881031D01*
X2971774Y2880929D01*
X2971825Y2880825D01*
X2971871Y2880720D01*
X2971914Y2880613D01*
X2971953Y2880505D01*
X2972090Y2880216D01*
X2972220Y2879924D01*
X2972343Y2879628D01*
X2972458Y2879330D01*
X2972567Y2879029D01*
X2972668Y2878726D01*
X2972762Y2878420D01*
X2972849Y2878113D01*
X2972928Y2877803D01*
X2973000Y2877491D01*
X2973064Y2877178D01*
X2973121Y2876863D01*
X2973171Y2876547D01*
X2973213Y2876230D01*
X2973247Y2875912D01*
X2973274Y2875594D01*
X2973293Y2875274D01*
X2973304Y2874955D01*
X2973308Y2874635D01*
X2964277Y2874635D02*
X2964281Y2874315D01*
X2964292Y2873996D01*
X2964311Y2873676D01*
X2964338Y2873358D01*
X2964372Y2873040D01*
X2964414Y2872723D01*
X2964464Y2872407D01*
X2964521Y2872092D01*
X2964585Y2871779D01*
X2964657Y2871467D01*
X2964736Y2871157D01*
X2964823Y2870850D01*
X2964917Y2870544D01*
X2965018Y2870241D01*
X2965127Y2869940D01*
X2965242Y2869642D01*
X2965365Y2869346D01*
X2965495Y2869054D01*
X2965632Y2868765D01*
X2965631Y2868765D02*
X2965670Y2868657D01*
X2965713Y2868550D01*
X2965759Y2868445D01*
X2965810Y2868341D01*
X2965863Y2868239D01*
X2965920Y2868139D01*
X2965981Y2868041D01*
X2966045Y2867946D01*
X2966112Y2867852D01*
X2966183Y2867761D01*
X2966256Y2867672D01*
X2966333Y2867586D01*
X2966412Y2867503D01*
X2966494Y2867422D01*
X2966579Y2867344D01*
X2966667Y2867270D01*
X2966757Y2867198D01*
X2966850Y2867129D01*
X2966944Y2867064D01*
X2967041Y2867002D01*
X2967141Y2866944D01*
X2967242Y2866888D01*
X2967344Y2866837D01*
X2967449Y2866789D01*
X2967555Y2866744D01*
X2967663Y2866703D01*
X2967772Y2866666D01*
X2967882Y2866633D01*
X2967994Y2866604D01*
X2968106Y2866578D01*
X2968219Y2866556D01*
X2968333Y2866539D01*
X2968447Y2866525D01*
X2968562Y2866515D01*
X2968677Y2866509D01*
X2968792Y2866507D01*
X2971953Y2868765D02*
X2972090Y2869054D01*
X2972220Y2869346D01*
X2972343Y2869642D01*
X2972458Y2869940D01*
X2972567Y2870241D01*
X2972668Y2870544D01*
X2972762Y2870850D01*
X2972849Y2871157D01*
X2972928Y2871467D01*
X2973000Y2871779D01*
X2973064Y2872092D01*
X2973121Y2872407D01*
X2973171Y2872723D01*
X2973213Y2873040D01*
X2973247Y2873358D01*
X2973274Y2873676D01*
X2973293Y2873996D01*
X2973304Y2874315D01*
X2973308Y2874635D01*
X2971953Y2868765D02*
X2971914Y2868657D01*
X2971871Y2868550D01*
X2971825Y2868445D01*
X2971774Y2868341D01*
X2971721Y2868239D01*
X2971664Y2868139D01*
X2971603Y2868041D01*
X2971539Y2867946D01*
X2971472Y2867852D01*
X2971401Y2867761D01*
X2971328Y2867672D01*
X2971251Y2867586D01*
X2971172Y2867503D01*
X2971090Y2867422D01*
X2971005Y2867344D01*
X2970917Y2867270D01*
X2970827Y2867198D01*
X2970734Y2867129D01*
X2970640Y2867064D01*
X2970543Y2867002D01*
X2970443Y2866944D01*
X2970342Y2866888D01*
X2970239Y2866837D01*
X2970135Y2866789D01*
X2970029Y2866744D01*
X2969921Y2866703D01*
X2969812Y2866666D01*
X2969702Y2866633D01*
X2969590Y2866604D01*
X2969478Y2866578D01*
X2969365Y2866556D01*
X2969251Y2866539D01*
X2969137Y2866525D01*
X2969022Y2866515D01*
X2968907Y2866509D01*
X2968792Y2866507D01*
X2965180Y2870119D02*
X2972405Y2879151D01*
D10*
X2850000Y2875000D02*
X2805500Y2875000D01*
X2805500Y2900000D02*
X2850000Y2900000D01*
X2825000Y2874350D02*
X2825000Y2823000D01*
X2825000Y2900650D02*
X2825000Y2975539D01*
X2825000Y2874350D02*
X2821808Y2849000D01*
X2828192Y2849000D01*
X2825000Y2874350D01*
X2823700Y2849000D01*
X2826300Y2849000D02*
X2825000Y2874350D01*
X2822400Y2849000D01*
X2827600Y2849000D02*
X2825000Y2874350D01*
X2825000Y2900650D02*
X2821808Y2926000D01*
X2828192Y2926000D01*
X2825000Y2900650D01*
X2823700Y2926000D01*
X2826300Y2926000D02*
X2825000Y2900650D01*
X2822400Y2926000D01*
X2827600Y2926000D02*
X2825000Y2900650D01*
D11*
X2802237Y2931729D02*
X2802239Y2931854D01*
X2802245Y2931979D01*
X2802254Y2932104D01*
X2802268Y2932228D01*
X2802285Y2932352D01*
X2802306Y2932476D01*
X2802331Y2932598D01*
X2802360Y2932720D01*
X2802392Y2932841D01*
X2802428Y2932961D01*
X2802468Y2933080D01*
X2802511Y2933197D01*
X2802558Y2933313D01*
X2802609Y2933428D01*
X2802663Y2933540D01*
X2802721Y2933652D01*
X2802781Y2933761D01*
X2802846Y2933868D01*
X2802913Y2933974D01*
X2802984Y2934077D01*
X2803058Y2934178D01*
X2803135Y2934277D01*
X2803215Y2934373D01*
X2803298Y2934467D01*
X2803383Y2934558D01*
X2803472Y2934647D01*
X2803563Y2934732D01*
X2803657Y2934815D01*
X2803753Y2934895D01*
X2803852Y2934972D01*
X2803953Y2935046D01*
X2804056Y2935117D01*
X2804162Y2935184D01*
X2804269Y2935249D01*
X2804378Y2935309D01*
X2804490Y2935367D01*
X2804602Y2935421D01*
X2804717Y2935472D01*
X2804833Y2935519D01*
X2804950Y2935562D01*
X2805069Y2935602D01*
X2805189Y2935638D01*
X2805310Y2935670D01*
X2805432Y2935699D01*
X2805554Y2935724D01*
X2805678Y2935745D01*
X2805802Y2935762D01*
X2805926Y2935776D01*
X2806051Y2935785D01*
X2806176Y2935791D01*
X2806301Y2935793D01*
X2802237Y2931729D02*
X2802239Y2931586D01*
X2802245Y2931444D01*
X2802255Y2931301D01*
X2802268Y2931159D01*
X2802286Y2931018D01*
X2802307Y2930876D01*
X2802332Y2930736D01*
X2802361Y2930596D01*
X2802394Y2930457D01*
X2802431Y2930319D01*
X2802471Y2930182D01*
X2802515Y2930047D01*
X2802563Y2929912D01*
X2802615Y2929779D01*
X2802670Y2929647D01*
X2802729Y2929517D01*
X2802791Y2929389D01*
X2802857Y2929262D01*
X2802926Y2929137D01*
X2802998Y2929014D01*
X2803074Y2928893D01*
X2803153Y2928775D01*
X2803236Y2928658D01*
X2803321Y2928544D01*
X2803410Y2928432D01*
X2803501Y2928323D01*
X2803596Y2928216D01*
X2803693Y2928111D01*
X2803794Y2928010D01*
X2803897Y2927911D01*
X2804002Y2927815D01*
X2804111Y2927722D01*
X2804222Y2927632D01*
X2804335Y2927545D01*
X2804450Y2927461D01*
X2804568Y2927381D01*
X2804688Y2927303D01*
X2804810Y2927229D01*
X2804934Y2927159D01*
X2805060Y2927091D01*
X2805188Y2927028D01*
X2805317Y2926967D01*
X2805448Y2926910D01*
X2805580Y2926857D01*
X2805714Y2926808D01*
X2805849Y2926762D01*
X2809462Y2934438D02*
X2809370Y2934532D01*
X2809276Y2934622D01*
X2809179Y2934710D01*
X2809079Y2934795D01*
X2808977Y2934877D01*
X2808872Y2934955D01*
X2808765Y2935031D01*
X2808656Y2935103D01*
X2808545Y2935172D01*
X2808431Y2935238D01*
X2808316Y2935300D01*
X2808199Y2935359D01*
X2808080Y2935414D01*
X2807960Y2935465D01*
X2807838Y2935513D01*
X2807715Y2935558D01*
X2807591Y2935598D01*
X2807465Y2935635D01*
X2807338Y2935668D01*
X2807211Y2935697D01*
X2807082Y2935723D01*
X2806953Y2935744D01*
X2806823Y2935762D01*
X2806693Y2935775D01*
X2806563Y2935785D01*
X2806432Y2935791D01*
X2806301Y2935793D01*
X2809462Y2934438D02*
X2818493Y2926762D01*
X2818493Y2935793D01*
X2818493Y2941768D02*
X2817590Y2941768D01*
X2817590Y2942671D01*
X2818493Y2942671D01*
X2818493Y2941768D01*
X2818493Y2948646D02*
X2818493Y2954064D01*
X2818491Y2954182D01*
X2818485Y2954300D01*
X2818476Y2954418D01*
X2818462Y2954535D01*
X2818445Y2954652D01*
X2818424Y2954769D01*
X2818399Y2954884D01*
X2818370Y2954999D01*
X2818337Y2955113D01*
X2818301Y2955225D01*
X2818261Y2955336D01*
X2818218Y2955446D01*
X2818171Y2955555D01*
X2818121Y2955662D01*
X2818066Y2955767D01*
X2818009Y2955870D01*
X2817948Y2955971D01*
X2817884Y2956071D01*
X2817817Y2956168D01*
X2817747Y2956263D01*
X2817673Y2956355D01*
X2817597Y2956446D01*
X2817517Y2956533D01*
X2817435Y2956618D01*
X2817350Y2956700D01*
X2817263Y2956780D01*
X2817172Y2956856D01*
X2817080Y2956930D01*
X2816985Y2957000D01*
X2816888Y2957067D01*
X2816788Y2957131D01*
X2816687Y2957192D01*
X2816584Y2957249D01*
X2816479Y2957304D01*
X2816372Y2957354D01*
X2816263Y2957401D01*
X2816153Y2957444D01*
X2816042Y2957484D01*
X2815930Y2957520D01*
X2815816Y2957553D01*
X2815701Y2957582D01*
X2815586Y2957607D01*
X2815469Y2957628D01*
X2815352Y2957645D01*
X2815235Y2957659D01*
X2815117Y2957668D01*
X2814999Y2957674D01*
X2814881Y2957676D01*
X2814881Y2957677D02*
X2813074Y2957677D01*
X2813074Y2957676D02*
X2812956Y2957674D01*
X2812838Y2957668D01*
X2812720Y2957659D01*
X2812603Y2957645D01*
X2812486Y2957628D01*
X2812369Y2957607D01*
X2812254Y2957582D01*
X2812139Y2957553D01*
X2812025Y2957520D01*
X2811913Y2957484D01*
X2811802Y2957444D01*
X2811692Y2957401D01*
X2811583Y2957354D01*
X2811476Y2957304D01*
X2811371Y2957249D01*
X2811268Y2957192D01*
X2811167Y2957131D01*
X2811067Y2957067D01*
X2810970Y2957000D01*
X2810875Y2956930D01*
X2810783Y2956856D01*
X2810692Y2956780D01*
X2810605Y2956700D01*
X2810520Y2956618D01*
X2810438Y2956533D01*
X2810358Y2956446D01*
X2810282Y2956355D01*
X2810208Y2956263D01*
X2810138Y2956168D01*
X2810071Y2956071D01*
X2810007Y2955971D01*
X2809946Y2955870D01*
X2809889Y2955767D01*
X2809834Y2955662D01*
X2809784Y2955555D01*
X2809737Y2955446D01*
X2809694Y2955336D01*
X2809654Y2955225D01*
X2809618Y2955113D01*
X2809585Y2954999D01*
X2809556Y2954884D01*
X2809531Y2954769D01*
X2809510Y2954652D01*
X2809493Y2954535D01*
X2809479Y2954418D01*
X2809470Y2954300D01*
X2809464Y2954182D01*
X2809462Y2954064D01*
X2809462Y2948646D01*
X2802237Y2948646D01*
X2802237Y2957677D01*
X2804495Y2965632D02*
X2804784Y2965495D01*
X2805076Y2965365D01*
X2805372Y2965242D01*
X2805670Y2965127D01*
X2805971Y2965018D01*
X2806274Y2964917D01*
X2806580Y2964823D01*
X2806887Y2964736D01*
X2807197Y2964657D01*
X2807509Y2964585D01*
X2807822Y2964521D01*
X2808137Y2964464D01*
X2808453Y2964414D01*
X2808770Y2964372D01*
X2809088Y2964338D01*
X2809406Y2964311D01*
X2809726Y2964292D01*
X2810045Y2964281D01*
X2810365Y2964277D01*
X2804494Y2965632D02*
X2804386Y2965671D01*
X2804279Y2965714D01*
X2804174Y2965760D01*
X2804071Y2965810D01*
X2803969Y2965864D01*
X2803869Y2965921D01*
X2803771Y2965982D01*
X2803675Y2966046D01*
X2803582Y2966113D01*
X2803491Y2966183D01*
X2803402Y2966257D01*
X2803316Y2966333D01*
X2803233Y2966413D01*
X2803152Y2966495D01*
X2803074Y2966580D01*
X2803000Y2966667D01*
X2802928Y2966758D01*
X2802859Y2966850D01*
X2802794Y2966945D01*
X2802732Y2967042D01*
X2802673Y2967141D01*
X2802618Y2967242D01*
X2802567Y2967345D01*
X2802519Y2967450D01*
X2802474Y2967556D01*
X2802433Y2967663D01*
X2802396Y2967772D01*
X2802363Y2967883D01*
X2802334Y2967994D01*
X2802308Y2968106D01*
X2802286Y2968219D01*
X2802269Y2968333D01*
X2802255Y2968447D01*
X2802245Y2968562D01*
X2802239Y2968677D01*
X2802237Y2968792D01*
X2802239Y2968907D01*
X2802245Y2969022D01*
X2802255Y2969137D01*
X2802269Y2969251D01*
X2802286Y2969365D01*
X2802308Y2969478D01*
X2802334Y2969590D01*
X2802363Y2969702D01*
X2802396Y2969812D01*
X2802433Y2969921D01*
X2802474Y2970029D01*
X2802519Y2970135D01*
X2802567Y2970240D01*
X2802618Y2970342D01*
X2802674Y2970444D01*
X2802732Y2970543D01*
X2802794Y2970640D01*
X2802860Y2970735D01*
X2802928Y2970827D01*
X2803000Y2970917D01*
X2803074Y2971005D01*
X2803152Y2971090D01*
X2803233Y2971172D01*
X2803316Y2971251D01*
X2803402Y2971328D01*
X2803491Y2971401D01*
X2803582Y2971472D01*
X2803676Y2971539D01*
X2803771Y2971603D01*
X2803869Y2971664D01*
X2803969Y2971721D01*
X2804071Y2971774D01*
X2804175Y2971825D01*
X2804280Y2971871D01*
X2804387Y2971914D01*
X2804495Y2971953D01*
X2804784Y2972090D01*
X2805076Y2972220D01*
X2805372Y2972343D01*
X2805670Y2972458D01*
X2805971Y2972567D01*
X2806274Y2972668D01*
X2806580Y2972762D01*
X2806887Y2972849D01*
X2807197Y2972928D01*
X2807509Y2973000D01*
X2807822Y2973064D01*
X2808137Y2973121D01*
X2808453Y2973171D01*
X2808770Y2973213D01*
X2809088Y2973247D01*
X2809406Y2973274D01*
X2809726Y2973293D01*
X2810045Y2973304D01*
X2810365Y2973308D01*
X2810365Y2964277D02*
X2810685Y2964281D01*
X2811004Y2964292D01*
X2811324Y2964311D01*
X2811642Y2964338D01*
X2811960Y2964372D01*
X2812277Y2964414D01*
X2812593Y2964464D01*
X2812908Y2964521D01*
X2813221Y2964585D01*
X2813533Y2964657D01*
X2813843Y2964736D01*
X2814150Y2964823D01*
X2814456Y2964917D01*
X2814759Y2965018D01*
X2815060Y2965127D01*
X2815358Y2965242D01*
X2815654Y2965365D01*
X2815946Y2965495D01*
X2816235Y2965632D01*
X2816236Y2965631D02*
X2816344Y2965670D01*
X2816451Y2965713D01*
X2816556Y2965759D01*
X2816660Y2965810D01*
X2816762Y2965863D01*
X2816862Y2965920D01*
X2816960Y2965981D01*
X2817055Y2966045D01*
X2817149Y2966112D01*
X2817240Y2966183D01*
X2817329Y2966256D01*
X2817415Y2966333D01*
X2817498Y2966412D01*
X2817579Y2966494D01*
X2817657Y2966579D01*
X2817731Y2966667D01*
X2817803Y2966757D01*
X2817872Y2966850D01*
X2817937Y2966944D01*
X2817999Y2967041D01*
X2818057Y2967141D01*
X2818113Y2967242D01*
X2818164Y2967344D01*
X2818212Y2967449D01*
X2818257Y2967555D01*
X2818298Y2967663D01*
X2818335Y2967772D01*
X2818368Y2967882D01*
X2818397Y2967994D01*
X2818423Y2968106D01*
X2818445Y2968219D01*
X2818462Y2968333D01*
X2818476Y2968447D01*
X2818486Y2968562D01*
X2818492Y2968677D01*
X2818494Y2968792D01*
X2816235Y2971953D02*
X2815946Y2972090D01*
X2815654Y2972220D01*
X2815358Y2972343D01*
X2815060Y2972458D01*
X2814759Y2972567D01*
X2814456Y2972668D01*
X2814150Y2972762D01*
X2813843Y2972849D01*
X2813533Y2972928D01*
X2813221Y2973000D01*
X2812908Y2973064D01*
X2812593Y2973121D01*
X2812277Y2973171D01*
X2811960Y2973213D01*
X2811642Y2973247D01*
X2811324Y2973274D01*
X2811004Y2973293D01*
X2810685Y2973304D01*
X2810365Y2973308D01*
X2816235Y2971953D02*
X2816343Y2971914D01*
X2816450Y2971871D01*
X2816555Y2971825D01*
X2816659Y2971774D01*
X2816761Y2971721D01*
X2816861Y2971664D01*
X2816959Y2971603D01*
X2817054Y2971539D01*
X2817148Y2971472D01*
X2817239Y2971401D01*
X2817328Y2971328D01*
X2817414Y2971251D01*
X2817497Y2971172D01*
X2817578Y2971090D01*
X2817656Y2971005D01*
X2817730Y2970917D01*
X2817802Y2970827D01*
X2817871Y2970734D01*
X2817936Y2970640D01*
X2817998Y2970543D01*
X2818056Y2970443D01*
X2818112Y2970342D01*
X2818163Y2970239D01*
X2818211Y2970135D01*
X2818256Y2970029D01*
X2818297Y2969921D01*
X2818334Y2969812D01*
X2818367Y2969702D01*
X2818396Y2969590D01*
X2818422Y2969478D01*
X2818444Y2969365D01*
X2818461Y2969251D01*
X2818475Y2969137D01*
X2818485Y2969022D01*
X2818491Y2968907D01*
X2818493Y2968792D01*
X2814881Y2965180D02*
X2805849Y2972405D01*
D10*
X10000Y2974500D02*
X10000Y2900000D01*
X1197500Y2880000D02*
X1197500Y2974500D01*
X1196850Y2955000D02*
X10650Y2955000D01*
X36000Y2958192D01*
X36000Y2951808D01*
X10650Y2955000D01*
X36000Y2956300D01*
X36000Y2953700D02*
X10650Y2955000D01*
X36000Y2957600D01*
X36000Y2952400D02*
X10650Y2955000D01*
X1171500Y2958192D02*
X1196850Y2955000D01*
X1171500Y2958192D02*
X1171500Y2951808D01*
X1196850Y2955000D01*
X1171500Y2956300D01*
X1171500Y2953700D02*
X1196850Y2955000D01*
X1171500Y2957600D01*
X1171500Y2952400D02*
X1196850Y2955000D01*
D11*
X571048Y2977763D02*
X566532Y2974151D01*
X571048Y2977763D02*
X571048Y2961507D01*
X566532Y2961507D02*
X575564Y2961507D01*
X582164Y2974151D02*
X586679Y2977763D01*
X586679Y2961507D01*
X582164Y2961507D02*
X591195Y2961507D01*
X597794Y2966023D02*
X597796Y2966156D01*
X597802Y2966288D01*
X597812Y2966420D01*
X597825Y2966552D01*
X597843Y2966684D01*
X597864Y2966814D01*
X597889Y2966945D01*
X597918Y2967074D01*
X597951Y2967202D01*
X597987Y2967330D01*
X598027Y2967456D01*
X598071Y2967581D01*
X598119Y2967705D01*
X598170Y2967827D01*
X598225Y2967948D01*
X598283Y2968067D01*
X598345Y2968185D01*
X598410Y2968300D01*
X598479Y2968414D01*
X598550Y2968525D01*
X598626Y2968634D01*
X598704Y2968741D01*
X598785Y2968846D01*
X598870Y2968948D01*
X598957Y2969048D01*
X599047Y2969145D01*
X599140Y2969240D01*
X599236Y2969331D01*
X599334Y2969420D01*
X599435Y2969506D01*
X599539Y2969589D01*
X599645Y2969669D01*
X599753Y2969745D01*
X599863Y2969819D01*
X599976Y2969889D01*
X600090Y2969956D01*
X600207Y2970019D01*
X600325Y2970079D01*
X600445Y2970136D01*
X600567Y2970189D01*
X600690Y2970238D01*
X600814Y2970284D01*
X600940Y2970326D01*
X601067Y2970364D01*
X601195Y2970399D01*
X601324Y2970430D01*
X601453Y2970457D01*
X601584Y2970480D01*
X601715Y2970500D01*
X601847Y2970515D01*
X601979Y2970527D01*
X602111Y2970535D01*
X602244Y2970539D01*
X602376Y2970539D01*
X602509Y2970535D01*
X602641Y2970527D01*
X602773Y2970515D01*
X602905Y2970500D01*
X603036Y2970480D01*
X603167Y2970457D01*
X603296Y2970430D01*
X603425Y2970399D01*
X603553Y2970364D01*
X603680Y2970326D01*
X603806Y2970284D01*
X603930Y2970238D01*
X604053Y2970189D01*
X604175Y2970136D01*
X604295Y2970079D01*
X604413Y2970019D01*
X604530Y2969956D01*
X604644Y2969889D01*
X604757Y2969819D01*
X604867Y2969745D01*
X604975Y2969669D01*
X605081Y2969589D01*
X605185Y2969506D01*
X605286Y2969420D01*
X605384Y2969331D01*
X605480Y2969240D01*
X605573Y2969145D01*
X605663Y2969048D01*
X605750Y2968948D01*
X605835Y2968846D01*
X605916Y2968741D01*
X605994Y2968634D01*
X606070Y2968525D01*
X606141Y2968414D01*
X606210Y2968300D01*
X606275Y2968185D01*
X606337Y2968067D01*
X606395Y2967948D01*
X606450Y2967827D01*
X606501Y2967705D01*
X606549Y2967581D01*
X606593Y2967456D01*
X606633Y2967330D01*
X606669Y2967202D01*
X606702Y2967074D01*
X606731Y2966945D01*
X606756Y2966814D01*
X606777Y2966684D01*
X606795Y2966552D01*
X606808Y2966420D01*
X606818Y2966288D01*
X606824Y2966156D01*
X606826Y2966023D01*
X606824Y2965890D01*
X606818Y2965758D01*
X606808Y2965626D01*
X606795Y2965494D01*
X606777Y2965362D01*
X606756Y2965232D01*
X606731Y2965101D01*
X606702Y2964972D01*
X606669Y2964844D01*
X606633Y2964716D01*
X606593Y2964590D01*
X606549Y2964465D01*
X606501Y2964341D01*
X606450Y2964219D01*
X606395Y2964098D01*
X606337Y2963979D01*
X606275Y2963861D01*
X606210Y2963746D01*
X606141Y2963632D01*
X606070Y2963521D01*
X605994Y2963412D01*
X605916Y2963305D01*
X605835Y2963200D01*
X605750Y2963098D01*
X605663Y2962998D01*
X605573Y2962901D01*
X605480Y2962806D01*
X605384Y2962715D01*
X605286Y2962626D01*
X605185Y2962540D01*
X605081Y2962457D01*
X604975Y2962377D01*
X604867Y2962301D01*
X604757Y2962227D01*
X604644Y2962157D01*
X604530Y2962090D01*
X604413Y2962027D01*
X604295Y2961967D01*
X604175Y2961910D01*
X604053Y2961857D01*
X603930Y2961808D01*
X603806Y2961762D01*
X603680Y2961720D01*
X603553Y2961682D01*
X603425Y2961647D01*
X603296Y2961616D01*
X603167Y2961589D01*
X603036Y2961566D01*
X602905Y2961546D01*
X602773Y2961531D01*
X602641Y2961519D01*
X602509Y2961511D01*
X602376Y2961507D01*
X602244Y2961507D01*
X602111Y2961511D01*
X601979Y2961519D01*
X601847Y2961531D01*
X601715Y2961546D01*
X601584Y2961566D01*
X601453Y2961589D01*
X601324Y2961616D01*
X601195Y2961647D01*
X601067Y2961682D01*
X600940Y2961720D01*
X600814Y2961762D01*
X600690Y2961808D01*
X600567Y2961857D01*
X600445Y2961910D01*
X600325Y2961967D01*
X600207Y2962027D01*
X600090Y2962090D01*
X599976Y2962157D01*
X599863Y2962227D01*
X599753Y2962301D01*
X599645Y2962377D01*
X599539Y2962457D01*
X599435Y2962540D01*
X599334Y2962626D01*
X599236Y2962715D01*
X599140Y2962806D01*
X599047Y2962901D01*
X598957Y2962998D01*
X598870Y2963098D01*
X598785Y2963200D01*
X598704Y2963305D01*
X598626Y2963412D01*
X598550Y2963521D01*
X598479Y2963632D01*
X598410Y2963746D01*
X598345Y2963861D01*
X598283Y2963979D01*
X598225Y2964098D01*
X598170Y2964219D01*
X598119Y2964341D01*
X598071Y2964465D01*
X598027Y2964590D01*
X597987Y2964716D01*
X597951Y2964844D01*
X597918Y2964972D01*
X597889Y2965101D01*
X597864Y2965232D01*
X597843Y2965362D01*
X597825Y2965494D01*
X597812Y2965626D01*
X597802Y2965758D01*
X597796Y2965890D01*
X597794Y2966023D01*
X598698Y2974151D02*
X598700Y2974270D01*
X598706Y2974390D01*
X598716Y2974509D01*
X598730Y2974627D01*
X598747Y2974746D01*
X598769Y2974863D01*
X598794Y2974980D01*
X598824Y2975095D01*
X598857Y2975210D01*
X598894Y2975324D01*
X598934Y2975436D01*
X598979Y2975547D01*
X599027Y2975656D01*
X599078Y2975764D01*
X599133Y2975870D01*
X599192Y2975974D01*
X599254Y2976076D01*
X599319Y2976176D01*
X599388Y2976274D01*
X599460Y2976370D01*
X599535Y2976463D01*
X599612Y2976553D01*
X599693Y2976641D01*
X599777Y2976726D01*
X599864Y2976808D01*
X599953Y2976888D01*
X600045Y2976964D01*
X600139Y2977038D01*
X600236Y2977108D01*
X600334Y2977175D01*
X600435Y2977239D01*
X600539Y2977299D01*
X600644Y2977356D01*
X600751Y2977409D01*
X600859Y2977459D01*
X600969Y2977505D01*
X601081Y2977547D01*
X601194Y2977586D01*
X601308Y2977621D01*
X601423Y2977652D01*
X601540Y2977680D01*
X601657Y2977703D01*
X601774Y2977723D01*
X601893Y2977739D01*
X602012Y2977751D01*
X602131Y2977759D01*
X602250Y2977763D01*
X602370Y2977763D01*
X602489Y2977759D01*
X602608Y2977751D01*
X602727Y2977739D01*
X602846Y2977723D01*
X602963Y2977703D01*
X603080Y2977680D01*
X603197Y2977652D01*
X603312Y2977621D01*
X603426Y2977586D01*
X603539Y2977547D01*
X603651Y2977505D01*
X603761Y2977459D01*
X603869Y2977409D01*
X603976Y2977356D01*
X604081Y2977299D01*
X604185Y2977239D01*
X604286Y2977175D01*
X604384Y2977108D01*
X604481Y2977038D01*
X604575Y2976964D01*
X604667Y2976888D01*
X604756Y2976808D01*
X604843Y2976726D01*
X604927Y2976641D01*
X605008Y2976553D01*
X605085Y2976463D01*
X605160Y2976370D01*
X605232Y2976274D01*
X605301Y2976176D01*
X605366Y2976076D01*
X605428Y2975974D01*
X605487Y2975870D01*
X605542Y2975764D01*
X605593Y2975656D01*
X605641Y2975547D01*
X605686Y2975436D01*
X605726Y2975324D01*
X605763Y2975210D01*
X605796Y2975095D01*
X605826Y2974980D01*
X605851Y2974863D01*
X605873Y2974746D01*
X605890Y2974627D01*
X605904Y2974509D01*
X605914Y2974390D01*
X605920Y2974270D01*
X605922Y2974151D01*
X605920Y2974032D01*
X605914Y2973912D01*
X605904Y2973793D01*
X605890Y2973675D01*
X605873Y2973556D01*
X605851Y2973439D01*
X605826Y2973322D01*
X605796Y2973207D01*
X605763Y2973092D01*
X605726Y2972978D01*
X605686Y2972866D01*
X605641Y2972755D01*
X605593Y2972646D01*
X605542Y2972538D01*
X605487Y2972432D01*
X605428Y2972328D01*
X605366Y2972226D01*
X605301Y2972126D01*
X605232Y2972028D01*
X605160Y2971932D01*
X605085Y2971839D01*
X605008Y2971749D01*
X604927Y2971661D01*
X604843Y2971576D01*
X604756Y2971494D01*
X604667Y2971414D01*
X604575Y2971338D01*
X604481Y2971264D01*
X604384Y2971194D01*
X604286Y2971127D01*
X604185Y2971063D01*
X604081Y2971003D01*
X603976Y2970946D01*
X603869Y2970893D01*
X603761Y2970843D01*
X603651Y2970797D01*
X603539Y2970755D01*
X603426Y2970716D01*
X603312Y2970681D01*
X603197Y2970650D01*
X603080Y2970622D01*
X602963Y2970599D01*
X602846Y2970579D01*
X602727Y2970563D01*
X602608Y2970551D01*
X602489Y2970543D01*
X602370Y2970539D01*
X602250Y2970539D01*
X602131Y2970543D01*
X602012Y2970551D01*
X601893Y2970563D01*
X601774Y2970579D01*
X601657Y2970599D01*
X601540Y2970622D01*
X601423Y2970650D01*
X601308Y2970681D01*
X601194Y2970716D01*
X601081Y2970755D01*
X600969Y2970797D01*
X600859Y2970843D01*
X600751Y2970893D01*
X600644Y2970946D01*
X600539Y2971003D01*
X600435Y2971063D01*
X600334Y2971127D01*
X600236Y2971194D01*
X600139Y2971264D01*
X600045Y2971338D01*
X599953Y2971414D01*
X599864Y2971494D01*
X599777Y2971576D01*
X599693Y2971661D01*
X599612Y2971749D01*
X599535Y2971839D01*
X599460Y2971932D01*
X599388Y2972028D01*
X599319Y2972126D01*
X599254Y2972226D01*
X599192Y2972328D01*
X599133Y2972432D01*
X599078Y2972538D01*
X599027Y2972646D01*
X598979Y2972755D01*
X598934Y2972866D01*
X598894Y2972978D01*
X598857Y2973092D01*
X598824Y2973207D01*
X598794Y2973322D01*
X598769Y2973439D01*
X598747Y2973556D01*
X598730Y2973675D01*
X598716Y2973793D01*
X598706Y2973912D01*
X598700Y2974032D01*
X598698Y2974151D01*
X612801Y2962410D02*
X612801Y2961507D01*
X612801Y2962410D02*
X613704Y2962410D01*
X613704Y2961507D01*
X612801Y2961507D01*
X619679Y2975957D02*
X619679Y2977763D01*
X628710Y2977763D01*
X624194Y2961507D01*
X635310Y2961507D02*
X640728Y2961507D01*
X640846Y2961509D01*
X640964Y2961515D01*
X641082Y2961524D01*
X641199Y2961538D01*
X641316Y2961555D01*
X641433Y2961576D01*
X641548Y2961601D01*
X641663Y2961630D01*
X641777Y2961663D01*
X641889Y2961699D01*
X642000Y2961739D01*
X642110Y2961782D01*
X642219Y2961829D01*
X642326Y2961879D01*
X642431Y2961934D01*
X642534Y2961991D01*
X642635Y2962052D01*
X642735Y2962116D01*
X642832Y2962183D01*
X642927Y2962253D01*
X643019Y2962327D01*
X643110Y2962403D01*
X643197Y2962483D01*
X643282Y2962565D01*
X643364Y2962650D01*
X643444Y2962737D01*
X643520Y2962828D01*
X643594Y2962920D01*
X643664Y2963015D01*
X643731Y2963112D01*
X643795Y2963212D01*
X643856Y2963313D01*
X643913Y2963416D01*
X643968Y2963521D01*
X644018Y2963628D01*
X644065Y2963737D01*
X644108Y2963847D01*
X644148Y2963958D01*
X644184Y2964070D01*
X644217Y2964184D01*
X644246Y2964299D01*
X644271Y2964414D01*
X644292Y2964531D01*
X644309Y2964648D01*
X644323Y2964765D01*
X644332Y2964883D01*
X644338Y2965001D01*
X644340Y2965119D01*
X644341Y2965119D02*
X644341Y2966926D01*
X644340Y2966926D02*
X644338Y2967044D01*
X644332Y2967162D01*
X644323Y2967280D01*
X644309Y2967397D01*
X644292Y2967514D01*
X644271Y2967631D01*
X644246Y2967746D01*
X644217Y2967861D01*
X644184Y2967975D01*
X644148Y2968087D01*
X644108Y2968198D01*
X644065Y2968308D01*
X644018Y2968417D01*
X643968Y2968524D01*
X643913Y2968629D01*
X643856Y2968732D01*
X643795Y2968833D01*
X643731Y2968933D01*
X643664Y2969030D01*
X643594Y2969125D01*
X643520Y2969217D01*
X643444Y2969308D01*
X643364Y2969395D01*
X643282Y2969480D01*
X643197Y2969562D01*
X643110Y2969642D01*
X643019Y2969718D01*
X642927Y2969792D01*
X642832Y2969862D01*
X642735Y2969929D01*
X642635Y2969993D01*
X642534Y2970054D01*
X642431Y2970111D01*
X642326Y2970166D01*
X642219Y2970216D01*
X642110Y2970263D01*
X642000Y2970306D01*
X641889Y2970346D01*
X641777Y2970382D01*
X641663Y2970415D01*
X641548Y2970444D01*
X641433Y2970469D01*
X641316Y2970490D01*
X641199Y2970507D01*
X641082Y2970521D01*
X640964Y2970530D01*
X640846Y2970536D01*
X640728Y2970538D01*
X635310Y2970538D01*
X635310Y2977763D01*
X644341Y2977763D01*
D10*
X1707500Y3069500D02*
X1707500Y2880000D01*
X2895000Y2890000D02*
X2895000Y3069500D01*
X2894350Y3050000D02*
X1708150Y3050000D01*
X1733500Y3053192D01*
X1733500Y3046808D01*
X1708150Y3050000D01*
X1733500Y3051300D01*
X1733500Y3048700D02*
X1708150Y3050000D01*
X1733500Y3052600D01*
X1733500Y3047400D02*
X1708150Y3050000D01*
X2869000Y3053192D02*
X2894350Y3050000D01*
X2869000Y3053192D02*
X2869000Y3046808D01*
X2894350Y3050000D01*
X2869000Y3051300D01*
X2869000Y3048700D02*
X2894350Y3050000D01*
X2869000Y3052600D01*
X2869000Y3047400D02*
X2894350Y3050000D01*
D11*
X2268548Y3072763D02*
X2264032Y3069151D01*
X2268548Y3072763D02*
X2268548Y3056507D01*
X2264032Y3056507D02*
X2273064Y3056507D01*
X2279664Y3069151D02*
X2284179Y3072763D01*
X2284179Y3056507D01*
X2279664Y3056507D02*
X2288695Y3056507D01*
X2295294Y3061023D02*
X2295296Y3061156D01*
X2295302Y3061288D01*
X2295312Y3061420D01*
X2295325Y3061552D01*
X2295343Y3061684D01*
X2295364Y3061814D01*
X2295389Y3061945D01*
X2295418Y3062074D01*
X2295451Y3062202D01*
X2295487Y3062330D01*
X2295527Y3062456D01*
X2295571Y3062581D01*
X2295619Y3062705D01*
X2295670Y3062827D01*
X2295725Y3062948D01*
X2295783Y3063067D01*
X2295845Y3063185D01*
X2295910Y3063300D01*
X2295979Y3063414D01*
X2296050Y3063525D01*
X2296126Y3063634D01*
X2296204Y3063741D01*
X2296285Y3063846D01*
X2296370Y3063948D01*
X2296457Y3064048D01*
X2296547Y3064145D01*
X2296640Y3064240D01*
X2296736Y3064331D01*
X2296834Y3064420D01*
X2296935Y3064506D01*
X2297039Y3064589D01*
X2297145Y3064669D01*
X2297253Y3064745D01*
X2297363Y3064819D01*
X2297476Y3064889D01*
X2297590Y3064956D01*
X2297707Y3065019D01*
X2297825Y3065079D01*
X2297945Y3065136D01*
X2298067Y3065189D01*
X2298190Y3065238D01*
X2298314Y3065284D01*
X2298440Y3065326D01*
X2298567Y3065364D01*
X2298695Y3065399D01*
X2298824Y3065430D01*
X2298953Y3065457D01*
X2299084Y3065480D01*
X2299215Y3065500D01*
X2299347Y3065515D01*
X2299479Y3065527D01*
X2299611Y3065535D01*
X2299744Y3065539D01*
X2299876Y3065539D01*
X2300009Y3065535D01*
X2300141Y3065527D01*
X2300273Y3065515D01*
X2300405Y3065500D01*
X2300536Y3065480D01*
X2300667Y3065457D01*
X2300796Y3065430D01*
X2300925Y3065399D01*
X2301053Y3065364D01*
X2301180Y3065326D01*
X2301306Y3065284D01*
X2301430Y3065238D01*
X2301553Y3065189D01*
X2301675Y3065136D01*
X2301795Y3065079D01*
X2301913Y3065019D01*
X2302030Y3064956D01*
X2302144Y3064889D01*
X2302257Y3064819D01*
X2302367Y3064745D01*
X2302475Y3064669D01*
X2302581Y3064589D01*
X2302685Y3064506D01*
X2302786Y3064420D01*
X2302884Y3064331D01*
X2302980Y3064240D01*
X2303073Y3064145D01*
X2303163Y3064048D01*
X2303250Y3063948D01*
X2303335Y3063846D01*
X2303416Y3063741D01*
X2303494Y3063634D01*
X2303570Y3063525D01*
X2303641Y3063414D01*
X2303710Y3063300D01*
X2303775Y3063185D01*
X2303837Y3063067D01*
X2303895Y3062948D01*
X2303950Y3062827D01*
X2304001Y3062705D01*
X2304049Y3062581D01*
X2304093Y3062456D01*
X2304133Y3062330D01*
X2304169Y3062202D01*
X2304202Y3062074D01*
X2304231Y3061945D01*
X2304256Y3061814D01*
X2304277Y3061684D01*
X2304295Y3061552D01*
X2304308Y3061420D01*
X2304318Y3061288D01*
X2304324Y3061156D01*
X2304326Y3061023D01*
X2304324Y3060890D01*
X2304318Y3060758D01*
X2304308Y3060626D01*
X2304295Y3060494D01*
X2304277Y3060362D01*
X2304256Y3060232D01*
X2304231Y3060101D01*
X2304202Y3059972D01*
X2304169Y3059844D01*
X2304133Y3059716D01*
X2304093Y3059590D01*
X2304049Y3059465D01*
X2304001Y3059341D01*
X2303950Y3059219D01*
X2303895Y3059098D01*
X2303837Y3058979D01*
X2303775Y3058861D01*
X2303710Y3058746D01*
X2303641Y3058632D01*
X2303570Y3058521D01*
X2303494Y3058412D01*
X2303416Y3058305D01*
X2303335Y3058200D01*
X2303250Y3058098D01*
X2303163Y3057998D01*
X2303073Y3057901D01*
X2302980Y3057806D01*
X2302884Y3057715D01*
X2302786Y3057626D01*
X2302685Y3057540D01*
X2302581Y3057457D01*
X2302475Y3057377D01*
X2302367Y3057301D01*
X2302257Y3057227D01*
X2302144Y3057157D01*
X2302030Y3057090D01*
X2301913Y3057027D01*
X2301795Y3056967D01*
X2301675Y3056910D01*
X2301553Y3056857D01*
X2301430Y3056808D01*
X2301306Y3056762D01*
X2301180Y3056720D01*
X2301053Y3056682D01*
X2300925Y3056647D01*
X2300796Y3056616D01*
X2300667Y3056589D01*
X2300536Y3056566D01*
X2300405Y3056546D01*
X2300273Y3056531D01*
X2300141Y3056519D01*
X2300009Y3056511D01*
X2299876Y3056507D01*
X2299744Y3056507D01*
X2299611Y3056511D01*
X2299479Y3056519D01*
X2299347Y3056531D01*
X2299215Y3056546D01*
X2299084Y3056566D01*
X2298953Y3056589D01*
X2298824Y3056616D01*
X2298695Y3056647D01*
X2298567Y3056682D01*
X2298440Y3056720D01*
X2298314Y3056762D01*
X2298190Y3056808D01*
X2298067Y3056857D01*
X2297945Y3056910D01*
X2297825Y3056967D01*
X2297707Y3057027D01*
X2297590Y3057090D01*
X2297476Y3057157D01*
X2297363Y3057227D01*
X2297253Y3057301D01*
X2297145Y3057377D01*
X2297039Y3057457D01*
X2296935Y3057540D01*
X2296834Y3057626D01*
X2296736Y3057715D01*
X2296640Y3057806D01*
X2296547Y3057901D01*
X2296457Y3057998D01*
X2296370Y3058098D01*
X2296285Y3058200D01*
X2296204Y3058305D01*
X2296126Y3058412D01*
X2296050Y3058521D01*
X2295979Y3058632D01*
X2295910Y3058746D01*
X2295845Y3058861D01*
X2295783Y3058979D01*
X2295725Y3059098D01*
X2295670Y3059219D01*
X2295619Y3059341D01*
X2295571Y3059465D01*
X2295527Y3059590D01*
X2295487Y3059716D01*
X2295451Y3059844D01*
X2295418Y3059972D01*
X2295389Y3060101D01*
X2295364Y3060232D01*
X2295343Y3060362D01*
X2295325Y3060494D01*
X2295312Y3060626D01*
X2295302Y3060758D01*
X2295296Y3060890D01*
X2295294Y3061023D01*
X2296198Y3069151D02*
X2296200Y3069270D01*
X2296206Y3069390D01*
X2296216Y3069509D01*
X2296230Y3069627D01*
X2296247Y3069746D01*
X2296269Y3069863D01*
X2296294Y3069980D01*
X2296324Y3070095D01*
X2296357Y3070210D01*
X2296394Y3070324D01*
X2296434Y3070436D01*
X2296479Y3070547D01*
X2296527Y3070656D01*
X2296578Y3070764D01*
X2296633Y3070870D01*
X2296692Y3070974D01*
X2296754Y3071076D01*
X2296819Y3071176D01*
X2296888Y3071274D01*
X2296960Y3071370D01*
X2297035Y3071463D01*
X2297112Y3071553D01*
X2297193Y3071641D01*
X2297277Y3071726D01*
X2297364Y3071808D01*
X2297453Y3071888D01*
X2297545Y3071964D01*
X2297639Y3072038D01*
X2297736Y3072108D01*
X2297834Y3072175D01*
X2297935Y3072239D01*
X2298039Y3072299D01*
X2298144Y3072356D01*
X2298251Y3072409D01*
X2298359Y3072459D01*
X2298469Y3072505D01*
X2298581Y3072547D01*
X2298694Y3072586D01*
X2298808Y3072621D01*
X2298923Y3072652D01*
X2299040Y3072680D01*
X2299157Y3072703D01*
X2299274Y3072723D01*
X2299393Y3072739D01*
X2299512Y3072751D01*
X2299631Y3072759D01*
X2299750Y3072763D01*
X2299870Y3072763D01*
X2299989Y3072759D01*
X2300108Y3072751D01*
X2300227Y3072739D01*
X2300346Y3072723D01*
X2300463Y3072703D01*
X2300580Y3072680D01*
X2300697Y3072652D01*
X2300812Y3072621D01*
X2300926Y3072586D01*
X2301039Y3072547D01*
X2301151Y3072505D01*
X2301261Y3072459D01*
X2301369Y3072409D01*
X2301476Y3072356D01*
X2301581Y3072299D01*
X2301685Y3072239D01*
X2301786Y3072175D01*
X2301884Y3072108D01*
X2301981Y3072038D01*
X2302075Y3071964D01*
X2302167Y3071888D01*
X2302256Y3071808D01*
X2302343Y3071726D01*
X2302427Y3071641D01*
X2302508Y3071553D01*
X2302585Y3071463D01*
X2302660Y3071370D01*
X2302732Y3071274D01*
X2302801Y3071176D01*
X2302866Y3071076D01*
X2302928Y3070974D01*
X2302987Y3070870D01*
X2303042Y3070764D01*
X2303093Y3070656D01*
X2303141Y3070547D01*
X2303186Y3070436D01*
X2303226Y3070324D01*
X2303263Y3070210D01*
X2303296Y3070095D01*
X2303326Y3069980D01*
X2303351Y3069863D01*
X2303373Y3069746D01*
X2303390Y3069627D01*
X2303404Y3069509D01*
X2303414Y3069390D01*
X2303420Y3069270D01*
X2303422Y3069151D01*
X2303420Y3069032D01*
X2303414Y3068912D01*
X2303404Y3068793D01*
X2303390Y3068675D01*
X2303373Y3068556D01*
X2303351Y3068439D01*
X2303326Y3068322D01*
X2303296Y3068207D01*
X2303263Y3068092D01*
X2303226Y3067978D01*
X2303186Y3067866D01*
X2303141Y3067755D01*
X2303093Y3067646D01*
X2303042Y3067538D01*
X2302987Y3067432D01*
X2302928Y3067328D01*
X2302866Y3067226D01*
X2302801Y3067126D01*
X2302732Y3067028D01*
X2302660Y3066932D01*
X2302585Y3066839D01*
X2302508Y3066749D01*
X2302427Y3066661D01*
X2302343Y3066576D01*
X2302256Y3066494D01*
X2302167Y3066414D01*
X2302075Y3066338D01*
X2301981Y3066264D01*
X2301884Y3066194D01*
X2301786Y3066127D01*
X2301685Y3066063D01*
X2301581Y3066003D01*
X2301476Y3065946D01*
X2301369Y3065893D01*
X2301261Y3065843D01*
X2301151Y3065797D01*
X2301039Y3065755D01*
X2300926Y3065716D01*
X2300812Y3065681D01*
X2300697Y3065650D01*
X2300580Y3065622D01*
X2300463Y3065599D01*
X2300346Y3065579D01*
X2300227Y3065563D01*
X2300108Y3065551D01*
X2299989Y3065543D01*
X2299870Y3065539D01*
X2299750Y3065539D01*
X2299631Y3065543D01*
X2299512Y3065551D01*
X2299393Y3065563D01*
X2299274Y3065579D01*
X2299157Y3065599D01*
X2299040Y3065622D01*
X2298923Y3065650D01*
X2298808Y3065681D01*
X2298694Y3065716D01*
X2298581Y3065755D01*
X2298469Y3065797D01*
X2298359Y3065843D01*
X2298251Y3065893D01*
X2298144Y3065946D01*
X2298039Y3066003D01*
X2297935Y3066063D01*
X2297834Y3066127D01*
X2297736Y3066194D01*
X2297639Y3066264D01*
X2297545Y3066338D01*
X2297453Y3066414D01*
X2297364Y3066494D01*
X2297277Y3066576D01*
X2297193Y3066661D01*
X2297112Y3066749D01*
X2297035Y3066839D01*
X2296960Y3066932D01*
X2296888Y3067028D01*
X2296819Y3067126D01*
X2296754Y3067226D01*
X2296692Y3067328D01*
X2296633Y3067432D01*
X2296578Y3067538D01*
X2296527Y3067646D01*
X2296479Y3067755D01*
X2296434Y3067866D01*
X2296394Y3067978D01*
X2296357Y3068092D01*
X2296324Y3068207D01*
X2296294Y3068322D01*
X2296269Y3068439D01*
X2296247Y3068556D01*
X2296230Y3068675D01*
X2296216Y3068793D01*
X2296206Y3068912D01*
X2296200Y3069032D01*
X2296198Y3069151D01*
X2310301Y3057410D02*
X2310301Y3056507D01*
X2310301Y3057410D02*
X2311204Y3057410D01*
X2311204Y3056507D01*
X2310301Y3056507D01*
X2317179Y3070957D02*
X2317179Y3072763D01*
X2326210Y3072763D01*
X2321694Y3056507D01*
X2332810Y3056507D02*
X2338228Y3056507D01*
X2338346Y3056509D01*
X2338464Y3056515D01*
X2338582Y3056524D01*
X2338699Y3056538D01*
X2338816Y3056555D01*
X2338933Y3056576D01*
X2339048Y3056601D01*
X2339163Y3056630D01*
X2339277Y3056663D01*
X2339389Y3056699D01*
X2339500Y3056739D01*
X2339610Y3056782D01*
X2339719Y3056829D01*
X2339826Y3056879D01*
X2339931Y3056934D01*
X2340034Y3056991D01*
X2340135Y3057052D01*
X2340235Y3057116D01*
X2340332Y3057183D01*
X2340427Y3057253D01*
X2340519Y3057327D01*
X2340610Y3057403D01*
X2340697Y3057483D01*
X2340782Y3057565D01*
X2340864Y3057650D01*
X2340944Y3057737D01*
X2341020Y3057828D01*
X2341094Y3057920D01*
X2341164Y3058015D01*
X2341231Y3058112D01*
X2341295Y3058212D01*
X2341356Y3058313D01*
X2341413Y3058416D01*
X2341468Y3058521D01*
X2341518Y3058628D01*
X2341565Y3058737D01*
X2341608Y3058847D01*
X2341648Y3058958D01*
X2341684Y3059070D01*
X2341717Y3059184D01*
X2341746Y3059299D01*
X2341771Y3059414D01*
X2341792Y3059531D01*
X2341809Y3059648D01*
X2341823Y3059765D01*
X2341832Y3059883D01*
X2341838Y3060001D01*
X2341840Y3060119D01*
X2341841Y3060119D02*
X2341841Y3061926D01*
X2341840Y3061926D02*
X2341838Y3062044D01*
X2341832Y3062162D01*
X2341823Y3062280D01*
X2341809Y3062397D01*
X2341792Y3062514D01*
X2341771Y3062631D01*
X2341746Y3062746D01*
X2341717Y3062861D01*
X2341684Y3062975D01*
X2341648Y3063087D01*
X2341608Y3063198D01*
X2341565Y3063308D01*
X2341518Y3063417D01*
X2341468Y3063524D01*
X2341413Y3063629D01*
X2341356Y3063732D01*
X2341295Y3063833D01*
X2341231Y3063933D01*
X2341164Y3064030D01*
X2341094Y3064125D01*
X2341020Y3064217D01*
X2340944Y3064308D01*
X2340864Y3064395D01*
X2340782Y3064480D01*
X2340697Y3064562D01*
X2340610Y3064642D01*
X2340519Y3064718D01*
X2340427Y3064792D01*
X2340332Y3064862D01*
X2340235Y3064929D01*
X2340135Y3064993D01*
X2340034Y3065054D01*
X2339931Y3065111D01*
X2339826Y3065166D01*
X2339719Y3065216D01*
X2339610Y3065263D01*
X2339500Y3065306D01*
X2339389Y3065346D01*
X2339277Y3065382D01*
X2339163Y3065415D01*
X2339048Y3065444D01*
X2338933Y3065469D01*
X2338816Y3065490D01*
X2338699Y3065507D01*
X2338582Y3065521D01*
X2338464Y3065530D01*
X2338346Y3065536D01*
X2338228Y3065538D01*
X2332810Y3065538D01*
X2332810Y3072763D01*
X2341841Y3072763D01*
D10*
X2890000Y0D02*
X3039500Y0D01*
X3039500Y1150000D02*
X2925000Y1150000D01*
X3020000Y1149350D02*
X3020000Y650D01*
X3016808Y26000D01*
X3023192Y26000D01*
X3020000Y650D01*
X3018700Y26000D01*
X3021300Y26000D02*
X3020000Y650D01*
X3017400Y26000D01*
X3022600Y26000D02*
X3020000Y650D01*
X3016808Y1124000D02*
X3020000Y1149350D01*
X3016808Y1124000D02*
X3023192Y1124000D01*
X3020000Y1149350D01*
X3018700Y1124000D01*
X3021300Y1124000D02*
X3020000Y1149350D01*
X3017400Y1124000D01*
X3022600Y1124000D02*
X3020000Y1149350D01*
D11*
X2997237Y542298D02*
X3000849Y537782D01*
X2997237Y542298D02*
X3013493Y542298D01*
X3013493Y537782D02*
X3013493Y546814D01*
X3000849Y553414D02*
X2997237Y557929D01*
X3013493Y557929D01*
X3013493Y553414D02*
X3013493Y562445D01*
X3013493Y569045D02*
X3013493Y574464D01*
X3013491Y574582D01*
X3013485Y574700D01*
X3013476Y574818D01*
X3013462Y574935D01*
X3013445Y575052D01*
X3013424Y575169D01*
X3013399Y575284D01*
X3013370Y575399D01*
X3013337Y575513D01*
X3013301Y575625D01*
X3013261Y575736D01*
X3013218Y575846D01*
X3013171Y575955D01*
X3013121Y576062D01*
X3013066Y576167D01*
X3013009Y576270D01*
X3012948Y576371D01*
X3012884Y576471D01*
X3012817Y576568D01*
X3012747Y576663D01*
X3012673Y576755D01*
X3012597Y576846D01*
X3012517Y576933D01*
X3012435Y577018D01*
X3012350Y577100D01*
X3012263Y577180D01*
X3012172Y577256D01*
X3012080Y577330D01*
X3011985Y577400D01*
X3011888Y577467D01*
X3011788Y577531D01*
X3011687Y577592D01*
X3011584Y577649D01*
X3011479Y577704D01*
X3011372Y577754D01*
X3011263Y577801D01*
X3011153Y577844D01*
X3011042Y577884D01*
X3010930Y577920D01*
X3010816Y577953D01*
X3010701Y577982D01*
X3010586Y578007D01*
X3010469Y578028D01*
X3010352Y578045D01*
X3010235Y578059D01*
X3010117Y578068D01*
X3009999Y578074D01*
X3009881Y578076D01*
X3008074Y578076D01*
X3007956Y578074D01*
X3007838Y578068D01*
X3007720Y578059D01*
X3007603Y578045D01*
X3007486Y578028D01*
X3007369Y578007D01*
X3007254Y577982D01*
X3007139Y577953D01*
X3007025Y577920D01*
X3006913Y577884D01*
X3006802Y577844D01*
X3006692Y577801D01*
X3006583Y577754D01*
X3006476Y577704D01*
X3006371Y577649D01*
X3006268Y577592D01*
X3006167Y577531D01*
X3006067Y577467D01*
X3005970Y577400D01*
X3005875Y577330D01*
X3005783Y577256D01*
X3005692Y577180D01*
X3005605Y577100D01*
X3005520Y577018D01*
X3005438Y576933D01*
X3005358Y576846D01*
X3005282Y576755D01*
X3005208Y576663D01*
X3005138Y576568D01*
X3005071Y576471D01*
X3005007Y576371D01*
X3004946Y576270D01*
X3004889Y576167D01*
X3004834Y576062D01*
X3004784Y575955D01*
X3004737Y575846D01*
X3004694Y575736D01*
X3004654Y575625D01*
X3004618Y575513D01*
X3004585Y575399D01*
X3004556Y575284D01*
X3004531Y575169D01*
X3004510Y575052D01*
X3004493Y574935D01*
X3004479Y574818D01*
X3004470Y574700D01*
X3004464Y574582D01*
X3004462Y574464D01*
X3004462Y569045D01*
X2997237Y569045D01*
X2997237Y578076D01*
X3012590Y584051D02*
X3013493Y584051D01*
X3012590Y584051D02*
X3012590Y584954D01*
X3013493Y584954D01*
X3013493Y584051D01*
X3005365Y590929D02*
X3005045Y590933D01*
X3004726Y590944D01*
X3004406Y590963D01*
X3004088Y590990D01*
X3003770Y591024D01*
X3003453Y591066D01*
X3003137Y591116D01*
X3002822Y591173D01*
X3002509Y591237D01*
X3002197Y591309D01*
X3001887Y591388D01*
X3001580Y591475D01*
X3001274Y591569D01*
X3000971Y591670D01*
X3000670Y591779D01*
X3000372Y591894D01*
X3000076Y592017D01*
X2999784Y592147D01*
X2999495Y592284D01*
X2999494Y592284D02*
X2999386Y592323D01*
X2999279Y592366D01*
X2999174Y592412D01*
X2999071Y592462D01*
X2998969Y592516D01*
X2998869Y592573D01*
X2998771Y592634D01*
X2998675Y592698D01*
X2998582Y592765D01*
X2998491Y592835D01*
X2998402Y592909D01*
X2998316Y592985D01*
X2998233Y593065D01*
X2998152Y593147D01*
X2998074Y593232D01*
X2998000Y593319D01*
X2997928Y593410D01*
X2997859Y593502D01*
X2997794Y593597D01*
X2997732Y593694D01*
X2997673Y593793D01*
X2997618Y593894D01*
X2997567Y593997D01*
X2997519Y594102D01*
X2997474Y594208D01*
X2997433Y594315D01*
X2997396Y594424D01*
X2997363Y594535D01*
X2997334Y594646D01*
X2997308Y594758D01*
X2997286Y594871D01*
X2997269Y594985D01*
X2997255Y595099D01*
X2997245Y595214D01*
X2997239Y595329D01*
X2997237Y595444D01*
X2997239Y595559D01*
X2997245Y595674D01*
X2997255Y595789D01*
X2997269Y595903D01*
X2997286Y596017D01*
X2997308Y596130D01*
X2997334Y596242D01*
X2997363Y596354D01*
X2997396Y596464D01*
X2997433Y596573D01*
X2997474Y596681D01*
X2997519Y596787D01*
X2997567Y596892D01*
X2997618Y596994D01*
X2997674Y597096D01*
X2997732Y597195D01*
X2997794Y597292D01*
X2997860Y597387D01*
X2997928Y597479D01*
X2998000Y597569D01*
X2998074Y597657D01*
X2998152Y597742D01*
X2998233Y597824D01*
X2998316Y597903D01*
X2998402Y597980D01*
X2998491Y598053D01*
X2998582Y598124D01*
X2998676Y598191D01*
X2998771Y598255D01*
X2998869Y598316D01*
X2998969Y598373D01*
X2999071Y598426D01*
X2999175Y598477D01*
X2999280Y598523D01*
X2999387Y598566D01*
X2999495Y598605D01*
X2999495Y598604D02*
X2999784Y598741D01*
X3000076Y598871D01*
X3000372Y598994D01*
X3000670Y599109D01*
X3000971Y599218D01*
X3001274Y599319D01*
X3001580Y599413D01*
X3001887Y599500D01*
X3002197Y599579D01*
X3002509Y599651D01*
X3002822Y599715D01*
X3003137Y599772D01*
X3003453Y599822D01*
X3003770Y599864D01*
X3004088Y599898D01*
X3004406Y599925D01*
X3004726Y599944D01*
X3005045Y599955D01*
X3005365Y599959D01*
X3005365Y590929D02*
X3005685Y590933D01*
X3006004Y590944D01*
X3006324Y590963D01*
X3006642Y590990D01*
X3006960Y591024D01*
X3007277Y591066D01*
X3007593Y591116D01*
X3007908Y591173D01*
X3008221Y591237D01*
X3008533Y591309D01*
X3008843Y591388D01*
X3009150Y591475D01*
X3009456Y591569D01*
X3009759Y591670D01*
X3010060Y591779D01*
X3010358Y591894D01*
X3010654Y592017D01*
X3010946Y592147D01*
X3011235Y592284D01*
X3011236Y592283D02*
X3011344Y592322D01*
X3011451Y592365D01*
X3011556Y592411D01*
X3011660Y592462D01*
X3011762Y592515D01*
X3011862Y592572D01*
X3011960Y592633D01*
X3012055Y592697D01*
X3012149Y592764D01*
X3012240Y592835D01*
X3012329Y592908D01*
X3012415Y592985D01*
X3012498Y593064D01*
X3012579Y593146D01*
X3012657Y593231D01*
X3012731Y593319D01*
X3012803Y593409D01*
X3012872Y593502D01*
X3012937Y593596D01*
X3012999Y593693D01*
X3013057Y593793D01*
X3013113Y593894D01*
X3013164Y593996D01*
X3013212Y594101D01*
X3013257Y594207D01*
X3013298Y594315D01*
X3013335Y594424D01*
X3013368Y594534D01*
X3013397Y594646D01*
X3013423Y594758D01*
X3013445Y594871D01*
X3013462Y594985D01*
X3013476Y595099D01*
X3013486Y595214D01*
X3013492Y595329D01*
X3013494Y595444D01*
X3011235Y598604D02*
X3010946Y598741D01*
X3010654Y598871D01*
X3010358Y598994D01*
X3010060Y599109D01*
X3009759Y599218D01*
X3009456Y599319D01*
X3009150Y599413D01*
X3008843Y599500D01*
X3008533Y599579D01*
X3008221Y599651D01*
X3007908Y599715D01*
X3007593Y599772D01*
X3007277Y599822D01*
X3006960Y599864D01*
X3006642Y599898D01*
X3006324Y599925D01*
X3006004Y599944D01*
X3005685Y599955D01*
X3005365Y599959D01*
X3011235Y598605D02*
X3011343Y598566D01*
X3011450Y598523D01*
X3011555Y598477D01*
X3011659Y598426D01*
X3011761Y598373D01*
X3011861Y598316D01*
X3011959Y598255D01*
X3012054Y598191D01*
X3012148Y598124D01*
X3012239Y598053D01*
X3012328Y597980D01*
X3012414Y597903D01*
X3012497Y597824D01*
X3012578Y597742D01*
X3012656Y597657D01*
X3012730Y597569D01*
X3012802Y597479D01*
X3012871Y597386D01*
X3012936Y597292D01*
X3012998Y597195D01*
X3013056Y597095D01*
X3013112Y596994D01*
X3013163Y596891D01*
X3013211Y596787D01*
X3013256Y596681D01*
X3013297Y596573D01*
X3013334Y596464D01*
X3013367Y596354D01*
X3013396Y596242D01*
X3013422Y596130D01*
X3013444Y596017D01*
X3013461Y595903D01*
X3013475Y595789D01*
X3013485Y595674D01*
X3013491Y595559D01*
X3013493Y595444D01*
X3009881Y591832D02*
X3000849Y599057D01*
X3005365Y606560D02*
X3005045Y606564D01*
X3004726Y606575D01*
X3004406Y606594D01*
X3004088Y606621D01*
X3003770Y606655D01*
X3003453Y606697D01*
X3003137Y606747D01*
X3002822Y606804D01*
X3002509Y606868D01*
X3002197Y606940D01*
X3001887Y607019D01*
X3001580Y607106D01*
X3001274Y607200D01*
X3000971Y607301D01*
X3000670Y607410D01*
X3000372Y607525D01*
X3000076Y607648D01*
X2999784Y607778D01*
X2999495Y607915D01*
X2999494Y607915D02*
X2999386Y607954D01*
X2999279Y607997D01*
X2999174Y608043D01*
X2999071Y608093D01*
X2998969Y608147D01*
X2998869Y608204D01*
X2998771Y608265D01*
X2998675Y608329D01*
X2998582Y608396D01*
X2998491Y608466D01*
X2998402Y608540D01*
X2998316Y608616D01*
X2998233Y608696D01*
X2998152Y608778D01*
X2998074Y608863D01*
X2998000Y608950D01*
X2997928Y609041D01*
X2997859Y609133D01*
X2997794Y609228D01*
X2997732Y609325D01*
X2997673Y609424D01*
X2997618Y609525D01*
X2997567Y609628D01*
X2997519Y609733D01*
X2997474Y609839D01*
X2997433Y609946D01*
X2997396Y610055D01*
X2997363Y610166D01*
X2997334Y610277D01*
X2997308Y610389D01*
X2997286Y610502D01*
X2997269Y610616D01*
X2997255Y610730D01*
X2997245Y610845D01*
X2997239Y610960D01*
X2997237Y611075D01*
X2997239Y611190D01*
X2997245Y611305D01*
X2997255Y611420D01*
X2997269Y611534D01*
X2997286Y611648D01*
X2997308Y611761D01*
X2997334Y611873D01*
X2997363Y611985D01*
X2997396Y612095D01*
X2997433Y612204D01*
X2997474Y612312D01*
X2997519Y612418D01*
X2997567Y612523D01*
X2997618Y612625D01*
X2997674Y612727D01*
X2997732Y612826D01*
X2997794Y612923D01*
X2997860Y613018D01*
X2997928Y613110D01*
X2998000Y613200D01*
X2998074Y613288D01*
X2998152Y613373D01*
X2998233Y613455D01*
X2998316Y613534D01*
X2998402Y613611D01*
X2998491Y613684D01*
X2998582Y613755D01*
X2998676Y613822D01*
X2998771Y613886D01*
X2998869Y613947D01*
X2998969Y614004D01*
X2999071Y614057D01*
X2999175Y614108D01*
X2999280Y614154D01*
X2999387Y614197D01*
X2999495Y614236D01*
X2999784Y614373D01*
X3000076Y614503D01*
X3000372Y614626D01*
X3000670Y614741D01*
X3000971Y614850D01*
X3001274Y614951D01*
X3001580Y615045D01*
X3001887Y615132D01*
X3002197Y615211D01*
X3002509Y615283D01*
X3002822Y615347D01*
X3003137Y615404D01*
X3003453Y615454D01*
X3003770Y615496D01*
X3004088Y615530D01*
X3004406Y615557D01*
X3004726Y615576D01*
X3005045Y615587D01*
X3005365Y615591D01*
X3005365Y606560D02*
X3005685Y606564D01*
X3006004Y606575D01*
X3006324Y606594D01*
X3006642Y606621D01*
X3006960Y606655D01*
X3007277Y606697D01*
X3007593Y606747D01*
X3007908Y606804D01*
X3008221Y606868D01*
X3008533Y606940D01*
X3008843Y607019D01*
X3009150Y607106D01*
X3009456Y607200D01*
X3009759Y607301D01*
X3010060Y607410D01*
X3010358Y607525D01*
X3010654Y607648D01*
X3010946Y607778D01*
X3011235Y607915D01*
X3011236Y607914D02*
X3011344Y607953D01*
X3011451Y607996D01*
X3011556Y608042D01*
X3011660Y608093D01*
X3011762Y608146D01*
X3011862Y608203D01*
X3011960Y608264D01*
X3012055Y608328D01*
X3012149Y608395D01*
X3012240Y608466D01*
X3012329Y608539D01*
X3012415Y608616D01*
X3012498Y608695D01*
X3012579Y608777D01*
X3012657Y608862D01*
X3012731Y608950D01*
X3012803Y609040D01*
X3012872Y609133D01*
X3012937Y609227D01*
X3012999Y609324D01*
X3013057Y609424D01*
X3013113Y609525D01*
X3013164Y609627D01*
X3013212Y609732D01*
X3013257Y609838D01*
X3013298Y609946D01*
X3013335Y610055D01*
X3013368Y610165D01*
X3013397Y610277D01*
X3013423Y610389D01*
X3013445Y610502D01*
X3013462Y610616D01*
X3013476Y610730D01*
X3013486Y610845D01*
X3013492Y610960D01*
X3013494Y611075D01*
X3011235Y614235D02*
X3010946Y614372D01*
X3010654Y614502D01*
X3010358Y614625D01*
X3010060Y614740D01*
X3009759Y614849D01*
X3009456Y614950D01*
X3009150Y615044D01*
X3008843Y615131D01*
X3008533Y615210D01*
X3008221Y615282D01*
X3007908Y615346D01*
X3007593Y615403D01*
X3007277Y615453D01*
X3006960Y615495D01*
X3006642Y615529D01*
X3006324Y615556D01*
X3006004Y615575D01*
X3005685Y615586D01*
X3005365Y615590D01*
X3011235Y614236D02*
X3011343Y614197D01*
X3011450Y614154D01*
X3011555Y614108D01*
X3011659Y614057D01*
X3011761Y614004D01*
X3011861Y613947D01*
X3011959Y613886D01*
X3012054Y613822D01*
X3012148Y613755D01*
X3012239Y613684D01*
X3012328Y613611D01*
X3012414Y613534D01*
X3012497Y613455D01*
X3012578Y613373D01*
X3012656Y613288D01*
X3012730Y613200D01*
X3012802Y613110D01*
X3012871Y613017D01*
X3012936Y612923D01*
X3012998Y612826D01*
X3013056Y612726D01*
X3013112Y612625D01*
X3013163Y612522D01*
X3013211Y612418D01*
X3013256Y612312D01*
X3013297Y612204D01*
X3013334Y612095D01*
X3013367Y611985D01*
X3013396Y611873D01*
X3013422Y611761D01*
X3013444Y611648D01*
X3013461Y611534D01*
X3013475Y611420D01*
X3013485Y611305D01*
X3013491Y611190D01*
X3013493Y611075D01*
X3009881Y607463D02*
X3000849Y614688D01*
D10*
X3059500Y2900000D02*
X2900000Y2900000D01*
X2980000Y1750000D02*
X3059500Y1750000D01*
X3040000Y1750650D02*
X3040000Y2899350D01*
X3036808Y2874000D01*
X3043192Y2874000D01*
X3040000Y2899350D01*
X3038700Y2874000D01*
X3041300Y2874000D02*
X3040000Y2899350D01*
X3037400Y2874000D01*
X3042600Y2874000D02*
X3040000Y2899350D01*
X3036808Y1776000D02*
X3040000Y1750650D01*
X3036808Y1776000D02*
X3043192Y1776000D01*
X3040000Y1750650D01*
X3038700Y1776000D01*
X3041300Y1776000D02*
X3040000Y1750650D01*
X3037400Y1776000D01*
X3042600Y1776000D02*
X3040000Y1750650D01*
D11*
X3020849Y2287782D02*
X3017237Y2292298D01*
X3033493Y2292298D01*
X3033493Y2287782D02*
X3033493Y2296814D01*
X3020849Y2303414D02*
X3017237Y2307929D01*
X3033493Y2307929D01*
X3033493Y2303414D02*
X3033493Y2312445D01*
X3033493Y2319045D02*
X3033493Y2324464D01*
X3033491Y2324582D01*
X3033485Y2324700D01*
X3033476Y2324818D01*
X3033462Y2324935D01*
X3033445Y2325052D01*
X3033424Y2325169D01*
X3033399Y2325284D01*
X3033370Y2325399D01*
X3033337Y2325513D01*
X3033301Y2325625D01*
X3033261Y2325736D01*
X3033218Y2325846D01*
X3033171Y2325955D01*
X3033121Y2326062D01*
X3033066Y2326167D01*
X3033009Y2326270D01*
X3032948Y2326371D01*
X3032884Y2326471D01*
X3032817Y2326568D01*
X3032747Y2326663D01*
X3032673Y2326755D01*
X3032597Y2326846D01*
X3032517Y2326933D01*
X3032435Y2327018D01*
X3032350Y2327100D01*
X3032263Y2327180D01*
X3032172Y2327256D01*
X3032080Y2327330D01*
X3031985Y2327400D01*
X3031888Y2327467D01*
X3031788Y2327531D01*
X3031687Y2327592D01*
X3031584Y2327649D01*
X3031479Y2327704D01*
X3031372Y2327754D01*
X3031263Y2327801D01*
X3031153Y2327844D01*
X3031042Y2327884D01*
X3030930Y2327920D01*
X3030816Y2327953D01*
X3030701Y2327982D01*
X3030586Y2328007D01*
X3030469Y2328028D01*
X3030352Y2328045D01*
X3030235Y2328059D01*
X3030117Y2328068D01*
X3029999Y2328074D01*
X3029881Y2328076D01*
X3028074Y2328076D01*
X3027956Y2328074D01*
X3027838Y2328068D01*
X3027720Y2328059D01*
X3027603Y2328045D01*
X3027486Y2328028D01*
X3027369Y2328007D01*
X3027254Y2327982D01*
X3027139Y2327953D01*
X3027025Y2327920D01*
X3026913Y2327884D01*
X3026802Y2327844D01*
X3026692Y2327801D01*
X3026583Y2327754D01*
X3026476Y2327704D01*
X3026371Y2327649D01*
X3026268Y2327592D01*
X3026167Y2327531D01*
X3026067Y2327467D01*
X3025970Y2327400D01*
X3025875Y2327330D01*
X3025783Y2327256D01*
X3025692Y2327180D01*
X3025605Y2327100D01*
X3025520Y2327018D01*
X3025438Y2326933D01*
X3025358Y2326846D01*
X3025282Y2326755D01*
X3025208Y2326663D01*
X3025138Y2326568D01*
X3025071Y2326471D01*
X3025007Y2326371D01*
X3024946Y2326270D01*
X3024889Y2326167D01*
X3024834Y2326062D01*
X3024784Y2325955D01*
X3024737Y2325846D01*
X3024694Y2325736D01*
X3024654Y2325625D01*
X3024618Y2325513D01*
X3024585Y2325399D01*
X3024556Y2325284D01*
X3024531Y2325169D01*
X3024510Y2325052D01*
X3024493Y2324935D01*
X3024479Y2324818D01*
X3024470Y2324700D01*
X3024464Y2324582D01*
X3024462Y2324464D01*
X3024462Y2319045D01*
X3017237Y2319045D01*
X3017237Y2328076D01*
X3032590Y2334051D02*
X3033493Y2334051D01*
X3032590Y2334051D02*
X3032590Y2334954D01*
X3033493Y2334954D01*
X3033493Y2334051D01*
X3025365Y2340929D02*
X3025045Y2340933D01*
X3024726Y2340944D01*
X3024406Y2340963D01*
X3024088Y2340990D01*
X3023770Y2341024D01*
X3023453Y2341066D01*
X3023137Y2341116D01*
X3022822Y2341173D01*
X3022509Y2341237D01*
X3022197Y2341309D01*
X3021887Y2341388D01*
X3021580Y2341475D01*
X3021274Y2341569D01*
X3020971Y2341670D01*
X3020670Y2341779D01*
X3020372Y2341894D01*
X3020076Y2342017D01*
X3019784Y2342147D01*
X3019495Y2342284D01*
X3019494Y2342284D02*
X3019386Y2342323D01*
X3019279Y2342366D01*
X3019174Y2342412D01*
X3019071Y2342462D01*
X3018969Y2342516D01*
X3018869Y2342573D01*
X3018771Y2342634D01*
X3018675Y2342698D01*
X3018582Y2342765D01*
X3018491Y2342835D01*
X3018402Y2342909D01*
X3018316Y2342985D01*
X3018233Y2343065D01*
X3018152Y2343147D01*
X3018074Y2343232D01*
X3018000Y2343319D01*
X3017928Y2343410D01*
X3017859Y2343502D01*
X3017794Y2343597D01*
X3017732Y2343694D01*
X3017673Y2343793D01*
X3017618Y2343894D01*
X3017567Y2343997D01*
X3017519Y2344102D01*
X3017474Y2344208D01*
X3017433Y2344315D01*
X3017396Y2344424D01*
X3017363Y2344535D01*
X3017334Y2344646D01*
X3017308Y2344758D01*
X3017286Y2344871D01*
X3017269Y2344985D01*
X3017255Y2345099D01*
X3017245Y2345214D01*
X3017239Y2345329D01*
X3017237Y2345444D01*
X3017239Y2345559D01*
X3017245Y2345674D01*
X3017255Y2345789D01*
X3017269Y2345903D01*
X3017286Y2346017D01*
X3017308Y2346130D01*
X3017334Y2346242D01*
X3017363Y2346354D01*
X3017396Y2346464D01*
X3017433Y2346573D01*
X3017474Y2346681D01*
X3017519Y2346787D01*
X3017567Y2346892D01*
X3017618Y2346994D01*
X3017674Y2347096D01*
X3017732Y2347195D01*
X3017794Y2347292D01*
X3017860Y2347387D01*
X3017928Y2347479D01*
X3018000Y2347569D01*
X3018074Y2347657D01*
X3018152Y2347742D01*
X3018233Y2347824D01*
X3018316Y2347903D01*
X3018402Y2347980D01*
X3018491Y2348053D01*
X3018582Y2348124D01*
X3018676Y2348191D01*
X3018771Y2348255D01*
X3018869Y2348316D01*
X3018969Y2348373D01*
X3019071Y2348426D01*
X3019175Y2348477D01*
X3019280Y2348523D01*
X3019387Y2348566D01*
X3019495Y2348605D01*
X3019495Y2348604D02*
X3019784Y2348741D01*
X3020076Y2348871D01*
X3020372Y2348994D01*
X3020670Y2349109D01*
X3020971Y2349218D01*
X3021274Y2349319D01*
X3021580Y2349413D01*
X3021887Y2349500D01*
X3022197Y2349579D01*
X3022509Y2349651D01*
X3022822Y2349715D01*
X3023137Y2349772D01*
X3023453Y2349822D01*
X3023770Y2349864D01*
X3024088Y2349898D01*
X3024406Y2349925D01*
X3024726Y2349944D01*
X3025045Y2349955D01*
X3025365Y2349959D01*
X3025365Y2340929D02*
X3025685Y2340933D01*
X3026004Y2340944D01*
X3026324Y2340963D01*
X3026642Y2340990D01*
X3026960Y2341024D01*
X3027277Y2341066D01*
X3027593Y2341116D01*
X3027908Y2341173D01*
X3028221Y2341237D01*
X3028533Y2341309D01*
X3028843Y2341388D01*
X3029150Y2341475D01*
X3029456Y2341569D01*
X3029759Y2341670D01*
X3030060Y2341779D01*
X3030358Y2341894D01*
X3030654Y2342017D01*
X3030946Y2342147D01*
X3031235Y2342284D01*
X3031236Y2342283D02*
X3031344Y2342322D01*
X3031451Y2342365D01*
X3031556Y2342411D01*
X3031660Y2342462D01*
X3031762Y2342515D01*
X3031862Y2342572D01*
X3031960Y2342633D01*
X3032055Y2342697D01*
X3032149Y2342764D01*
X3032240Y2342835D01*
X3032329Y2342908D01*
X3032415Y2342985D01*
X3032498Y2343064D01*
X3032579Y2343146D01*
X3032657Y2343231D01*
X3032731Y2343319D01*
X3032803Y2343409D01*
X3032872Y2343502D01*
X3032937Y2343596D01*
X3032999Y2343693D01*
X3033057Y2343793D01*
X3033113Y2343894D01*
X3033164Y2343996D01*
X3033212Y2344101D01*
X3033257Y2344207D01*
X3033298Y2344315D01*
X3033335Y2344424D01*
X3033368Y2344534D01*
X3033397Y2344646D01*
X3033423Y2344758D01*
X3033445Y2344871D01*
X3033462Y2344985D01*
X3033476Y2345099D01*
X3033486Y2345214D01*
X3033492Y2345329D01*
X3033494Y2345444D01*
X3031235Y2348604D02*
X3030946Y2348741D01*
X3030654Y2348871D01*
X3030358Y2348994D01*
X3030060Y2349109D01*
X3029759Y2349218D01*
X3029456Y2349319D01*
X3029150Y2349413D01*
X3028843Y2349500D01*
X3028533Y2349579D01*
X3028221Y2349651D01*
X3027908Y2349715D01*
X3027593Y2349772D01*
X3027277Y2349822D01*
X3026960Y2349864D01*
X3026642Y2349898D01*
X3026324Y2349925D01*
X3026004Y2349944D01*
X3025685Y2349955D01*
X3025365Y2349959D01*
X3031235Y2348605D02*
X3031343Y2348566D01*
X3031450Y2348523D01*
X3031555Y2348477D01*
X3031659Y2348426D01*
X3031761Y2348373D01*
X3031861Y2348316D01*
X3031959Y2348255D01*
X3032054Y2348191D01*
X3032148Y2348124D01*
X3032239Y2348053D01*
X3032328Y2347980D01*
X3032414Y2347903D01*
X3032497Y2347824D01*
X3032578Y2347742D01*
X3032656Y2347657D01*
X3032730Y2347569D01*
X3032802Y2347479D01*
X3032871Y2347386D01*
X3032936Y2347292D01*
X3032998Y2347195D01*
X3033056Y2347095D01*
X3033112Y2346994D01*
X3033163Y2346891D01*
X3033211Y2346787D01*
X3033256Y2346681D01*
X3033297Y2346573D01*
X3033334Y2346464D01*
X3033367Y2346354D01*
X3033396Y2346242D01*
X3033422Y2346130D01*
X3033444Y2346017D01*
X3033461Y2345903D01*
X3033475Y2345789D01*
X3033485Y2345674D01*
X3033491Y2345559D01*
X3033493Y2345444D01*
X3029881Y2341832D02*
X3020849Y2349057D01*
X3025365Y2356560D02*
X3025045Y2356564D01*
X3024726Y2356575D01*
X3024406Y2356594D01*
X3024088Y2356621D01*
X3023770Y2356655D01*
X3023453Y2356697D01*
X3023137Y2356747D01*
X3022822Y2356804D01*
X3022509Y2356868D01*
X3022197Y2356940D01*
X3021887Y2357019D01*
X3021580Y2357106D01*
X3021274Y2357200D01*
X3020971Y2357301D01*
X3020670Y2357410D01*
X3020372Y2357525D01*
X3020076Y2357648D01*
X3019784Y2357778D01*
X3019495Y2357915D01*
X3019494Y2357915D02*
X3019386Y2357954D01*
X3019279Y2357997D01*
X3019174Y2358043D01*
X3019071Y2358093D01*
X3018969Y2358147D01*
X3018869Y2358204D01*
X3018771Y2358265D01*
X3018675Y2358329D01*
X3018582Y2358396D01*
X3018491Y2358466D01*
X3018402Y2358540D01*
X3018316Y2358616D01*
X3018233Y2358696D01*
X3018152Y2358778D01*
X3018074Y2358863D01*
X3018000Y2358950D01*
X3017928Y2359041D01*
X3017859Y2359133D01*
X3017794Y2359228D01*
X3017732Y2359325D01*
X3017673Y2359424D01*
X3017618Y2359525D01*
X3017567Y2359628D01*
X3017519Y2359733D01*
X3017474Y2359839D01*
X3017433Y2359946D01*
X3017396Y2360055D01*
X3017363Y2360166D01*
X3017334Y2360277D01*
X3017308Y2360389D01*
X3017286Y2360502D01*
X3017269Y2360616D01*
X3017255Y2360730D01*
X3017245Y2360845D01*
X3017239Y2360960D01*
X3017237Y2361075D01*
X3017239Y2361190D01*
X3017245Y2361305D01*
X3017255Y2361420D01*
X3017269Y2361534D01*
X3017286Y2361648D01*
X3017308Y2361761D01*
X3017334Y2361873D01*
X3017363Y2361985D01*
X3017396Y2362095D01*
X3017433Y2362204D01*
X3017474Y2362312D01*
X3017519Y2362418D01*
X3017567Y2362523D01*
X3017618Y2362625D01*
X3017674Y2362727D01*
X3017732Y2362826D01*
X3017794Y2362923D01*
X3017860Y2363018D01*
X3017928Y2363110D01*
X3018000Y2363200D01*
X3018074Y2363288D01*
X3018152Y2363373D01*
X3018233Y2363455D01*
X3018316Y2363534D01*
X3018402Y2363611D01*
X3018491Y2363684D01*
X3018582Y2363755D01*
X3018676Y2363822D01*
X3018771Y2363886D01*
X3018869Y2363947D01*
X3018969Y2364004D01*
X3019071Y2364057D01*
X3019175Y2364108D01*
X3019280Y2364154D01*
X3019387Y2364197D01*
X3019495Y2364236D01*
X3019784Y2364373D01*
X3020076Y2364503D01*
X3020372Y2364626D01*
X3020670Y2364741D01*
X3020971Y2364850D01*
X3021274Y2364951D01*
X3021580Y2365045D01*
X3021887Y2365132D01*
X3022197Y2365211D01*
X3022509Y2365283D01*
X3022822Y2365347D01*
X3023137Y2365404D01*
X3023453Y2365454D01*
X3023770Y2365496D01*
X3024088Y2365530D01*
X3024406Y2365557D01*
X3024726Y2365576D01*
X3025045Y2365587D01*
X3025365Y2365591D01*
X3025365Y2356560D02*
X3025685Y2356564D01*
X3026004Y2356575D01*
X3026324Y2356594D01*
X3026642Y2356621D01*
X3026960Y2356655D01*
X3027277Y2356697D01*
X3027593Y2356747D01*
X3027908Y2356804D01*
X3028221Y2356868D01*
X3028533Y2356940D01*
X3028843Y2357019D01*
X3029150Y2357106D01*
X3029456Y2357200D01*
X3029759Y2357301D01*
X3030060Y2357410D01*
X3030358Y2357525D01*
X3030654Y2357648D01*
X3030946Y2357778D01*
X3031235Y2357915D01*
X3031236Y2357914D02*
X3031344Y2357953D01*
X3031451Y2357996D01*
X3031556Y2358042D01*
X3031660Y2358093D01*
X3031762Y2358146D01*
X3031862Y2358203D01*
X3031960Y2358264D01*
X3032055Y2358328D01*
X3032149Y2358395D01*
X3032240Y2358466D01*
X3032329Y2358539D01*
X3032415Y2358616D01*
X3032498Y2358695D01*
X3032579Y2358777D01*
X3032657Y2358862D01*
X3032731Y2358950D01*
X3032803Y2359040D01*
X3032872Y2359133D01*
X3032937Y2359227D01*
X3032999Y2359324D01*
X3033057Y2359424D01*
X3033113Y2359525D01*
X3033164Y2359627D01*
X3033212Y2359732D01*
X3033257Y2359838D01*
X3033298Y2359946D01*
X3033335Y2360055D01*
X3033368Y2360165D01*
X3033397Y2360277D01*
X3033423Y2360389D01*
X3033445Y2360502D01*
X3033462Y2360616D01*
X3033476Y2360730D01*
X3033486Y2360845D01*
X3033492Y2360960D01*
X3033494Y2361075D01*
X3031235Y2364235D02*
X3030946Y2364372D01*
X3030654Y2364502D01*
X3030358Y2364625D01*
X3030060Y2364740D01*
X3029759Y2364849D01*
X3029456Y2364950D01*
X3029150Y2365044D01*
X3028843Y2365131D01*
X3028533Y2365210D01*
X3028221Y2365282D01*
X3027908Y2365346D01*
X3027593Y2365403D01*
X3027277Y2365453D01*
X3026960Y2365495D01*
X3026642Y2365529D01*
X3026324Y2365556D01*
X3026004Y2365575D01*
X3025685Y2365586D01*
X3025365Y2365590D01*
X3031235Y2364236D02*
X3031343Y2364197D01*
X3031450Y2364154D01*
X3031555Y2364108D01*
X3031659Y2364057D01*
X3031761Y2364004D01*
X3031861Y2363947D01*
X3031959Y2363886D01*
X3032054Y2363822D01*
X3032148Y2363755D01*
X3032239Y2363684D01*
X3032328Y2363611D01*
X3032414Y2363534D01*
X3032497Y2363455D01*
X3032578Y2363373D01*
X3032656Y2363288D01*
X3032730Y2363200D01*
X3032802Y2363110D01*
X3032871Y2363017D01*
X3032936Y2362923D01*
X3032998Y2362826D01*
X3033056Y2362726D01*
X3033112Y2362625D01*
X3033163Y2362522D01*
X3033211Y2362418D01*
X3033256Y2362312D01*
X3033297Y2362204D01*
X3033334Y2362095D01*
X3033367Y2361985D01*
X3033396Y2361873D01*
X3033422Y2361761D01*
X3033444Y2361648D01*
X3033461Y2361534D01*
X3033475Y2361420D01*
X3033485Y2361305D01*
X3033491Y2361190D01*
X3033493Y2361075D01*
X3029881Y2357463D02*
X3020849Y2364688D01*
D10*
X0Y3294500D02*
X0Y0D01*
X60000Y2900000D02*
X60000Y3294500D01*
X-650Y3275000D02*
X-52000Y3275000D01*
X60650Y3275000D02*
X135539Y3275000D01*
X-650Y3275000D02*
X-26000Y3278192D01*
X-26000Y3271808D01*
X-650Y3275000D01*
X-26000Y3276300D01*
X-26000Y3273700D02*
X-650Y3275000D01*
X-26000Y3277600D01*
X-26000Y3272400D02*
X-650Y3275000D01*
X60650Y3275000D02*
X86000Y3278192D01*
X86000Y3271808D01*
X60650Y3275000D01*
X86000Y3276300D01*
X86000Y3273700D02*
X60650Y3275000D01*
X86000Y3277600D01*
X86000Y3272400D02*
X60650Y3275000D01*
D11*
X86762Y3290538D02*
X92181Y3290538D01*
X92299Y3290536D01*
X92417Y3290530D01*
X92535Y3290521D01*
X92652Y3290507D01*
X92769Y3290490D01*
X92886Y3290469D01*
X93001Y3290444D01*
X93116Y3290415D01*
X93230Y3290382D01*
X93342Y3290346D01*
X93453Y3290306D01*
X93563Y3290263D01*
X93672Y3290216D01*
X93779Y3290166D01*
X93884Y3290111D01*
X93987Y3290054D01*
X94088Y3289993D01*
X94188Y3289929D01*
X94285Y3289862D01*
X94380Y3289792D01*
X94472Y3289718D01*
X94563Y3289642D01*
X94650Y3289562D01*
X94735Y3289480D01*
X94817Y3289395D01*
X94897Y3289308D01*
X94973Y3289217D01*
X95047Y3289125D01*
X95117Y3289030D01*
X95184Y3288933D01*
X95248Y3288833D01*
X95309Y3288732D01*
X95366Y3288629D01*
X95421Y3288524D01*
X95471Y3288417D01*
X95518Y3288308D01*
X95561Y3288198D01*
X95601Y3288087D01*
X95637Y3287975D01*
X95670Y3287861D01*
X95699Y3287746D01*
X95724Y3287631D01*
X95745Y3287514D01*
X95762Y3287397D01*
X95776Y3287280D01*
X95785Y3287162D01*
X95791Y3287044D01*
X95793Y3286926D01*
X95793Y3286023D01*
X95794Y3286023D02*
X95792Y3285890D01*
X95786Y3285758D01*
X95776Y3285626D01*
X95763Y3285494D01*
X95745Y3285362D01*
X95724Y3285232D01*
X95699Y3285101D01*
X95670Y3284972D01*
X95637Y3284844D01*
X95601Y3284716D01*
X95561Y3284590D01*
X95517Y3284465D01*
X95469Y3284341D01*
X95418Y3284219D01*
X95363Y3284098D01*
X95305Y3283979D01*
X95243Y3283861D01*
X95178Y3283746D01*
X95109Y3283632D01*
X95038Y3283521D01*
X94962Y3283412D01*
X94884Y3283305D01*
X94803Y3283200D01*
X94718Y3283098D01*
X94631Y3282998D01*
X94541Y3282901D01*
X94448Y3282806D01*
X94352Y3282715D01*
X94254Y3282626D01*
X94153Y3282540D01*
X94049Y3282457D01*
X93943Y3282377D01*
X93835Y3282301D01*
X93725Y3282227D01*
X93612Y3282157D01*
X93498Y3282090D01*
X93381Y3282027D01*
X93263Y3281967D01*
X93143Y3281910D01*
X93021Y3281857D01*
X92898Y3281808D01*
X92774Y3281762D01*
X92648Y3281720D01*
X92521Y3281682D01*
X92393Y3281647D01*
X92264Y3281616D01*
X92135Y3281589D01*
X92004Y3281566D01*
X91873Y3281546D01*
X91741Y3281531D01*
X91609Y3281519D01*
X91477Y3281511D01*
X91344Y3281507D01*
X91212Y3281507D01*
X91079Y3281511D01*
X90947Y3281519D01*
X90815Y3281531D01*
X90683Y3281546D01*
X90552Y3281566D01*
X90421Y3281589D01*
X90292Y3281616D01*
X90163Y3281647D01*
X90035Y3281682D01*
X89908Y3281720D01*
X89782Y3281762D01*
X89658Y3281808D01*
X89535Y3281857D01*
X89413Y3281910D01*
X89293Y3281967D01*
X89175Y3282027D01*
X89058Y3282090D01*
X88944Y3282157D01*
X88831Y3282227D01*
X88721Y3282301D01*
X88613Y3282377D01*
X88507Y3282457D01*
X88403Y3282540D01*
X88302Y3282626D01*
X88204Y3282715D01*
X88108Y3282806D01*
X88015Y3282901D01*
X87925Y3282998D01*
X87838Y3283098D01*
X87753Y3283200D01*
X87672Y3283305D01*
X87594Y3283412D01*
X87518Y3283521D01*
X87447Y3283632D01*
X87378Y3283746D01*
X87313Y3283861D01*
X87251Y3283979D01*
X87193Y3284098D01*
X87138Y3284219D01*
X87087Y3284341D01*
X87039Y3284465D01*
X86995Y3284590D01*
X86955Y3284716D01*
X86919Y3284844D01*
X86886Y3284972D01*
X86857Y3285101D01*
X86832Y3285232D01*
X86811Y3285362D01*
X86793Y3285494D01*
X86780Y3285626D01*
X86770Y3285758D01*
X86764Y3285890D01*
X86762Y3286023D01*
X86762Y3290538D01*
X86764Y3290715D01*
X86771Y3290893D01*
X86782Y3291070D01*
X86797Y3291246D01*
X86816Y3291422D01*
X86840Y3291598D01*
X86868Y3291773D01*
X86901Y3291948D01*
X86938Y3292121D01*
X86979Y3292294D01*
X87024Y3292465D01*
X87073Y3292635D01*
X87127Y3292804D01*
X87184Y3292972D01*
X87246Y3293138D01*
X87312Y3293303D01*
X87382Y3293466D01*
X87456Y3293627D01*
X87533Y3293786D01*
X87615Y3293944D01*
X87701Y3294099D01*
X87790Y3294252D01*
X87883Y3294403D01*
X87980Y3294552D01*
X88080Y3294698D01*
X88184Y3294842D01*
X88291Y3294983D01*
X88402Y3295121D01*
X88516Y3295257D01*
X88634Y3295390D01*
X88754Y3295520D01*
X88878Y3295647D01*
X89005Y3295771D01*
X89135Y3295891D01*
X89268Y3296009D01*
X89403Y3296123D01*
X89542Y3296234D01*
X89683Y3296341D01*
X89827Y3296445D01*
X89973Y3296545D01*
X90122Y3296642D01*
X90273Y3296735D01*
X90426Y3296824D01*
X90581Y3296910D01*
X90739Y3296992D01*
X90898Y3297069D01*
X91059Y3297143D01*
X91222Y3297213D01*
X91387Y3297279D01*
X91553Y3297341D01*
X91721Y3297398D01*
X91890Y3297452D01*
X92060Y3297501D01*
X92231Y3297546D01*
X92404Y3297587D01*
X92577Y3297624D01*
X92752Y3297657D01*
X92927Y3297685D01*
X93103Y3297709D01*
X93279Y3297728D01*
X93455Y3297743D01*
X93632Y3297754D01*
X93810Y3297761D01*
X93987Y3297763D01*
X101768Y3282410D02*
X101768Y3281507D01*
X101768Y3282410D02*
X102671Y3282410D01*
X102671Y3281507D01*
X101768Y3281507D01*
X108646Y3289635D02*
X108650Y3289955D01*
X108661Y3290274D01*
X108680Y3290594D01*
X108707Y3290912D01*
X108741Y3291230D01*
X108783Y3291547D01*
X108833Y3291863D01*
X108890Y3292178D01*
X108954Y3292491D01*
X109026Y3292803D01*
X109105Y3293113D01*
X109192Y3293420D01*
X109286Y3293726D01*
X109387Y3294029D01*
X109496Y3294330D01*
X109611Y3294628D01*
X109734Y3294924D01*
X109864Y3295216D01*
X110001Y3295505D01*
X110000Y3295506D02*
X110039Y3295614D01*
X110082Y3295721D01*
X110128Y3295826D01*
X110179Y3295930D01*
X110232Y3296032D01*
X110289Y3296132D01*
X110350Y3296230D01*
X110414Y3296325D01*
X110481Y3296419D01*
X110552Y3296510D01*
X110625Y3296599D01*
X110702Y3296685D01*
X110781Y3296768D01*
X110863Y3296849D01*
X110948Y3296927D01*
X111036Y3297001D01*
X111126Y3297073D01*
X111218Y3297141D01*
X111313Y3297207D01*
X111410Y3297269D01*
X111509Y3297327D01*
X111611Y3297383D01*
X111713Y3297434D01*
X111818Y3297482D01*
X111924Y3297527D01*
X112032Y3297568D01*
X112141Y3297605D01*
X112251Y3297638D01*
X112363Y3297667D01*
X112475Y3297693D01*
X112588Y3297715D01*
X112702Y3297732D01*
X112816Y3297746D01*
X112931Y3297756D01*
X113046Y3297762D01*
X113161Y3297764D01*
X113161Y3297763D02*
X113276Y3297761D01*
X113391Y3297755D01*
X113506Y3297745D01*
X113620Y3297731D01*
X113734Y3297714D01*
X113847Y3297692D01*
X113959Y3297666D01*
X114071Y3297637D01*
X114181Y3297604D01*
X114290Y3297567D01*
X114398Y3297526D01*
X114504Y3297481D01*
X114609Y3297433D01*
X114711Y3297382D01*
X114812Y3297326D01*
X114912Y3297268D01*
X115009Y3297206D01*
X115103Y3297141D01*
X115196Y3297072D01*
X115286Y3297000D01*
X115374Y3296926D01*
X115459Y3296848D01*
X115541Y3296767D01*
X115620Y3296684D01*
X115697Y3296598D01*
X115770Y3296509D01*
X115841Y3296418D01*
X115908Y3296324D01*
X115972Y3296229D01*
X116033Y3296131D01*
X116090Y3296031D01*
X116143Y3295929D01*
X116194Y3295825D01*
X116240Y3295720D01*
X116283Y3295613D01*
X116322Y3295505D01*
X116459Y3295216D01*
X116589Y3294924D01*
X116712Y3294628D01*
X116827Y3294330D01*
X116936Y3294029D01*
X117037Y3293726D01*
X117131Y3293420D01*
X117218Y3293113D01*
X117297Y3292803D01*
X117369Y3292491D01*
X117433Y3292178D01*
X117490Y3291863D01*
X117540Y3291547D01*
X117582Y3291230D01*
X117616Y3290912D01*
X117643Y3290594D01*
X117662Y3290274D01*
X117673Y3289955D01*
X117677Y3289635D01*
X108646Y3289635D02*
X108650Y3289315D01*
X108661Y3288996D01*
X108680Y3288676D01*
X108707Y3288358D01*
X108741Y3288040D01*
X108783Y3287723D01*
X108833Y3287407D01*
X108890Y3287092D01*
X108954Y3286779D01*
X109026Y3286467D01*
X109105Y3286157D01*
X109192Y3285850D01*
X109286Y3285544D01*
X109387Y3285241D01*
X109496Y3284940D01*
X109611Y3284642D01*
X109734Y3284346D01*
X109864Y3284054D01*
X110001Y3283765D01*
X110000Y3283765D02*
X110039Y3283657D01*
X110082Y3283550D01*
X110128Y3283445D01*
X110179Y3283341D01*
X110232Y3283239D01*
X110289Y3283139D01*
X110350Y3283041D01*
X110414Y3282946D01*
X110481Y3282852D01*
X110552Y3282761D01*
X110625Y3282672D01*
X110702Y3282586D01*
X110781Y3282503D01*
X110863Y3282422D01*
X110948Y3282344D01*
X111036Y3282270D01*
X111126Y3282198D01*
X111219Y3282129D01*
X111313Y3282064D01*
X111410Y3282002D01*
X111510Y3281944D01*
X111611Y3281888D01*
X111713Y3281837D01*
X111818Y3281789D01*
X111924Y3281744D01*
X112032Y3281703D01*
X112141Y3281666D01*
X112251Y3281633D01*
X112363Y3281604D01*
X112475Y3281578D01*
X112588Y3281556D01*
X112702Y3281539D01*
X112816Y3281525D01*
X112931Y3281515D01*
X113046Y3281509D01*
X113161Y3281507D01*
X116321Y3283765D02*
X116458Y3284054D01*
X116588Y3284346D01*
X116711Y3284642D01*
X116826Y3284940D01*
X116935Y3285241D01*
X117036Y3285544D01*
X117130Y3285850D01*
X117217Y3286157D01*
X117296Y3286467D01*
X117368Y3286779D01*
X117432Y3287092D01*
X117489Y3287407D01*
X117539Y3287723D01*
X117581Y3288040D01*
X117615Y3288358D01*
X117642Y3288676D01*
X117661Y3288996D01*
X117672Y3289315D01*
X117676Y3289635D01*
X116322Y3283765D02*
X116283Y3283657D01*
X116240Y3283550D01*
X116194Y3283445D01*
X116143Y3283341D01*
X116090Y3283239D01*
X116033Y3283139D01*
X115972Y3283041D01*
X115908Y3282946D01*
X115841Y3282852D01*
X115770Y3282761D01*
X115697Y3282672D01*
X115620Y3282586D01*
X115541Y3282503D01*
X115459Y3282422D01*
X115374Y3282344D01*
X115286Y3282270D01*
X115196Y3282198D01*
X115103Y3282129D01*
X115009Y3282064D01*
X114912Y3282002D01*
X114812Y3281944D01*
X114711Y3281888D01*
X114608Y3281837D01*
X114504Y3281789D01*
X114398Y3281744D01*
X114290Y3281703D01*
X114181Y3281666D01*
X114071Y3281633D01*
X113959Y3281604D01*
X113847Y3281578D01*
X113734Y3281556D01*
X113620Y3281539D01*
X113506Y3281525D01*
X113391Y3281515D01*
X113276Y3281509D01*
X113161Y3281507D01*
X109549Y3285119D02*
X116774Y3294151D01*
X124277Y3289635D02*
X124281Y3289955D01*
X124292Y3290274D01*
X124311Y3290594D01*
X124338Y3290912D01*
X124372Y3291230D01*
X124414Y3291547D01*
X124464Y3291863D01*
X124521Y3292178D01*
X124585Y3292491D01*
X124657Y3292803D01*
X124736Y3293113D01*
X124823Y3293420D01*
X124917Y3293726D01*
X125018Y3294029D01*
X125127Y3294330D01*
X125242Y3294628D01*
X125365Y3294924D01*
X125495Y3295216D01*
X125632Y3295505D01*
X125631Y3295506D02*
X125670Y3295614D01*
X125713Y3295721D01*
X125759Y3295826D01*
X125810Y3295930D01*
X125863Y3296032D01*
X125920Y3296132D01*
X125981Y3296230D01*
X126045Y3296325D01*
X126112Y3296419D01*
X126183Y3296510D01*
X126256Y3296599D01*
X126333Y3296685D01*
X126412Y3296768D01*
X126494Y3296849D01*
X126579Y3296927D01*
X126667Y3297001D01*
X126757Y3297073D01*
X126849Y3297141D01*
X126944Y3297207D01*
X127041Y3297269D01*
X127140Y3297327D01*
X127242Y3297383D01*
X127344Y3297434D01*
X127449Y3297482D01*
X127555Y3297527D01*
X127663Y3297568D01*
X127772Y3297605D01*
X127882Y3297638D01*
X127994Y3297667D01*
X128106Y3297693D01*
X128219Y3297715D01*
X128333Y3297732D01*
X128447Y3297746D01*
X128562Y3297756D01*
X128677Y3297762D01*
X128792Y3297764D01*
X128792Y3297763D02*
X128907Y3297761D01*
X129022Y3297755D01*
X129137Y3297745D01*
X129251Y3297731D01*
X129365Y3297714D01*
X129478Y3297692D01*
X129590Y3297666D01*
X129702Y3297637D01*
X129812Y3297604D01*
X129921Y3297567D01*
X130029Y3297526D01*
X130135Y3297481D01*
X130240Y3297433D01*
X130342Y3297382D01*
X130443Y3297326D01*
X130543Y3297268D01*
X130640Y3297206D01*
X130734Y3297141D01*
X130827Y3297072D01*
X130917Y3297000D01*
X131005Y3296926D01*
X131090Y3296848D01*
X131172Y3296767D01*
X131251Y3296684D01*
X131328Y3296598D01*
X131401Y3296509D01*
X131472Y3296418D01*
X131539Y3296324D01*
X131603Y3296229D01*
X131664Y3296131D01*
X131721Y3296031D01*
X131774Y3295929D01*
X131825Y3295825D01*
X131871Y3295720D01*
X131914Y3295613D01*
X131953Y3295505D01*
X132090Y3295216D01*
X132220Y3294924D01*
X132343Y3294628D01*
X132458Y3294330D01*
X132567Y3294029D01*
X132668Y3293726D01*
X132762Y3293420D01*
X132849Y3293113D01*
X132928Y3292803D01*
X133000Y3292491D01*
X133064Y3292178D01*
X133121Y3291863D01*
X133171Y3291547D01*
X133213Y3291230D01*
X133247Y3290912D01*
X133274Y3290594D01*
X133293Y3290274D01*
X133304Y3289955D01*
X133308Y3289635D01*
X124277Y3289635D02*
X124281Y3289315D01*
X124292Y3288996D01*
X124311Y3288676D01*
X124338Y3288358D01*
X124372Y3288040D01*
X124414Y3287723D01*
X124464Y3287407D01*
X124521Y3287092D01*
X124585Y3286779D01*
X124657Y3286467D01*
X124736Y3286157D01*
X124823Y3285850D01*
X124917Y3285544D01*
X125018Y3285241D01*
X125127Y3284940D01*
X125242Y3284642D01*
X125365Y3284346D01*
X125495Y3284054D01*
X125632Y3283765D01*
X125631Y3283765D02*
X125670Y3283657D01*
X125713Y3283550D01*
X125759Y3283445D01*
X125810Y3283341D01*
X125863Y3283239D01*
X125920Y3283139D01*
X125981Y3283041D01*
X126045Y3282946D01*
X126112Y3282852D01*
X126183Y3282761D01*
X126256Y3282672D01*
X126333Y3282586D01*
X126412Y3282503D01*
X126494Y3282422D01*
X126579Y3282344D01*
X126667Y3282270D01*
X126757Y3282198D01*
X126850Y3282129D01*
X126944Y3282064D01*
X127041Y3282002D01*
X127141Y3281944D01*
X127242Y3281888D01*
X127344Y3281837D01*
X127449Y3281789D01*
X127555Y3281744D01*
X127663Y3281703D01*
X127772Y3281666D01*
X127882Y3281633D01*
X127994Y3281604D01*
X128106Y3281578D01*
X128219Y3281556D01*
X128333Y3281539D01*
X128447Y3281525D01*
X128562Y3281515D01*
X128677Y3281509D01*
X128792Y3281507D01*
X131953Y3283765D02*
X132090Y3284054D01*
X132220Y3284346D01*
X132343Y3284642D01*
X132458Y3284940D01*
X132567Y3285241D01*
X132668Y3285544D01*
X132762Y3285850D01*
X132849Y3286157D01*
X132928Y3286467D01*
X133000Y3286779D01*
X133064Y3287092D01*
X133121Y3287407D01*
X133171Y3287723D01*
X133213Y3288040D01*
X133247Y3288358D01*
X133274Y3288676D01*
X133293Y3288996D01*
X133304Y3289315D01*
X133308Y3289635D01*
X131953Y3283765D02*
X131914Y3283657D01*
X131871Y3283550D01*
X131825Y3283445D01*
X131774Y3283341D01*
X131721Y3283239D01*
X131664Y3283139D01*
X131603Y3283041D01*
X131539Y3282946D01*
X131472Y3282852D01*
X131401Y3282761D01*
X131328Y3282672D01*
X131251Y3282586D01*
X131172Y3282503D01*
X131090Y3282422D01*
X131005Y3282344D01*
X130917Y3282270D01*
X130827Y3282198D01*
X130734Y3282129D01*
X130640Y3282064D01*
X130543Y3282002D01*
X130443Y3281944D01*
X130342Y3281888D01*
X130239Y3281837D01*
X130135Y3281789D01*
X130029Y3281744D01*
X129921Y3281703D01*
X129812Y3281666D01*
X129702Y3281633D01*
X129590Y3281604D01*
X129478Y3281578D01*
X129365Y3281556D01*
X129251Y3281539D01*
X129137Y3281525D01*
X129022Y3281515D01*
X128907Y3281509D01*
X128792Y3281507D01*
X125180Y3285119D02*
X132405Y3294151D01*
D10*
X10000Y2900000D02*
X-49500Y2900000D01*
X-49500Y0D02*
X0Y0D01*
X-30000Y650D02*
X-30000Y2899350D01*
X-33192Y2874000D01*
X-26808Y2874000D01*
X-30000Y2899350D01*
X-31300Y2874000D01*
X-28700Y2874000D02*
X-30000Y2899350D01*
X-32600Y2874000D01*
X-27400Y2874000D02*
X-30000Y2899350D01*
X-33192Y26000D02*
X-30000Y650D01*
X-33192Y26000D02*
X-26808Y26000D01*
X-30000Y650D01*
X-31300Y26000D01*
X-28700Y26000D02*
X-30000Y650D01*
X-32600Y26000D01*
X-27400Y26000D02*
X-30000Y650D01*
D11*
X-52763Y1416812D02*
X-52761Y1416937D01*
X-52755Y1417062D01*
X-52746Y1417187D01*
X-52732Y1417311D01*
X-52715Y1417435D01*
X-52694Y1417559D01*
X-52669Y1417681D01*
X-52640Y1417803D01*
X-52608Y1417924D01*
X-52572Y1418044D01*
X-52532Y1418163D01*
X-52489Y1418280D01*
X-52442Y1418396D01*
X-52391Y1418511D01*
X-52337Y1418623D01*
X-52279Y1418735D01*
X-52219Y1418844D01*
X-52154Y1418951D01*
X-52087Y1419057D01*
X-52016Y1419160D01*
X-51942Y1419261D01*
X-51865Y1419360D01*
X-51785Y1419456D01*
X-51702Y1419550D01*
X-51617Y1419641D01*
X-51528Y1419730D01*
X-51437Y1419815D01*
X-51343Y1419898D01*
X-51247Y1419978D01*
X-51148Y1420055D01*
X-51047Y1420129D01*
X-50944Y1420200D01*
X-50838Y1420267D01*
X-50731Y1420332D01*
X-50622Y1420392D01*
X-50510Y1420450D01*
X-50398Y1420504D01*
X-50283Y1420555D01*
X-50167Y1420602D01*
X-50050Y1420645D01*
X-49931Y1420685D01*
X-49811Y1420721D01*
X-49690Y1420753D01*
X-49568Y1420782D01*
X-49446Y1420807D01*
X-49322Y1420828D01*
X-49198Y1420845D01*
X-49074Y1420859D01*
X-48949Y1420868D01*
X-48824Y1420874D01*
X-48699Y1420876D01*
X-52763Y1416812D02*
X-52761Y1416669D01*
X-52755Y1416527D01*
X-52745Y1416384D01*
X-52732Y1416242D01*
X-52714Y1416101D01*
X-52693Y1415959D01*
X-52668Y1415819D01*
X-52639Y1415679D01*
X-52606Y1415540D01*
X-52569Y1415402D01*
X-52529Y1415265D01*
X-52485Y1415130D01*
X-52437Y1414995D01*
X-52385Y1414862D01*
X-52330Y1414730D01*
X-52271Y1414600D01*
X-52209Y1414472D01*
X-52143Y1414345D01*
X-52074Y1414220D01*
X-52002Y1414097D01*
X-51926Y1413977D01*
X-51847Y1413858D01*
X-51764Y1413741D01*
X-51679Y1413627D01*
X-51590Y1413515D01*
X-51499Y1413406D01*
X-51404Y1413299D01*
X-51307Y1413194D01*
X-51206Y1413093D01*
X-51103Y1412994D01*
X-50998Y1412898D01*
X-50889Y1412805D01*
X-50778Y1412715D01*
X-50665Y1412628D01*
X-50550Y1412544D01*
X-50432Y1412464D01*
X-50312Y1412386D01*
X-50190Y1412312D01*
X-50066Y1412242D01*
X-49940Y1412174D01*
X-49812Y1412111D01*
X-49683Y1412050D01*
X-49552Y1411993D01*
X-49420Y1411940D01*
X-49286Y1411891D01*
X-49151Y1411845D01*
X-45538Y1419521D02*
X-45630Y1419615D01*
X-45724Y1419705D01*
X-45821Y1419793D01*
X-45921Y1419878D01*
X-46023Y1419960D01*
X-46128Y1420039D01*
X-46235Y1420114D01*
X-46344Y1420186D01*
X-46455Y1420255D01*
X-46569Y1420321D01*
X-46684Y1420383D01*
X-46801Y1420442D01*
X-46920Y1420497D01*
X-47040Y1420548D01*
X-47162Y1420596D01*
X-47285Y1420641D01*
X-47409Y1420681D01*
X-47535Y1420718D01*
X-47662Y1420751D01*
X-47789Y1420780D01*
X-47918Y1420806D01*
X-48047Y1420827D01*
X-48177Y1420845D01*
X-48307Y1420858D01*
X-48437Y1420868D01*
X-48568Y1420874D01*
X-48699Y1420876D01*
X-45538Y1419522D02*
X-36507Y1411845D01*
X-36507Y1420876D01*
X-43732Y1431089D02*
X-43732Y1436508D01*
X-43732Y1431089D02*
X-43734Y1430971D01*
X-43740Y1430853D01*
X-43749Y1430735D01*
X-43763Y1430618D01*
X-43780Y1430501D01*
X-43801Y1430384D01*
X-43826Y1430269D01*
X-43855Y1430154D01*
X-43888Y1430040D01*
X-43924Y1429928D01*
X-43964Y1429817D01*
X-44007Y1429707D01*
X-44054Y1429598D01*
X-44104Y1429491D01*
X-44159Y1429386D01*
X-44216Y1429283D01*
X-44277Y1429182D01*
X-44341Y1429082D01*
X-44408Y1428985D01*
X-44478Y1428890D01*
X-44552Y1428798D01*
X-44628Y1428707D01*
X-44708Y1428620D01*
X-44790Y1428535D01*
X-44875Y1428453D01*
X-44962Y1428373D01*
X-45053Y1428297D01*
X-45145Y1428223D01*
X-45240Y1428153D01*
X-45337Y1428086D01*
X-45437Y1428022D01*
X-45538Y1427961D01*
X-45641Y1427904D01*
X-45746Y1427849D01*
X-45853Y1427799D01*
X-45962Y1427752D01*
X-46072Y1427709D01*
X-46183Y1427669D01*
X-46295Y1427633D01*
X-46409Y1427600D01*
X-46524Y1427571D01*
X-46639Y1427546D01*
X-46756Y1427525D01*
X-46873Y1427508D01*
X-46990Y1427494D01*
X-47108Y1427485D01*
X-47226Y1427479D01*
X-47344Y1427477D01*
X-47344Y1427476D02*
X-48247Y1427476D01*
X-48380Y1427478D01*
X-48512Y1427484D01*
X-48644Y1427494D01*
X-48776Y1427507D01*
X-48908Y1427525D01*
X-49038Y1427546D01*
X-49169Y1427571D01*
X-49298Y1427600D01*
X-49426Y1427633D01*
X-49554Y1427669D01*
X-49680Y1427709D01*
X-49805Y1427753D01*
X-49929Y1427801D01*
X-50051Y1427852D01*
X-50172Y1427907D01*
X-50291Y1427965D01*
X-50409Y1428027D01*
X-50524Y1428092D01*
X-50638Y1428161D01*
X-50749Y1428232D01*
X-50858Y1428308D01*
X-50965Y1428386D01*
X-51070Y1428467D01*
X-51172Y1428552D01*
X-51272Y1428639D01*
X-51369Y1428729D01*
X-51464Y1428822D01*
X-51555Y1428918D01*
X-51644Y1429016D01*
X-51730Y1429117D01*
X-51813Y1429221D01*
X-51893Y1429327D01*
X-51969Y1429435D01*
X-52043Y1429545D01*
X-52113Y1429658D01*
X-52180Y1429772D01*
X-52243Y1429889D01*
X-52303Y1430007D01*
X-52360Y1430127D01*
X-52413Y1430249D01*
X-52462Y1430372D01*
X-52508Y1430496D01*
X-52550Y1430622D01*
X-52588Y1430749D01*
X-52623Y1430877D01*
X-52654Y1431006D01*
X-52681Y1431135D01*
X-52704Y1431266D01*
X-52724Y1431397D01*
X-52739Y1431529D01*
X-52751Y1431661D01*
X-52759Y1431793D01*
X-52763Y1431926D01*
X-52763Y1432058D01*
X-52759Y1432191D01*
X-52751Y1432323D01*
X-52739Y1432455D01*
X-52724Y1432587D01*
X-52704Y1432718D01*
X-52681Y1432849D01*
X-52654Y1432978D01*
X-52623Y1433107D01*
X-52588Y1433235D01*
X-52550Y1433362D01*
X-52508Y1433488D01*
X-52462Y1433612D01*
X-52413Y1433735D01*
X-52360Y1433857D01*
X-52303Y1433977D01*
X-52243Y1434095D01*
X-52180Y1434212D01*
X-52113Y1434326D01*
X-52043Y1434439D01*
X-51969Y1434549D01*
X-51893Y1434657D01*
X-51813Y1434763D01*
X-51730Y1434867D01*
X-51644Y1434968D01*
X-51555Y1435066D01*
X-51464Y1435162D01*
X-51369Y1435255D01*
X-51272Y1435345D01*
X-51172Y1435432D01*
X-51070Y1435517D01*
X-50965Y1435598D01*
X-50858Y1435676D01*
X-50749Y1435752D01*
X-50638Y1435823D01*
X-50524Y1435892D01*
X-50409Y1435957D01*
X-50291Y1436019D01*
X-50172Y1436077D01*
X-50051Y1436132D01*
X-49929Y1436183D01*
X-49805Y1436231D01*
X-49680Y1436275D01*
X-49554Y1436315D01*
X-49426Y1436351D01*
X-49298Y1436384D01*
X-49169Y1436413D01*
X-49038Y1436438D01*
X-48908Y1436459D01*
X-48776Y1436477D01*
X-48644Y1436490D01*
X-48512Y1436500D01*
X-48380Y1436506D01*
X-48247Y1436508D01*
X-43732Y1436508D01*
X-43557Y1436506D01*
X-43383Y1436500D01*
X-43209Y1436489D01*
X-43035Y1436474D01*
X-42861Y1436455D01*
X-42688Y1436432D01*
X-42516Y1436405D01*
X-42344Y1436373D01*
X-42173Y1436338D01*
X-42003Y1436298D01*
X-41834Y1436254D01*
X-41666Y1436206D01*
X-41499Y1436154D01*
X-41334Y1436098D01*
X-41170Y1436038D01*
X-41007Y1435975D01*
X-40847Y1435907D01*
X-40687Y1435835D01*
X-40530Y1435760D01*
X-40374Y1435680D01*
X-40221Y1435597D01*
X-40069Y1435511D01*
X-39920Y1435420D01*
X-39773Y1435326D01*
X-39628Y1435229D01*
X-39485Y1435128D01*
X-39345Y1435024D01*
X-39208Y1434916D01*
X-39073Y1434805D01*
X-38941Y1434691D01*
X-38812Y1434574D01*
X-38685Y1434453D01*
X-38562Y1434330D01*
X-38441Y1434203D01*
X-38324Y1434074D01*
X-38210Y1433942D01*
X-38099Y1433807D01*
X-37991Y1433670D01*
X-37887Y1433530D01*
X-37786Y1433387D01*
X-37689Y1433242D01*
X-37595Y1433095D01*
X-37504Y1432946D01*
X-37418Y1432794D01*
X-37335Y1432641D01*
X-37255Y1432485D01*
X-37180Y1432328D01*
X-37108Y1432168D01*
X-37040Y1432008D01*
X-36977Y1431845D01*
X-36917Y1431681D01*
X-36861Y1431516D01*
X-36809Y1431349D01*
X-36761Y1431181D01*
X-36717Y1431012D01*
X-36677Y1430842D01*
X-36642Y1430671D01*
X-36610Y1430499D01*
X-36583Y1430327D01*
X-36560Y1430154D01*
X-36541Y1429980D01*
X-36526Y1429806D01*
X-36515Y1429632D01*
X-36509Y1429458D01*
X-36507Y1429283D01*
X-44635Y1443108D02*
X-44955Y1443112D01*
X-45274Y1443123D01*
X-45594Y1443142D01*
X-45912Y1443169D01*
X-46230Y1443203D01*
X-46547Y1443245D01*
X-46863Y1443295D01*
X-47178Y1443352D01*
X-47491Y1443416D01*
X-47803Y1443488D01*
X-48113Y1443567D01*
X-48420Y1443654D01*
X-48726Y1443748D01*
X-49029Y1443849D01*
X-49330Y1443958D01*
X-49628Y1444073D01*
X-49924Y1444196D01*
X-50216Y1444326D01*
X-50505Y1444463D01*
X-50506Y1444462D02*
X-50614Y1444501D01*
X-50721Y1444544D01*
X-50826Y1444590D01*
X-50930Y1444641D01*
X-51032Y1444694D01*
X-51132Y1444751D01*
X-51230Y1444812D01*
X-51325Y1444876D01*
X-51419Y1444943D01*
X-51510Y1445014D01*
X-51599Y1445087D01*
X-51685Y1445164D01*
X-51768Y1445243D01*
X-51849Y1445325D01*
X-51927Y1445410D01*
X-52001Y1445498D01*
X-52073Y1445588D01*
X-52141Y1445680D01*
X-52207Y1445775D01*
X-52269Y1445872D01*
X-52327Y1445971D01*
X-52383Y1446073D01*
X-52434Y1446175D01*
X-52482Y1446280D01*
X-52527Y1446386D01*
X-52568Y1446494D01*
X-52605Y1446603D01*
X-52638Y1446713D01*
X-52667Y1446825D01*
X-52693Y1446937D01*
X-52715Y1447050D01*
X-52732Y1447164D01*
X-52746Y1447278D01*
X-52756Y1447393D01*
X-52762Y1447508D01*
X-52764Y1447623D01*
X-52763Y1447623D02*
X-52761Y1447738D01*
X-52755Y1447853D01*
X-52745Y1447968D01*
X-52731Y1448082D01*
X-52714Y1448196D01*
X-52692Y1448309D01*
X-52666Y1448421D01*
X-52637Y1448533D01*
X-52604Y1448643D01*
X-52567Y1448752D01*
X-52526Y1448860D01*
X-52481Y1448966D01*
X-52433Y1449071D01*
X-52382Y1449173D01*
X-52326Y1449274D01*
X-52268Y1449374D01*
X-52206Y1449471D01*
X-52141Y1449565D01*
X-52072Y1449658D01*
X-52000Y1449748D01*
X-51926Y1449836D01*
X-51848Y1449921D01*
X-51767Y1450003D01*
X-51684Y1450082D01*
X-51598Y1450159D01*
X-51509Y1450232D01*
X-51418Y1450303D01*
X-51324Y1450370D01*
X-51229Y1450434D01*
X-51131Y1450495D01*
X-51031Y1450552D01*
X-50929Y1450605D01*
X-50825Y1450656D01*
X-50720Y1450702D01*
X-50613Y1450745D01*
X-50505Y1450784D01*
X-50216Y1450921D01*
X-49924Y1451051D01*
X-49628Y1451174D01*
X-49330Y1451289D01*
X-49029Y1451398D01*
X-48726Y1451499D01*
X-48420Y1451593D01*
X-48113Y1451680D01*
X-47803Y1451759D01*
X-47491Y1451831D01*
X-47178Y1451895D01*
X-46863Y1451952D01*
X-46547Y1452002D01*
X-46230Y1452044D01*
X-45912Y1452078D01*
X-45594Y1452105D01*
X-45274Y1452124D01*
X-44955Y1452135D01*
X-44635Y1452139D01*
X-44635Y1443108D02*
X-44315Y1443112D01*
X-43996Y1443123D01*
X-43676Y1443142D01*
X-43358Y1443169D01*
X-43040Y1443203D01*
X-42723Y1443245D01*
X-42407Y1443295D01*
X-42092Y1443352D01*
X-41779Y1443416D01*
X-41467Y1443488D01*
X-41157Y1443567D01*
X-40850Y1443654D01*
X-40544Y1443748D01*
X-40241Y1443849D01*
X-39940Y1443958D01*
X-39642Y1444073D01*
X-39346Y1444196D01*
X-39054Y1444326D01*
X-38765Y1444463D01*
X-38765Y1444462D02*
X-38657Y1444501D01*
X-38550Y1444544D01*
X-38445Y1444590D01*
X-38341Y1444641D01*
X-38239Y1444694D01*
X-38139Y1444751D01*
X-38041Y1444812D01*
X-37946Y1444876D01*
X-37852Y1444943D01*
X-37761Y1445014D01*
X-37672Y1445087D01*
X-37586Y1445164D01*
X-37503Y1445243D01*
X-37422Y1445325D01*
X-37344Y1445410D01*
X-37270Y1445498D01*
X-37198Y1445588D01*
X-37129Y1445681D01*
X-37064Y1445775D01*
X-37002Y1445872D01*
X-36944Y1445972D01*
X-36888Y1446073D01*
X-36837Y1446175D01*
X-36789Y1446280D01*
X-36744Y1446386D01*
X-36703Y1446494D01*
X-36666Y1446603D01*
X-36633Y1446713D01*
X-36604Y1446825D01*
X-36578Y1446937D01*
X-36556Y1447050D01*
X-36539Y1447164D01*
X-36525Y1447278D01*
X-36515Y1447393D01*
X-36509Y1447508D01*
X-36507Y1447623D01*
X-38765Y1450783D02*
X-39054Y1450920D01*
X-39346Y1451050D01*
X-39642Y1451173D01*
X-39940Y1451288D01*
X-40241Y1451397D01*
X-40544Y1451498D01*
X-40850Y1451592D01*
X-41157Y1451679D01*
X-41467Y1451758D01*
X-41779Y1451830D01*
X-42092Y1451894D01*
X-42407Y1451951D01*
X-42723Y1452001D01*
X-43040Y1452043D01*
X-43358Y1452077D01*
X-43676Y1452104D01*
X-43996Y1452123D01*
X-44315Y1452134D01*
X-44635Y1452138D01*
X-38765Y1450784D02*
X-38657Y1450745D01*
X-38550Y1450702D01*
X-38445Y1450656D01*
X-38341Y1450605D01*
X-38239Y1450552D01*
X-38139Y1450495D01*
X-38041Y1450434D01*
X-37946Y1450370D01*
X-37852Y1450303D01*
X-37761Y1450232D01*
X-37672Y1450159D01*
X-37586Y1450082D01*
X-37503Y1450003D01*
X-37422Y1449921D01*
X-37344Y1449836D01*
X-37270Y1449748D01*
X-37198Y1449658D01*
X-37129Y1449565D01*
X-37064Y1449471D01*
X-37002Y1449374D01*
X-36944Y1449274D01*
X-36888Y1449173D01*
X-36837Y1449070D01*
X-36789Y1448966D01*
X-36744Y1448860D01*
X-36703Y1448752D01*
X-36666Y1448643D01*
X-36633Y1448533D01*
X-36604Y1448421D01*
X-36578Y1448309D01*
X-36556Y1448196D01*
X-36539Y1448082D01*
X-36525Y1447968D01*
X-36515Y1447853D01*
X-36509Y1447738D01*
X-36507Y1447623D01*
X-40119Y1444011D02*
X-49151Y1451236D01*
X-37410Y1458113D02*
X-36507Y1458113D01*
X-37410Y1458113D02*
X-37410Y1459017D01*
X-36507Y1459017D01*
X-36507Y1458113D01*
X-44635Y1464991D02*
X-44955Y1464995D01*
X-45274Y1465006D01*
X-45594Y1465025D01*
X-45912Y1465052D01*
X-46230Y1465086D01*
X-46547Y1465128D01*
X-46863Y1465178D01*
X-47178Y1465235D01*
X-47491Y1465299D01*
X-47803Y1465371D01*
X-48113Y1465450D01*
X-48420Y1465537D01*
X-48726Y1465631D01*
X-49029Y1465732D01*
X-49330Y1465841D01*
X-49628Y1465956D01*
X-49924Y1466079D01*
X-50216Y1466209D01*
X-50505Y1466346D01*
X-50506Y1466346D02*
X-50614Y1466385D01*
X-50721Y1466428D01*
X-50826Y1466474D01*
X-50930Y1466525D01*
X-51032Y1466578D01*
X-51132Y1466635D01*
X-51230Y1466696D01*
X-51325Y1466760D01*
X-51419Y1466827D01*
X-51510Y1466898D01*
X-51599Y1466971D01*
X-51685Y1467048D01*
X-51768Y1467127D01*
X-51849Y1467209D01*
X-51927Y1467294D01*
X-52001Y1467382D01*
X-52073Y1467472D01*
X-52141Y1467564D01*
X-52207Y1467659D01*
X-52269Y1467756D01*
X-52327Y1467855D01*
X-52383Y1467957D01*
X-52434Y1468059D01*
X-52482Y1468164D01*
X-52527Y1468270D01*
X-52568Y1468378D01*
X-52605Y1468487D01*
X-52638Y1468597D01*
X-52667Y1468709D01*
X-52693Y1468821D01*
X-52715Y1468934D01*
X-52732Y1469048D01*
X-52746Y1469162D01*
X-52756Y1469277D01*
X-52762Y1469392D01*
X-52764Y1469507D01*
X-52763Y1469507D02*
X-52761Y1469622D01*
X-52755Y1469737D01*
X-52745Y1469852D01*
X-52731Y1469966D01*
X-52714Y1470080D01*
X-52692Y1470193D01*
X-52666Y1470305D01*
X-52637Y1470417D01*
X-52604Y1470527D01*
X-52567Y1470636D01*
X-52526Y1470744D01*
X-52481Y1470850D01*
X-52433Y1470955D01*
X-52382Y1471057D01*
X-52326Y1471158D01*
X-52268Y1471258D01*
X-52206Y1471355D01*
X-52141Y1471449D01*
X-52072Y1471542D01*
X-52000Y1471632D01*
X-51926Y1471720D01*
X-51848Y1471805D01*
X-51767Y1471887D01*
X-51684Y1471966D01*
X-51598Y1472043D01*
X-51509Y1472116D01*
X-51418Y1472187D01*
X-51324Y1472254D01*
X-51229Y1472318D01*
X-51131Y1472379D01*
X-51031Y1472436D01*
X-50929Y1472489D01*
X-50825Y1472540D01*
X-50720Y1472586D01*
X-50613Y1472629D01*
X-50505Y1472668D01*
X-50505Y1472667D02*
X-50216Y1472804D01*
X-49924Y1472934D01*
X-49628Y1473057D01*
X-49330Y1473172D01*
X-49029Y1473281D01*
X-48726Y1473382D01*
X-48420Y1473476D01*
X-48113Y1473563D01*
X-47803Y1473642D01*
X-47491Y1473714D01*
X-47178Y1473778D01*
X-46863Y1473835D01*
X-46547Y1473885D01*
X-46230Y1473927D01*
X-45912Y1473961D01*
X-45594Y1473988D01*
X-45274Y1474007D01*
X-44955Y1474018D01*
X-44635Y1474022D01*
X-44635Y1464992D02*
X-44315Y1464996D01*
X-43996Y1465007D01*
X-43676Y1465026D01*
X-43358Y1465053D01*
X-43040Y1465087D01*
X-42723Y1465129D01*
X-42407Y1465179D01*
X-42092Y1465236D01*
X-41779Y1465300D01*
X-41467Y1465372D01*
X-41157Y1465451D01*
X-40850Y1465538D01*
X-40544Y1465632D01*
X-40241Y1465733D01*
X-39940Y1465842D01*
X-39642Y1465957D01*
X-39346Y1466080D01*
X-39054Y1466210D01*
X-38765Y1466347D01*
X-38765Y1466346D02*
X-38657Y1466385D01*
X-38550Y1466428D01*
X-38445Y1466474D01*
X-38341Y1466525D01*
X-38239Y1466578D01*
X-38139Y1466635D01*
X-38041Y1466696D01*
X-37946Y1466760D01*
X-37852Y1466827D01*
X-37761Y1466898D01*
X-37672Y1466971D01*
X-37586Y1467048D01*
X-37503Y1467127D01*
X-37422Y1467209D01*
X-37344Y1467294D01*
X-37270Y1467382D01*
X-37198Y1467472D01*
X-37129Y1467565D01*
X-37064Y1467659D01*
X-37002Y1467756D01*
X-36944Y1467856D01*
X-36888Y1467957D01*
X-36837Y1468059D01*
X-36789Y1468164D01*
X-36744Y1468270D01*
X-36703Y1468378D01*
X-36666Y1468487D01*
X-36633Y1468597D01*
X-36604Y1468709D01*
X-36578Y1468821D01*
X-36556Y1468934D01*
X-36539Y1469048D01*
X-36525Y1469162D01*
X-36515Y1469277D01*
X-36509Y1469392D01*
X-36507Y1469507D01*
X-38765Y1472667D02*
X-39054Y1472804D01*
X-39346Y1472934D01*
X-39642Y1473057D01*
X-39940Y1473172D01*
X-40241Y1473281D01*
X-40544Y1473382D01*
X-40850Y1473476D01*
X-41157Y1473563D01*
X-41467Y1473642D01*
X-41779Y1473714D01*
X-42092Y1473778D01*
X-42407Y1473835D01*
X-42723Y1473885D01*
X-43040Y1473927D01*
X-43358Y1473961D01*
X-43676Y1473988D01*
X-43996Y1474007D01*
X-44315Y1474018D01*
X-44635Y1474022D01*
X-38765Y1472668D02*
X-38657Y1472629D01*
X-38550Y1472586D01*
X-38445Y1472540D01*
X-38341Y1472489D01*
X-38239Y1472436D01*
X-38139Y1472379D01*
X-38041Y1472318D01*
X-37946Y1472254D01*
X-37852Y1472187D01*
X-37761Y1472116D01*
X-37672Y1472043D01*
X-37586Y1471966D01*
X-37503Y1471887D01*
X-37422Y1471805D01*
X-37344Y1471720D01*
X-37270Y1471632D01*
X-37198Y1471542D01*
X-37129Y1471449D01*
X-37064Y1471355D01*
X-37002Y1471258D01*
X-36944Y1471158D01*
X-36888Y1471057D01*
X-36837Y1470954D01*
X-36789Y1470850D01*
X-36744Y1470744D01*
X-36703Y1470636D01*
X-36666Y1470527D01*
X-36633Y1470417D01*
X-36604Y1470305D01*
X-36578Y1470193D01*
X-36556Y1470080D01*
X-36539Y1469966D01*
X-36525Y1469852D01*
X-36515Y1469737D01*
X-36509Y1469622D01*
X-36507Y1469507D01*
X-40119Y1465894D02*
X-49151Y1473119D01*
X-44635Y1480623D02*
X-44955Y1480627D01*
X-45274Y1480638D01*
X-45594Y1480657D01*
X-45912Y1480684D01*
X-46230Y1480718D01*
X-46547Y1480760D01*
X-46863Y1480810D01*
X-47178Y1480867D01*
X-47491Y1480931D01*
X-47803Y1481003D01*
X-48113Y1481082D01*
X-48420Y1481169D01*
X-48726Y1481263D01*
X-49029Y1481364D01*
X-49330Y1481473D01*
X-49628Y1481588D01*
X-49924Y1481711D01*
X-50216Y1481841D01*
X-50505Y1481978D01*
X-50506Y1481977D02*
X-50614Y1482016D01*
X-50721Y1482059D01*
X-50826Y1482105D01*
X-50930Y1482156D01*
X-51032Y1482209D01*
X-51132Y1482266D01*
X-51230Y1482327D01*
X-51325Y1482391D01*
X-51419Y1482458D01*
X-51510Y1482529D01*
X-51599Y1482602D01*
X-51685Y1482679D01*
X-51768Y1482758D01*
X-51849Y1482840D01*
X-51927Y1482925D01*
X-52001Y1483013D01*
X-52073Y1483103D01*
X-52141Y1483195D01*
X-52207Y1483290D01*
X-52269Y1483387D01*
X-52327Y1483486D01*
X-52383Y1483588D01*
X-52434Y1483690D01*
X-52482Y1483795D01*
X-52527Y1483901D01*
X-52568Y1484009D01*
X-52605Y1484118D01*
X-52638Y1484228D01*
X-52667Y1484340D01*
X-52693Y1484452D01*
X-52715Y1484565D01*
X-52732Y1484679D01*
X-52746Y1484793D01*
X-52756Y1484908D01*
X-52762Y1485023D01*
X-52764Y1485138D01*
X-52763Y1485138D02*
X-52761Y1485253D01*
X-52755Y1485368D01*
X-52745Y1485483D01*
X-52731Y1485597D01*
X-52714Y1485711D01*
X-52692Y1485824D01*
X-52666Y1485936D01*
X-52637Y1486048D01*
X-52604Y1486158D01*
X-52567Y1486267D01*
X-52526Y1486375D01*
X-52481Y1486481D01*
X-52433Y1486586D01*
X-52382Y1486688D01*
X-52326Y1486789D01*
X-52268Y1486889D01*
X-52206Y1486986D01*
X-52141Y1487080D01*
X-52072Y1487173D01*
X-52000Y1487263D01*
X-51926Y1487351D01*
X-51848Y1487436D01*
X-51767Y1487518D01*
X-51684Y1487597D01*
X-51598Y1487674D01*
X-51509Y1487747D01*
X-51418Y1487818D01*
X-51324Y1487885D01*
X-51229Y1487949D01*
X-51131Y1488010D01*
X-51031Y1488067D01*
X-50929Y1488120D01*
X-50825Y1488171D01*
X-50720Y1488217D01*
X-50613Y1488260D01*
X-50505Y1488299D01*
X-50505Y1488298D02*
X-50216Y1488435D01*
X-49924Y1488565D01*
X-49628Y1488688D01*
X-49330Y1488803D01*
X-49029Y1488912D01*
X-48726Y1489013D01*
X-48420Y1489107D01*
X-48113Y1489194D01*
X-47803Y1489273D01*
X-47491Y1489345D01*
X-47178Y1489409D01*
X-46863Y1489466D01*
X-46547Y1489516D01*
X-46230Y1489558D01*
X-45912Y1489592D01*
X-45594Y1489619D01*
X-45274Y1489638D01*
X-44955Y1489649D01*
X-44635Y1489653D01*
X-44635Y1480623D02*
X-44315Y1480627D01*
X-43996Y1480638D01*
X-43676Y1480657D01*
X-43358Y1480684D01*
X-43040Y1480718D01*
X-42723Y1480760D01*
X-42407Y1480810D01*
X-42092Y1480867D01*
X-41779Y1480931D01*
X-41467Y1481003D01*
X-41157Y1481082D01*
X-40850Y1481169D01*
X-40544Y1481263D01*
X-40241Y1481364D01*
X-39940Y1481473D01*
X-39642Y1481588D01*
X-39346Y1481711D01*
X-39054Y1481841D01*
X-38765Y1481978D01*
X-38765Y1481977D02*
X-38657Y1482016D01*
X-38550Y1482059D01*
X-38445Y1482105D01*
X-38341Y1482156D01*
X-38239Y1482209D01*
X-38139Y1482266D01*
X-38041Y1482327D01*
X-37946Y1482391D01*
X-37852Y1482458D01*
X-37761Y1482529D01*
X-37672Y1482602D01*
X-37586Y1482679D01*
X-37503Y1482758D01*
X-37422Y1482840D01*
X-37344Y1482925D01*
X-37270Y1483013D01*
X-37198Y1483103D01*
X-37129Y1483196D01*
X-37064Y1483290D01*
X-37002Y1483387D01*
X-36944Y1483487D01*
X-36888Y1483588D01*
X-36837Y1483690D01*
X-36789Y1483795D01*
X-36744Y1483901D01*
X-36703Y1484009D01*
X-36666Y1484118D01*
X-36633Y1484228D01*
X-36604Y1484340D01*
X-36578Y1484452D01*
X-36556Y1484565D01*
X-36539Y1484679D01*
X-36525Y1484793D01*
X-36515Y1484908D01*
X-36509Y1485023D01*
X-36507Y1485138D01*
X-38765Y1488298D02*
X-39054Y1488435D01*
X-39346Y1488565D01*
X-39642Y1488688D01*
X-39940Y1488803D01*
X-40241Y1488912D01*
X-40544Y1489013D01*
X-40850Y1489107D01*
X-41157Y1489194D01*
X-41467Y1489273D01*
X-41779Y1489345D01*
X-42092Y1489409D01*
X-42407Y1489466D01*
X-42723Y1489516D01*
X-43040Y1489558D01*
X-43358Y1489592D01*
X-43676Y1489619D01*
X-43996Y1489638D01*
X-44315Y1489649D01*
X-44635Y1489653D01*
X-38765Y1488299D02*
X-38657Y1488260D01*
X-38550Y1488217D01*
X-38445Y1488171D01*
X-38341Y1488120D01*
X-38239Y1488067D01*
X-38139Y1488010D01*
X-38041Y1487949D01*
X-37946Y1487885D01*
X-37852Y1487818D01*
X-37761Y1487747D01*
X-37672Y1487674D01*
X-37586Y1487597D01*
X-37503Y1487518D01*
X-37422Y1487436D01*
X-37344Y1487351D01*
X-37270Y1487263D01*
X-37198Y1487173D01*
X-37129Y1487080D01*
X-37064Y1486986D01*
X-37002Y1486889D01*
X-36944Y1486789D01*
X-36888Y1486688D01*
X-36837Y1486585D01*
X-36789Y1486481D01*
X-36744Y1486375D01*
X-36703Y1486267D01*
X-36666Y1486158D01*
X-36633Y1486048D01*
X-36604Y1485936D01*
X-36578Y1485824D01*
X-36556Y1485711D01*
X-36539Y1485597D01*
X-36525Y1485483D01*
X-36515Y1485368D01*
X-36509Y1485253D01*
X-36507Y1485138D01*
X-40119Y1481526D02*
X-49151Y1488751D01*
D12*
X2865126Y217240D03*
X2858626Y217240D03*
X2852126Y217240D03*
X2839126Y217240D03*
X2845626Y217240D03*
X2832626Y217240D03*
X2826126Y217240D03*
X2819626Y217240D03*
X2813126Y217240D03*
X2806626Y217240D03*
X2865126Y290360D03*
X2858626Y290360D03*
X2852126Y290360D03*
X2845626Y290360D03*
X2839126Y290360D03*
X2832626Y290360D03*
X2826126Y290360D03*
X2819626Y290360D03*
X2813126Y290360D03*
X2806626Y290360D03*
X2800126Y290360D03*
X2793626Y290360D03*
X2793626Y217240D03*
X2800126Y217240D03*
X2845126Y792240D03*
X2838626Y792240D03*
X2832126Y792240D03*
X2819126Y792240D03*
X2825626Y792240D03*
X2812626Y792240D03*
X2806126Y792240D03*
X2799626Y792240D03*
X2793126Y792240D03*
X2786626Y792240D03*
X2845126Y865360D03*
X2838626Y865360D03*
X2832126Y865360D03*
X2825626Y865360D03*
X2819126Y865360D03*
X2812626Y865360D03*
X2806126Y865360D03*
X2799626Y865360D03*
X2793126Y865360D03*
X2786626Y865360D03*
X2780126Y865360D03*
X2773626Y865360D03*
X2773626Y792240D03*
X2780126Y792240D03*
X2840126Y1807240D03*
X2833626Y1807240D03*
X2827126Y1807240D03*
X2814126Y1807240D03*
X2820626Y1807240D03*
X2807626Y1807240D03*
X2801126Y1807240D03*
X2794626Y1807240D03*
X2788126Y1807240D03*
X2781626Y1807240D03*
X2840126Y1880360D03*
X2833626Y1880360D03*
X2827126Y1880360D03*
X2820626Y1880360D03*
X2814126Y1880360D03*
X2807626Y1880360D03*
X2801126Y1880360D03*
X2794626Y1880360D03*
X2788126Y1880360D03*
X2781626Y1880360D03*
X2775126Y1880360D03*
X2768626Y1880360D03*
X2768626Y1807240D03*
X2775126Y1807240D03*
X2865126Y2262240D03*
X2858626Y2262240D03*
X2852126Y2262240D03*
X2839126Y2262240D03*
X2845626Y2262240D03*
X2832626Y2262240D03*
X2826126Y2262240D03*
X2819626Y2262240D03*
X2813126Y2262240D03*
X2806626Y2262240D03*
X2865126Y2335360D03*
X2858626Y2335360D03*
X2852126Y2335360D03*
X2845626Y2335360D03*
X2839126Y2335360D03*
X2832626Y2335360D03*
X2826126Y2335360D03*
X2819626Y2335360D03*
X2813126Y2335360D03*
X2806626Y2335360D03*
X2800126Y2335360D03*
X2793626Y2335360D03*
X2793626Y2262240D03*
X2800126Y2262240D03*
D13*
X2768100Y2305800D03*
X2768100Y2288800D03*
D14*
X2591800Y25400D03*
X2591800Y65400D03*
X2591800Y105400D03*
X2591800Y145400D03*
X2591800Y185400D03*
X2591800Y225400D03*
X2591800Y265400D03*
X2591800Y305400D03*
X2591800Y345400D03*
X2591800Y385400D03*
X2591800Y425400D03*
X2591800Y465400D03*
X2591800Y505400D03*
X2591800Y545400D03*
X2591800Y585400D03*
X2591800Y625400D03*
X2591800Y665400D03*
X2591800Y705400D03*
X2591800Y745400D03*
X2591800Y785400D03*
X2591800Y825400D03*
X2591800Y865400D03*
X2591800Y905400D03*
X2591800Y945400D03*
X2591800Y985400D03*
X2591800Y1025400D03*
X2591800Y1065400D03*
X2591800Y1105400D03*
X2591800Y1145400D03*
X2591800Y1185400D03*
X2591800Y1225400D03*
X2591800Y1265400D03*
X2591800Y1305400D03*
X2591800Y1345400D03*
X2591800Y1385400D03*
X2591800Y1425400D03*
X2591800Y1465400D03*
X2591800Y1505400D03*
X2591800Y1545400D03*
X2591800Y1585400D03*
X2591800Y1625400D03*
X2591800Y1665400D03*
X2591800Y1705400D03*
X2591800Y1745400D03*
X2591800Y1785400D03*
X2591800Y1825400D03*
X2591800Y1865400D03*
X2591800Y1905400D03*
X2591800Y1945400D03*
X2591800Y1985400D03*
X2591800Y2025400D03*
X2591800Y2065400D03*
X2591800Y2105400D03*
X2591800Y2145400D03*
X2591800Y2185400D03*
X2591800Y2225400D03*
X2591800Y2265400D03*
X2591800Y2305400D03*
X2591800Y2345400D03*
X2591800Y2385400D03*
X2591800Y2425400D03*
X2591800Y2465400D03*
X2591800Y2505400D03*
X2591800Y2545400D03*
D15*
X2584500Y25400D02*
X24500Y25400D01*
X24500Y65400D02*
X2584500Y65400D01*
X2584500Y105400D02*
X24500Y105400D01*
X24500Y145400D02*
X2584500Y145400D01*
X2584500Y185400D02*
X24500Y185400D01*
X24500Y225400D02*
X2584500Y225400D01*
X2584500Y265400D02*
X24500Y265400D01*
X24500Y305400D02*
X2584500Y305400D01*
X2584500Y345400D02*
X24500Y345400D01*
X24500Y385400D02*
X2584500Y385400D01*
X2584500Y425400D02*
X24500Y425400D01*
X24500Y465400D02*
X2584500Y465400D01*
X2584500Y505400D02*
X24500Y505400D01*
X24500Y545400D02*
X2584500Y545400D01*
X2584500Y585400D02*
X24500Y585400D01*
X24500Y625400D02*
X2584500Y625400D01*
X2584500Y665400D02*
X24500Y665400D01*
X24500Y705400D02*
X2584500Y705400D01*
X2584500Y745400D02*
X24500Y745400D01*
X24500Y785400D02*
X2584500Y785400D01*
X2584500Y825400D02*
X24500Y825400D01*
X24500Y865400D02*
X2584500Y865400D01*
X2584500Y905400D02*
X24500Y905400D01*
X24500Y945400D02*
X2584500Y945400D01*
X2584500Y985400D02*
X24500Y985400D01*
X24500Y1025400D02*
X2584500Y1025400D01*
X2584500Y1065400D02*
X24500Y1065400D01*
X24500Y1105400D02*
X2584500Y1105400D01*
X2584500Y1145400D02*
X24500Y1145400D01*
X24500Y1185400D02*
X2584500Y1185400D01*
X2584500Y1225400D02*
X24500Y1225400D01*
X24500Y1265400D02*
X2584500Y1265400D01*
X2584500Y1305400D02*
X24500Y1305400D01*
X24500Y1345400D02*
X2584500Y1345400D01*
X2584500Y1385400D02*
X24500Y1385400D01*
X24500Y1425400D02*
X2584500Y1425400D01*
X2584500Y1465400D02*
X24500Y1465400D01*
X24500Y1505400D02*
X2584500Y1505400D01*
X2584500Y1545400D02*
X24500Y1545400D01*
X24500Y1585400D02*
X2584500Y1585400D01*
X2584500Y1625400D02*
X24500Y1625400D01*
X24500Y1665400D02*
X2584500Y1665400D01*
X2584500Y1705400D02*
X24500Y1705400D01*
X24500Y1745400D02*
X2584500Y1745400D01*
X2584500Y1785400D02*
X24500Y1785400D01*
X24500Y1825400D02*
X2584500Y1825400D01*
X2584500Y1865400D02*
X24500Y1865400D01*
X24500Y1905400D02*
X2584500Y1905400D01*
X2584500Y1945400D02*
X24500Y1945400D01*
X24500Y1985400D02*
X2584500Y1985400D01*
X2584500Y2025400D02*
X24500Y2025400D01*
X24500Y2065400D02*
X2584500Y2065400D01*
X2584500Y2105400D02*
X24500Y2105400D01*
X24500Y2145400D02*
X2584500Y2145400D01*
X2584500Y2185400D02*
X24500Y2185400D01*
X24500Y2225400D02*
X2584500Y2225400D01*
X2584500Y2265400D02*
X24500Y2265400D01*
X24500Y2305400D02*
X2584500Y2305400D01*
X2584500Y2345400D02*
X24500Y2345400D01*
X24500Y2385400D02*
X2584500Y2385400D01*
X2584500Y2425400D02*
X24500Y2425400D01*
X24500Y2465400D02*
X2584500Y2465400D01*
X2584500Y2505400D02*
X24500Y2505400D01*
X24500Y2545400D02*
X2584500Y2545400D01*
D16*
X2806124Y566400D03*
X2806124Y559900D03*
X2806124Y553400D03*
X2806124Y546900D03*
X2806124Y540400D03*
X2806124Y533900D03*
X2806124Y527400D03*
D17*
X2815124Y518400D03*
X2821624Y518400D03*
X2828124Y518400D03*
X2834624Y518400D03*
X2841124Y518400D03*
X2847624Y518400D03*
X2854124Y518400D03*
D16*
X2863124Y527400D03*
X2863124Y533900D03*
X2863124Y540400D03*
X2863124Y546900D03*
X2863124Y553400D03*
X2863124Y559900D03*
X2863124Y566400D03*
D17*
X2854124Y575400D03*
X2847624Y575400D03*
X2841124Y575400D03*
X2834624Y575400D03*
X2828124Y575400D03*
X2821624Y575400D03*
X2815124Y575400D03*
D18*
X2834624Y546900D03*
D13*
X1205800Y2806000D03*
X1205800Y2823000D03*
D19*
X1243600Y2801000D03*
X1260600Y2801000D03*
X1241700Y2821000D03*
X1258700Y2821000D03*
D16*
X2806124Y1110200D03*
X2806124Y1103700D03*
X2806124Y1097200D03*
X2806124Y1090700D03*
X2806124Y1084200D03*
X2806124Y1077700D03*
X2806124Y1071200D03*
D17*
X2815124Y1062200D03*
X2821624Y1062200D03*
X2828124Y1062200D03*
X2834624Y1062200D03*
X2841124Y1062200D03*
X2847624Y1062200D03*
X2854124Y1062200D03*
D16*
X2863124Y1071200D03*
X2863124Y1077700D03*
X2863124Y1084200D03*
X2863124Y1090700D03*
X2863124Y1097200D03*
X2863124Y1103700D03*
X2863124Y1110200D03*
D17*
X2854124Y1119200D03*
X2847624Y1119200D03*
X2841124Y1119200D03*
X2834624Y1119200D03*
X2828124Y1119200D03*
X2821624Y1119200D03*
X2815124Y1119200D03*
D18*
X2834624Y1090700D03*
D16*
X2786124Y2124000D03*
X2786124Y2117500D03*
X2786124Y2111000D03*
X2786124Y2104500D03*
X2786124Y2098000D03*
X2786124Y2091500D03*
X2786124Y2085000D03*
D17*
X2795124Y2076000D03*
X2801624Y2076000D03*
X2808124Y2076000D03*
X2814624Y2076000D03*
X2821124Y2076000D03*
X2827624Y2076000D03*
X2834124Y2076000D03*
D16*
X2843124Y2085000D03*
X2843124Y2091500D03*
X2843124Y2098000D03*
X2843124Y2104500D03*
X2843124Y2111000D03*
X2843124Y2117500D03*
X2843124Y2124000D03*
D17*
X2834124Y2133000D03*
X2827624Y2133000D03*
X2821124Y2133000D03*
X2814624Y2133000D03*
X2808124Y2133000D03*
X2801624Y2133000D03*
X2795124Y2133000D03*
D18*
X2814624Y2104500D03*
D16*
X2766124Y2617800D03*
X2766124Y2611300D03*
X2766124Y2604800D03*
X2766124Y2598300D03*
X2766124Y2591800D03*
X2766124Y2585300D03*
X2766124Y2578800D03*
D17*
X2775124Y2569800D03*
X2781624Y2569800D03*
X2788124Y2569800D03*
X2794624Y2569800D03*
X2801124Y2569800D03*
X2807624Y2569800D03*
X2814124Y2569800D03*
D16*
X2823124Y2578800D03*
X2823124Y2585300D03*
X2823124Y2591800D03*
X2823124Y2598300D03*
X2823124Y2604800D03*
X2823124Y2611300D03*
X2823124Y2617800D03*
D17*
X2814124Y2626800D03*
X2807624Y2626800D03*
X2801124Y2626800D03*
X2794624Y2626800D03*
X2788124Y2626800D03*
X2781624Y2626800D03*
X2775124Y2626800D03*
D18*
X2794624Y2598300D03*
D20*
X2780754Y2497350D03*
X2780754Y2484650D03*
X2780754Y2471950D03*
X2780754Y2459250D03*
X2780754Y2446550D03*
X2780754Y2433850D03*
X2780754Y2421150D03*
X2780754Y2408450D03*
X2827998Y2408450D03*
X2827998Y2421150D03*
X2827998Y2433850D03*
X2827998Y2446550D03*
X2827998Y2459250D03*
X2827998Y2471950D03*
X2827998Y2484650D03*
X2827998Y2497350D03*
D21*
X1212300Y2852400D03*
X1237700Y2852400D03*
X1263100Y2852400D03*
X1288500Y2852400D03*
X1313900Y2852400D03*
X1339300Y2852400D03*
X1364700Y2852400D03*
X1390100Y2852400D03*
X1415500Y2852400D03*
X1440900Y2852400D03*
X1466300Y2852400D03*
X1491700Y2852400D03*
X1517100Y2852400D03*
X1517100Y2877800D03*
X1491700Y2877800D03*
X1466300Y2877800D03*
X1440900Y2877800D03*
X1415500Y2877800D03*
X1390100Y2877800D03*
X1364700Y2877800D03*
X1339300Y2877800D03*
X1313900Y2877800D03*
X1288500Y2877800D03*
X1263100Y2877800D03*
X1237700Y2877800D03*
X1212300Y2877800D03*
X1542500Y2852400D03*
X1542500Y2877800D03*
X1567900Y2852400D03*
X1567900Y2877800D03*
X1593300Y2852400D03*
X1593300Y2877800D03*
X1618700Y2852400D03*
X1618700Y2877800D03*
X1644100Y2852400D03*
X1644100Y2877800D03*
X1669500Y2852400D03*
X1669500Y2877800D03*
X1694900Y2852400D03*
X1694900Y2877800D03*
D22*
X2670000Y2670000D03*
X2690000Y2690000D03*
X2710000Y2710000D03*
X2730000Y2730000D03*
X2750000Y2750000D03*
X2770000Y2770000D03*
X2790000Y2790000D03*
X2810000Y2810000D03*
X2830000Y2830000D03*
X2850000Y2850000D03*
D23*
X2639200Y20000D03*
X2650800Y20000D03*
X2639200Y60000D03*
X2650800Y60000D03*
X2639200Y100000D03*
X2650800Y100000D03*
X2639200Y140000D03*
X2650800Y140000D03*
X2639200Y180000D03*
X2650800Y180000D03*
X2639200Y220000D03*
X2650800Y220000D03*
X2639200Y260000D03*
X2650800Y260000D03*
X2639200Y300000D03*
X2650800Y300000D03*
X2639200Y340000D03*
X2650800Y340000D03*
X2639200Y380000D03*
X2650800Y380000D03*
X2639200Y420000D03*
X2650800Y420000D03*
X2639200Y460000D03*
X2650800Y460000D03*
X2639200Y500000D03*
X2650800Y500000D03*
X2639200Y540000D03*
X2650800Y540000D03*
X2639200Y580000D03*
X2650800Y580000D03*
X2639200Y620000D03*
X2650800Y620000D03*
X2639200Y660000D03*
X2650800Y660000D03*
X2639200Y700000D03*
X2650800Y700000D03*
X2639200Y740000D03*
X2650800Y740000D03*
X2639200Y780000D03*
X2650800Y780000D03*
X2639200Y820000D03*
X2650800Y820000D03*
X2639200Y860000D03*
X2650800Y860000D03*
X2639200Y900000D03*
X2650800Y900000D03*
X2639200Y940000D03*
X2650800Y940000D03*
X2639200Y980000D03*
X2650800Y980000D03*
X2639200Y1020000D03*
X2650800Y1020000D03*
X2639200Y1060000D03*
X2650800Y1060000D03*
X2639200Y1100000D03*
X2650800Y1100000D03*
X2639200Y1140000D03*
X2650800Y1140000D03*
X2639200Y1180000D03*
X2650800Y1180000D03*
X2639200Y1220000D03*
X2650800Y1220000D03*
X2639200Y1300000D03*
X2650800Y1300000D03*
X2639200Y1340000D03*
X2650800Y1340000D03*
X2639200Y1380000D03*
X2650800Y1380000D03*
X2639200Y1420000D03*
X2650800Y1420000D03*
X2639200Y1460000D03*
X2650800Y1460000D03*
X2639200Y1500000D03*
X2650800Y1500000D03*
X2639200Y1540000D03*
X2650800Y1540000D03*
X2639200Y1580000D03*
X2650800Y1580000D03*
X2639200Y1620000D03*
X2650800Y1620000D03*
X2639200Y1660000D03*
X2650800Y1660000D03*
X2639200Y1700000D03*
X2650800Y1700000D03*
X2639200Y1740000D03*
X2650800Y1740000D03*
X2639200Y1780000D03*
X2650800Y1780000D03*
X2639200Y1820000D03*
X2650800Y1820000D03*
X2639200Y1860000D03*
X2650800Y1860000D03*
X2639200Y1900000D03*
X2650800Y1900000D03*
X2639200Y1940000D03*
X2650800Y1940000D03*
X2639200Y1980000D03*
X2650800Y1980000D03*
X2639200Y2020000D03*
X2650800Y2020000D03*
X2639200Y2060000D03*
X2650800Y2060000D03*
X2639200Y2100000D03*
X2650800Y2100000D03*
X2639200Y2140000D03*
X2650800Y2140000D03*
X2639200Y2180000D03*
X2650800Y2180000D03*
X2639200Y2220000D03*
X2650800Y2220000D03*
X2639200Y2260000D03*
X2650800Y2260000D03*
X2639200Y2300000D03*
X2650800Y2300000D03*
X2639200Y2340000D03*
X2650800Y2340000D03*
X2639200Y2380000D03*
X2650800Y2380000D03*
X2639200Y2420000D03*
X2650800Y2420000D03*
X2639200Y2460000D03*
X2650800Y2460000D03*
X2639200Y2500000D03*
X2650800Y2500000D03*
X2639200Y1260000D03*
X2650800Y1260000D03*
X2639200Y2540000D03*
X2650800Y2540000D03*
X2764200Y255000D03*
X2775800Y255000D03*
X2744200Y830000D03*
X2755800Y830000D03*
X2739200Y1845000D03*
X2750800Y1845000D03*
X2754200Y2260000D03*
X2765800Y2260000D03*
D24*
X2875000Y824200D03*
X2875000Y835800D03*
X2880000Y1839200D03*
X2880000Y1850800D03*
X2880000Y2099200D03*
X2880000Y2110800D03*
X2880000Y2594200D03*
X2880000Y2605800D03*
X2880000Y2469200D03*
X2880000Y2480800D03*
D13*
X2880000Y2426500D03*
X2880000Y2443500D03*
D11*
X2800000Y2570000D02*
X2795000Y2570000D01*
X2794624Y2569800D01*
X2800000Y2570000D02*
X2801124Y2569800D01*
X2821250Y2075000D02*
X2821250Y2065000D01*
X2807500Y2463750D02*
X2807500Y2468750D01*
X2806250Y2470000D01*
X2806250Y2480000D01*
X2822500Y2496250D01*
X2827500Y2496250D01*
X2821124Y2076000D02*
X2821250Y2075000D01*
X2827500Y2496250D02*
X2827998Y2497350D01*
X2835000Y1061250D02*
X2835000Y1051250D01*
X2835000Y1061250D02*
X2834624Y1062200D01*
X2880000Y2443500D02*
X2880000Y2456250D01*
X2887500Y2463750D01*
X2887500Y2486250D01*
X2877500Y2496250D01*
X2828750Y2496250D01*
X2827998Y2497350D01*
X2800000Y2557500D02*
X2800000Y2568750D01*
X2801124Y2569800D01*
D25*
X2821250Y2065000D03*
X2807500Y2463750D03*
X2835000Y1051250D03*
X2800000Y2557500D03*
D11*
X2772500Y2288750D02*
X2768750Y2288750D01*
X2772500Y2288750D02*
X2780000Y2281250D01*
X2793750Y2281250D01*
X2806250Y2268750D01*
X2806250Y2262500D01*
X2768750Y2288750D02*
X2768100Y2288800D01*
X2806250Y2262500D02*
X2806626Y2262240D01*
X2781250Y1806250D02*
X2781250Y1801250D01*
X2777500Y1797500D01*
X2755000Y1797500D01*
X2725000Y1827500D01*
X2725000Y1896250D01*
X2757500Y1928750D01*
X2757500Y2046250D01*
X2737500Y2066250D01*
X2737500Y2236250D01*
X2780000Y2278750D02*
X2780000Y2281250D01*
X2781626Y1807240D02*
X2781250Y1806250D01*
X2786250Y791250D02*
X2786250Y783750D01*
X2661250Y658750D01*
X2778750Y208750D02*
X2790000Y208750D01*
X2791250Y207500D01*
X2802500Y207500D01*
X2806250Y211250D01*
X2806250Y216250D01*
X2786250Y791250D02*
X2786626Y792240D01*
X2806626Y217240D02*
X2806250Y216250D01*
X2727500Y1770000D02*
X2755000Y1797500D01*
X2700000Y1742500D02*
X2700000Y1300000D01*
D25*
X2737500Y2236250D03*
X2780000Y2278750D03*
X2661250Y658750D03*
X2778750Y208750D03*
X2727500Y1770000D03*
X2700000Y1742500D03*
X2700000Y1300000D03*
D11*
X2786250Y865000D02*
X2786250Y852500D01*
X2633750Y810000D02*
X2610000Y810000D01*
X2603750Y803750D01*
X2621250Y486250D02*
X2571250Y486250D01*
X2621250Y486250D02*
X2635000Y472500D01*
X2790000Y312500D02*
X2806250Y296250D01*
X2806250Y291250D01*
X2786250Y865000D02*
X2786626Y865360D01*
X2806250Y291250D02*
X2806626Y290360D01*
X2781250Y1881250D02*
X2781250Y1901250D01*
X2772500Y1910000D01*
X2751250Y1931250D02*
X2751250Y2047500D01*
X2731250Y2067500D01*
X2731250Y2260000D01*
X2786250Y2342500D02*
X2788750Y2342500D01*
X2791250Y2345000D01*
X2802500Y2345000D01*
X2806250Y2341250D01*
X2806250Y2336250D01*
X2781250Y1881250D02*
X2781626Y1880360D01*
X2806626Y2335360D02*
X2806250Y2336250D01*
X1848750Y2571250D02*
X1568750Y2851250D01*
X2173750Y2246250D02*
X2645000Y2246250D01*
X1568750Y2851250D02*
X1567900Y2852400D01*
X2686250Y1890000D02*
X2686250Y1757500D01*
X2686250Y1890000D02*
X2696250Y1900000D01*
D25*
X2786250Y852500D03*
X2633750Y810000D03*
X2603750Y803750D03*
X2571250Y486250D03*
X2635000Y472500D03*
X2790000Y312500D03*
X2772500Y1910000D03*
X2751250Y1931250D03*
X2731250Y2260000D03*
X2786250Y2342500D03*
X1848750Y2571250D03*
X2173750Y2246250D03*
X2645000Y2246250D03*
X2686250Y1757500D03*
X2696250Y1900000D03*
D11*
X2780000Y865000D02*
X2780000Y832500D01*
X2766250Y818750D01*
X2687500Y818750D01*
X2675000Y831250D01*
X2627500Y831250D01*
X2615000Y843750D01*
X2610000Y843750D01*
X2577500Y446250D02*
X2645000Y446250D01*
X2788750Y302500D02*
X2793750Y302500D01*
X2800000Y296250D01*
X2800000Y291250D01*
X2780000Y865000D02*
X2780126Y865360D01*
X2800000Y291250D02*
X2800126Y290360D01*
X2775000Y1881250D02*
X2775000Y1897500D01*
X2772500Y1900000D01*
X2741250Y1931250D02*
X2741250Y2052500D01*
X2725000Y2068750D01*
X2725000Y2277500D01*
X2772500Y2325000D01*
X2796250Y2325000D01*
X2800000Y2328750D01*
X2800000Y2335000D01*
X2775000Y1881250D02*
X2775126Y1880360D01*
X2800000Y2335000D02*
X2800126Y2335360D01*
X1873750Y2571250D02*
X1593750Y2851250D01*
X2158750Y2286250D02*
X2645000Y2286250D01*
X2716250Y2286250D02*
X2725000Y2277500D01*
X1593750Y2851250D02*
X1593300Y2852400D01*
X2721250Y1911250D02*
X2721250Y1738750D01*
X2721250Y1911250D02*
X2741250Y1931250D01*
D25*
X2610000Y843750D03*
X2577500Y446250D03*
X2645000Y446250D03*
X2788750Y302500D03*
X2772500Y1900000D03*
X2741250Y1931250D03*
X1873750Y2571250D03*
X2158750Y2286250D03*
X2645000Y2286250D03*
X2716250Y2286250D03*
X2721250Y1738750D03*
D11*
X2780000Y791250D02*
X2780000Y786250D01*
X2691250Y697500D02*
X2685000Y691250D01*
X2691250Y697500D02*
X2780000Y786250D01*
X2590000Y246250D02*
X2580000Y246250D01*
X2577500Y243750D01*
X2756250Y222500D02*
X2786250Y222500D01*
X2791250Y227500D01*
X2796250Y227500D01*
X2800000Y223750D01*
X2800000Y217500D01*
X2780000Y791250D02*
X2780126Y792240D01*
X2800000Y217500D02*
X2800126Y217240D01*
X2775000Y1807500D02*
X2775000Y1813750D01*
X2770000Y1818750D01*
X2751250Y1818750D01*
X2708750Y1833750D02*
X2708750Y1791250D01*
X2708750Y1833750D02*
X2702500Y1840000D01*
X2702500Y2140000D01*
X2791250Y2275000D02*
X2793750Y2275000D01*
X2800000Y2268750D01*
X2800000Y2262500D01*
X2775000Y1807500D02*
X2775126Y1807240D01*
X2800126Y2262240D02*
X2800000Y2262500D01*
X1601250Y2877500D02*
X1593750Y2877500D01*
X1601250Y2877500D02*
X1613750Y2865000D01*
X1623750Y2865000D01*
X1631250Y2857500D01*
X1631250Y2847500D01*
X1907500Y2571250D01*
X2395000Y2083750D02*
X2622500Y2083750D01*
X2628750Y2077500D01*
X1593750Y2877500D02*
X1593300Y2877800D01*
X2682500Y706250D02*
X2691250Y697500D01*
X2682500Y706250D02*
X2682500Y810000D01*
X2703750Y831250D02*
X2703750Y972500D01*
X2706250Y975000D01*
X2706250Y1046250D01*
X2706250Y1082500D02*
X2706250Y1122500D01*
X2711250Y1127500D01*
X2711250Y1788750D01*
X2708750Y1791250D01*
D25*
X2685000Y691250D03*
X2590000Y246250D03*
X2577500Y243750D03*
X2756250Y222500D03*
X2751250Y1818750D03*
X2708750Y1791250D03*
X2702500Y2140000D03*
X2791250Y2275000D03*
X1907500Y2571250D03*
X2395000Y2083750D03*
X2628750Y2077500D03*
X2682500Y810000D03*
X2703750Y831250D03*
X2706250Y1046250D03*
X2706250Y1082500D03*
D11*
X2772500Y791250D02*
X2772500Y787500D01*
X2691250Y706250D01*
X2602500Y206250D02*
X2585000Y206250D01*
X2582500Y203750D01*
X2768750Y208750D02*
X2776250Y216250D01*
X2792500Y216250D01*
X2772500Y791250D02*
X2773626Y792240D01*
X2793626Y217240D02*
X2792500Y216250D01*
X2767500Y1807500D02*
X2753750Y1807500D01*
X2731250Y1830000D01*
X2708750Y1842500D02*
X2708750Y2192500D01*
X2777500Y2261250D02*
X2792500Y2261250D01*
X2767500Y1807500D02*
X2768626Y1807240D01*
X2792500Y2261250D02*
X2793626Y2262240D01*
X1897500Y2572500D02*
X1618750Y2851250D01*
X2343750Y2126250D02*
X2617500Y2126250D01*
X1618750Y2851250D02*
X1618700Y2852400D01*
D25*
X2691250Y706250D03*
X2602500Y206250D03*
X2582500Y203750D03*
X2768750Y208750D03*
X2731250Y1830000D03*
X2708750Y1842500D03*
X2708750Y2192500D03*
X2777500Y2261250D03*
X1897500Y2572500D03*
X2343750Y2126250D03*
X2617500Y2126250D03*
D11*
X1226250Y2823750D02*
X1206250Y2823750D01*
X1226250Y2823750D02*
X1251250Y2848750D01*
X1251250Y2866250D01*
X1262500Y2877500D01*
X1206250Y2823750D02*
X1205800Y2823000D01*
X1262500Y2877500D02*
X1263100Y2877800D01*
X1315000Y2852500D02*
X1322500Y2852500D01*
X1335000Y2865000D01*
X1351250Y2865000D01*
X1363750Y2877500D01*
X1315000Y2852500D02*
X1313900Y2852400D01*
X1363750Y2877500D02*
X1364700Y2877800D01*
X1271250Y2877500D02*
X1263750Y2877500D01*
X1271250Y2877500D02*
X1283750Y2865000D01*
X1301250Y2865000D01*
X1313750Y2852500D01*
X1263750Y2877500D02*
X1263100Y2877800D01*
X1313750Y2852500D02*
X1313900Y2852400D01*
X1517500Y2852500D02*
X1525000Y2852500D01*
X1537500Y2865000D01*
X1555000Y2865000D01*
X1567500Y2877500D01*
X1517500Y2852500D02*
X1517100Y2852400D01*
X1567500Y2877500D02*
X1567900Y2877800D01*
X1686250Y2852500D02*
X1693750Y2852500D01*
X1686250Y2852500D02*
X1673750Y2865000D01*
X1631250Y2865000D01*
X1618750Y2877500D01*
X1693750Y2852500D02*
X1694900Y2852400D01*
X1618750Y2877500D02*
X1618700Y2877800D01*
X1373750Y2877500D02*
X1365000Y2877500D01*
X1373750Y2877500D02*
X1386250Y2865000D01*
X1427500Y2865000D01*
X1440000Y2877500D01*
X1365000Y2877500D02*
X1364700Y2877800D01*
X1440000Y2877500D02*
X1440900Y2877800D01*
X2651250Y2651250D02*
X2651250Y2540000D01*
X2651250Y2651250D02*
X2670000Y2670000D01*
X2880000Y2628750D02*
X2880000Y2605800D01*
X2880000Y2628750D02*
X2820000Y2688750D01*
X2706250Y2688750D01*
X2687500Y2670000D01*
X2670000Y2670000D01*
X2807500Y2568750D02*
X2807500Y2556250D01*
X2802500Y2551250D01*
X2790000Y2551250D02*
X2776250Y2551250D01*
X2790000Y2551250D02*
X2802500Y2551250D01*
X2776250Y2551250D02*
X2757500Y2570000D01*
X2757500Y2581250D01*
X2761250Y2585000D01*
X2765000Y2585000D01*
X2807624Y2569800D02*
X2807500Y2568750D01*
X2766124Y2585300D02*
X2765000Y2585000D01*
X2830000Y2470000D02*
X2845000Y2470000D01*
X2880000Y2470000D01*
X2830000Y2470000D02*
X2828750Y2471250D01*
X2880000Y2470000D02*
X2880000Y2469200D01*
X2828750Y2471250D02*
X2827998Y2471950D01*
X2828750Y2408750D02*
X2832500Y2408750D01*
X2845000Y2421250D01*
X2845000Y2428750D02*
X2845000Y2470000D01*
X2845000Y2428750D02*
X2845000Y2421250D01*
X2828750Y2408750D02*
X2827998Y2408450D01*
X2790000Y2551250D02*
X2790000Y2553750D01*
X2812500Y2472500D02*
X2827500Y2472500D01*
X2827998Y2471950D01*
X2880000Y2275000D02*
X2880000Y2110800D01*
X2848750Y2306250D02*
X2833750Y2321250D01*
X2848750Y2306250D02*
X2880000Y2275000D01*
X2833750Y2321250D02*
X2775000Y2321250D01*
X2768750Y2315000D01*
X2768750Y2306250D01*
X2768100Y2305800D01*
X2765000Y2277500D02*
X2765000Y2260000D01*
X2765000Y2277500D02*
X2760000Y2282500D01*
X2760000Y2297500D01*
X2767500Y2305000D01*
X2765800Y2260000D02*
X2765000Y2260000D01*
X2767500Y2305000D02*
X2768100Y2305800D01*
X2832500Y2397500D02*
X2832500Y2408750D01*
X2832500Y2397500D02*
X2870000Y2360000D01*
X2870000Y2327500D01*
X2848750Y2306250D01*
X2832500Y2408750D02*
X2827998Y2408450D01*
X2657500Y2540000D02*
X2651250Y2540000D01*
X2657500Y2540000D02*
X2768750Y2428750D01*
X2845000Y2428750D01*
X2651250Y2540000D02*
X2650800Y2540000D01*
X2451250Y2851250D02*
X1695000Y2851250D01*
X2451250Y2851250D02*
X2651250Y2651250D01*
X1695000Y2851250D02*
X1694900Y2852400D01*
X2651250Y820000D02*
X2651250Y780000D01*
X2651250Y820000D02*
X2650800Y820000D01*
X2651250Y740000D02*
X2651250Y700000D01*
X2651250Y660000D02*
X2651250Y652500D01*
X2651250Y620000D01*
X2871250Y831250D02*
X2875000Y835000D01*
X2871250Y831250D02*
X2870000Y831250D01*
X2852500Y813750D01*
X2852500Y802500D01*
X2856250Y798750D01*
X2856250Y757500D01*
X2751250Y652500D01*
X2651250Y652500D01*
X2875000Y835000D02*
X2875000Y835800D01*
X2651250Y700000D02*
X2651250Y660000D01*
X2651250Y700000D02*
X2650800Y700000D01*
X2650800Y660000D02*
X2651250Y660000D01*
X2651250Y740000D02*
X2651250Y780000D01*
X2650800Y780000D01*
X2650800Y740000D02*
X2651250Y740000D01*
X2651250Y60000D02*
X2651250Y20000D01*
X2650800Y20000D01*
X2651250Y100000D02*
X2651250Y140000D01*
X2651250Y180000D01*
X2651250Y140000D02*
X2650800Y140000D01*
X2651250Y100000D02*
X2651250Y60000D01*
X2650800Y60000D01*
X2650800Y100000D02*
X2651250Y100000D01*
X2835000Y518750D02*
X2840000Y518750D01*
X2835000Y518750D02*
X2834624Y518400D01*
X2840000Y518750D02*
X2841124Y518400D01*
X2805000Y533750D02*
X2801250Y533750D01*
X2797500Y530000D01*
X2797500Y518750D01*
X2815000Y501250D01*
X2830000Y501250D01*
X2833750Y505000D01*
X2833750Y517500D01*
X2806124Y533900D02*
X2805000Y533750D01*
X2833750Y517500D02*
X2834624Y518400D01*
X2841250Y518750D02*
X2847500Y518750D01*
X2847624Y518400D01*
X2841250Y518750D02*
X2841124Y518400D01*
X2776250Y273750D02*
X2776250Y255000D01*
X2776250Y273750D02*
X2792500Y290000D01*
X2793626Y290360D01*
X2651250Y540000D02*
X2651250Y580000D01*
X2651250Y500000D02*
X2651250Y460000D01*
X2651250Y420000D02*
X2651250Y380000D01*
X2651250Y260000D02*
X2651250Y233750D01*
X2651250Y220000D01*
X2650800Y220000D01*
X2650800Y260000D02*
X2651250Y260000D01*
X2651250Y300000D02*
X2651250Y340000D01*
X2651250Y233750D02*
X2665000Y233750D01*
X2668750Y237500D01*
X2668750Y238750D02*
X2668750Y282500D01*
X2668750Y238750D02*
X2668750Y237500D01*
X2668750Y282500D02*
X2651250Y300000D01*
X2650800Y300000D01*
X2651250Y340000D02*
X2651250Y380000D01*
X2650800Y380000D01*
X2650800Y340000D02*
X2651250Y340000D01*
X2651250Y420000D02*
X2651250Y460000D01*
X2650800Y460000D01*
X2650800Y420000D02*
X2651250Y420000D01*
X2651250Y500000D02*
X2651250Y530000D01*
X2651250Y540000D01*
X2650800Y540000D01*
X2650800Y500000D02*
X2651250Y500000D01*
X2776250Y255000D02*
X2776250Y242500D01*
X2772500Y238750D01*
X2668750Y238750D01*
X2775800Y255000D02*
X2776250Y255000D01*
X2795000Y530000D02*
X2797500Y530000D01*
X2735000Y180000D02*
X2651250Y180000D01*
X2735000Y180000D02*
X2746250Y191250D01*
X2862500Y191250D01*
X2870000Y198750D01*
X2870000Y225000D01*
X2857500Y237500D01*
X2781250Y237500D01*
X2776250Y242500D01*
X2651250Y180000D02*
X2650800Y180000D01*
X2651250Y580000D02*
X2651250Y620000D01*
X2650800Y620000D01*
X2650800Y580000D02*
X2651250Y580000D01*
X2815000Y2062500D02*
X2815000Y2075000D01*
X2815000Y2062500D02*
X2818750Y2058750D01*
X2823750Y2058750D01*
X2827500Y2062500D01*
X2827500Y2075000D01*
X2815000Y2075000D02*
X2814624Y2076000D01*
X2827500Y2075000D02*
X2827624Y2076000D01*
X2785000Y2091250D02*
X2781250Y2091250D01*
X2777500Y2087500D01*
X2777500Y2077500D01*
X2796250Y2058750D01*
X2811250Y2058750D01*
X2813750Y2061250D02*
X2815000Y2062500D01*
X2813750Y2061250D02*
X2811250Y2058750D01*
X2786124Y2091500D02*
X2785000Y2091250D01*
X2751250Y1856250D02*
X2751250Y1845000D01*
X2763750Y1868750D02*
X2767500Y1872500D01*
X2763750Y1868750D02*
X2751250Y1856250D01*
X2767500Y1872500D02*
X2767500Y1880000D01*
X2751250Y1845000D02*
X2750800Y1845000D01*
X2767500Y1880000D02*
X2768626Y1880360D01*
X2851250Y1851250D02*
X2862500Y1851250D01*
X2880000Y1851250D01*
X2851250Y1851250D02*
X2820000Y1820000D01*
X2817500Y1820000D01*
X2798750Y1838750D02*
X2793750Y1838750D01*
X2763750Y1868750D01*
X2880000Y1851250D02*
X2880000Y1850800D01*
X2813750Y2061250D02*
X2811250Y2063750D01*
X2831250Y2043750D02*
X2831250Y1913750D01*
X2862500Y1882500D01*
X2862500Y1851250D01*
X2651250Y2496250D02*
X2651250Y2500000D01*
X2651250Y2496250D02*
X2651250Y2460000D01*
X2651250Y2500000D02*
X2650800Y2500000D01*
X2651250Y2420000D02*
X2651250Y2380000D01*
X2651250Y2340000D02*
X2651250Y2336250D01*
X2651250Y2300000D01*
X2651250Y2336250D02*
X2792500Y2336250D01*
X2793626Y2335360D01*
X2651250Y2336250D02*
X2650800Y2340000D01*
X2651250Y2340000D02*
X2651250Y2380000D01*
X2650800Y2380000D01*
X2650800Y2340000D02*
X2651250Y2340000D01*
X2651250Y2420000D02*
X2651250Y2460000D01*
X2650800Y2460000D01*
X2650800Y2420000D02*
X2651250Y2420000D01*
X2841250Y1062500D02*
X2847500Y1062500D01*
X2841250Y1062500D02*
X2841124Y1062200D01*
X2847500Y1062500D02*
X2847624Y1062200D01*
X2805000Y1077500D02*
X2801250Y1077500D01*
X2797500Y1073750D01*
X2797500Y1068750D02*
X2797500Y1062500D01*
X2797500Y1068750D02*
X2797500Y1073750D01*
X2797500Y1062500D02*
X2815000Y1045000D01*
X2837500Y1045000D01*
X2841250Y1048750D01*
X2841250Y1061250D01*
X2806124Y1077700D02*
X2805000Y1077500D01*
X2841124Y1062200D02*
X2841250Y1061250D01*
X2756250Y848750D02*
X2756250Y833750D01*
X2756250Y830000D01*
X2756250Y848750D02*
X2772500Y865000D01*
X2756250Y830000D02*
X2755800Y830000D01*
X2772500Y865000D02*
X2773626Y865360D01*
X2651250Y2220000D02*
X2651250Y2260000D01*
X2651250Y2180000D02*
X2651250Y2140000D01*
X2651250Y2100000D02*
X2651250Y2060000D01*
X2651250Y2020000D02*
X2651250Y1980000D01*
X2651250Y1940000D02*
X2651250Y1900000D01*
X2651250Y1860000D02*
X2651250Y1820000D01*
X2651250Y1780000D02*
X2651250Y1740000D01*
X2651250Y1700000D02*
X2651250Y1660000D01*
X2651250Y1620000D02*
X2651250Y1580000D01*
X2651250Y1540000D02*
X2651250Y1500000D01*
X2651250Y1460000D02*
X2651250Y1420000D01*
X2651250Y1380000D02*
X2651250Y1340000D01*
X2651250Y1300000D02*
X2651250Y1260000D01*
X2651250Y1220000D02*
X2651250Y1180000D01*
X2651250Y1140000D02*
X2651250Y1100000D01*
X2651250Y1060000D02*
X2651250Y1020000D01*
X2651250Y900000D02*
X2651250Y860000D01*
X2651250Y940000D02*
X2651250Y980000D01*
X2651250Y940000D02*
X2651250Y900000D01*
X2650800Y900000D01*
X2650800Y940000D02*
X2651250Y940000D01*
X2651250Y980000D02*
X2651250Y1020000D01*
X2650800Y1020000D01*
X2650800Y980000D02*
X2651250Y980000D01*
X2651250Y1060000D02*
X2651250Y1100000D01*
X2650800Y1100000D01*
X2650800Y1060000D02*
X2651250Y1060000D01*
X2651250Y1140000D02*
X2651250Y1180000D01*
X2650800Y1180000D01*
X2650800Y1140000D02*
X2651250Y1140000D01*
X2651250Y1220000D02*
X2651250Y1260000D01*
X2650800Y1260000D01*
X2650800Y1220000D02*
X2651250Y1220000D01*
X2651250Y1300000D02*
X2651250Y1340000D01*
X2650800Y1340000D01*
X2650800Y1300000D02*
X2651250Y1300000D01*
X2651250Y1380000D02*
X2651250Y1420000D01*
X2650800Y1420000D01*
X2650800Y1380000D02*
X2651250Y1380000D01*
X2651250Y1460000D02*
X2651250Y1500000D01*
X2650800Y1500000D01*
X2650800Y1460000D02*
X2651250Y1460000D01*
X2651250Y1540000D02*
X2651250Y1580000D01*
X2650800Y1580000D01*
X2650800Y1540000D02*
X2651250Y1540000D01*
X2651250Y1620000D02*
X2651250Y1660000D01*
X2650800Y1660000D01*
X2650800Y1620000D02*
X2651250Y1620000D01*
X2651250Y1700000D02*
X2651250Y1711250D01*
X2651250Y1740000D01*
X2650800Y1740000D01*
X2650800Y1700000D02*
X2651250Y1700000D01*
X2651250Y1780000D02*
X2651250Y1820000D01*
X2650800Y1820000D01*
X2650800Y1780000D02*
X2651250Y1780000D01*
X2651250Y1860000D02*
X2651250Y1900000D01*
X2650800Y1900000D01*
X2650800Y1860000D02*
X2651250Y1860000D01*
X2651250Y1940000D02*
X2651250Y1980000D01*
X2650800Y1980000D01*
X2650800Y1940000D02*
X2651250Y1940000D01*
X2651250Y2020000D02*
X2651250Y2060000D01*
X2650800Y2060000D01*
X2650800Y2020000D02*
X2651250Y2020000D01*
X2651250Y2100000D02*
X2651250Y2140000D01*
X2650800Y2140000D01*
X2650800Y2100000D02*
X2651250Y2100000D01*
X2651250Y2180000D02*
X2651250Y2220000D01*
X2650800Y2220000D01*
X2650800Y2180000D02*
X2651250Y2180000D01*
X2755000Y830000D02*
X2751250Y826250D01*
X2751250Y825000D01*
X2748750Y822500D01*
X2688750Y822500D01*
X2651250Y860000D01*
X2755000Y830000D02*
X2755800Y830000D01*
X2651250Y860000D02*
X2650800Y860000D01*
X2795000Y1068750D02*
X2797500Y1068750D01*
X2772500Y833750D02*
X2756250Y833750D01*
X2755800Y830000D01*
X2651250Y2260000D02*
X2651250Y2300000D01*
X2650800Y2300000D01*
X2650800Y2260000D02*
X2651250Y2260000D01*
X2667500Y1718750D02*
X2660000Y1711250D01*
X2651250Y1711250D01*
X2825000Y813750D02*
X2852500Y813750D01*
X2825000Y813750D02*
X2811250Y827500D01*
X2661250Y2496250D02*
X2651250Y2496250D01*
X2650800Y2500000D01*
D25*
X2790000Y2553750D03*
X2812500Y2472500D03*
X2795000Y530000D03*
X2651250Y530000D03*
X2817500Y1820000D03*
X2798750Y1838750D03*
X2811250Y2063750D03*
X2831250Y2043750D03*
X2795000Y1068750D03*
X2772500Y833750D03*
X2667500Y1718750D03*
X2811250Y827500D03*
X2661250Y2496250D03*
D11*
X2633800Y65400D02*
X2591800Y65400D01*
X2633800Y65400D02*
X2634600Y64600D01*
X2639200Y60000D01*
X2863750Y546250D02*
X2868750Y546250D01*
X2875000Y540000D01*
X2875000Y263750D01*
X2855000Y243750D01*
X2822500Y208750D02*
X2822500Y203750D01*
X2822500Y208750D02*
X2820000Y211250D01*
X2820000Y216250D01*
X2863750Y546250D02*
X2863124Y546900D01*
X2819626Y217240D02*
X2820000Y216250D01*
X2635000Y90000D02*
X2635000Y65000D01*
X2738750Y201250D02*
X2743750Y201250D01*
X2746250Y198750D01*
X2817500Y198750D01*
X2822500Y203750D01*
X2635000Y65000D02*
X2634600Y64600D01*
D25*
X2855000Y243750D03*
X2822500Y203750D03*
X2635000Y90000D03*
X2738750Y201250D03*
D11*
X2633800Y25400D02*
X2591800Y25400D01*
X2633800Y25400D02*
X2639200Y20000D01*
X2863750Y540000D02*
X2867500Y540000D01*
X2871250Y536250D01*
X2871250Y268750D01*
X2865000Y262500D01*
X2865000Y243750D02*
X2865000Y235000D01*
X2873750Y226250D01*
X2873750Y197500D01*
X2805000Y128750D02*
X2688750Y12500D01*
X2805000Y128750D02*
X2873750Y197500D01*
X2688750Y12500D02*
X2646250Y12500D01*
X2638750Y20000D01*
X2863750Y540000D02*
X2863124Y540400D01*
X2639200Y20000D02*
X2638750Y20000D01*
X2812500Y210000D02*
X2812500Y216250D01*
X2812500Y210000D02*
X2805000Y202500D01*
X2751250Y202500D01*
X2748750Y205000D01*
X2748750Y185000D02*
X2805000Y128750D01*
X2812500Y216250D02*
X2813126Y217240D01*
D25*
X2865000Y262500D03*
X2865000Y243750D03*
X2748750Y205000D03*
X2748750Y185000D03*
D11*
X2633800Y105400D02*
X2591800Y105400D01*
X2633800Y105400D02*
X2639200Y100000D01*
X2863750Y552500D02*
X2868750Y552500D01*
X2878750Y542500D01*
X2878750Y193750D01*
X2762500Y77500D01*
X2645000Y90000D02*
X2645000Y93750D01*
X2645000Y90000D02*
X2645000Y77500D01*
X2645000Y93750D02*
X2638750Y100000D01*
X2863750Y552500D02*
X2863124Y553400D01*
X2639200Y100000D02*
X2638750Y100000D01*
X2825000Y217500D02*
X2825000Y225000D01*
X2818750Y231250D01*
X2756250Y231250D01*
X2750000Y225000D01*
X2750000Y217500D01*
X2755000Y212500D01*
X2825000Y217500D02*
X2826126Y217240D01*
D25*
X2762500Y77500D03*
X2645000Y77500D03*
X2755000Y212500D03*
X2645000Y90000D03*
D11*
X2633800Y145400D02*
X2591800Y145400D01*
X2633800Y145400D02*
X2634600Y144600D01*
X2639200Y140000D01*
X2863750Y560000D02*
X2867500Y560000D01*
X2871250Y563750D01*
X2871250Y573750D01*
X2832500Y216250D02*
X2832500Y203750D01*
X2863124Y559900D02*
X2863750Y560000D01*
X2832626Y217240D02*
X2832500Y216250D01*
X2635000Y166250D02*
X2635000Y145000D01*
X2635000Y166250D02*
X2638750Y170000D01*
X2635000Y145000D02*
X2634600Y144600D01*
D25*
X2871250Y573750D03*
X2832500Y203750D03*
X2638750Y170000D03*
D11*
X2633800Y185400D02*
X2591800Y185400D01*
X2633800Y185400D02*
X2634600Y184600D01*
X2639200Y180000D01*
X2862500Y567500D02*
X2862500Y572500D01*
X2861250Y573750D01*
X2832500Y230000D02*
X2838750Y223750D01*
X2838750Y217500D01*
X2863124Y566400D02*
X2862500Y567500D01*
X2838750Y217500D02*
X2839126Y217240D01*
X2635000Y210000D02*
X2635000Y185000D01*
X2634600Y184600D01*
D25*
X2861250Y573750D03*
X2832500Y230000D03*
X2635000Y210000D03*
D11*
X2628750Y225400D02*
X2591800Y225400D01*
X2628750Y225400D02*
X2633800Y225400D01*
X2639200Y220000D01*
X2853750Y576250D02*
X2853750Y588750D01*
X2835000Y607500D01*
X2675000Y607500D01*
X2657500Y590000D01*
X2628750Y250000D02*
X2628750Y225400D01*
X2854124Y575400D02*
X2853750Y576250D01*
X2628750Y225400D02*
X2628750Y225000D01*
X2845000Y216250D02*
X2845000Y207500D01*
X2832500Y195000D01*
X2663750Y195000D01*
X2638750Y220000D01*
X2845000Y216250D02*
X2845626Y217240D01*
X2639200Y220000D02*
X2638750Y220000D01*
D25*
X2657500Y590000D03*
X2628750Y250000D03*
D11*
X2633800Y265400D02*
X2591800Y265400D01*
X2633800Y265400D02*
X2639200Y260000D01*
X2847500Y576250D02*
X2847500Y586250D01*
X2852500Y216250D02*
X2852500Y203750D01*
X2847624Y575400D02*
X2847500Y576250D01*
X2852126Y217240D02*
X2852500Y216250D01*
X2640000Y248750D02*
X2640000Y260000D01*
X2640000Y248750D02*
X2645000Y243750D01*
X2640000Y260000D02*
X2639200Y260000D01*
D25*
X2847500Y586250D03*
X2852500Y203750D03*
X2645000Y243750D03*
D11*
X2633800Y305400D02*
X2591800Y305400D01*
X2633800Y305400D02*
X2639200Y300000D01*
X2840000Y576250D02*
X2840000Y581250D01*
X2820000Y601250D01*
X2677500Y601250D01*
X2610000Y323750D02*
X2610000Y305000D01*
X2840000Y576250D02*
X2841124Y575400D01*
X2610000Y305000D02*
X2591800Y305400D01*
X2858750Y216250D02*
X2858750Y198750D01*
X2860000Y197500D01*
X2662500Y240000D02*
X2662500Y276250D01*
X2638750Y300000D01*
X2858626Y217240D02*
X2858750Y216250D01*
X2639200Y300000D02*
X2638750Y300000D01*
D25*
X2677500Y601250D03*
X2610000Y323750D03*
X2860000Y197500D03*
X2662500Y240000D03*
D11*
X2633800Y345400D02*
X2591800Y345400D01*
X2633800Y345400D02*
X2639200Y340000D01*
X2833750Y576250D02*
X2833750Y581250D01*
X2820000Y595000D01*
X2685000Y595000D01*
X2616250Y363750D02*
X2616250Y345000D01*
X2834624Y575400D02*
X2833750Y576250D01*
X2616250Y345000D02*
X2591800Y345400D01*
X2857500Y290000D02*
X2857500Y283750D01*
X2845000Y271250D01*
X2782500Y271250D01*
X2645000Y330000D02*
X2645000Y333750D01*
X2638750Y340000D01*
X2857500Y290000D02*
X2858626Y290360D01*
X2639200Y340000D02*
X2638750Y340000D01*
D25*
X2685000Y595000D03*
X2616250Y363750D03*
X2782500Y271250D03*
X2645000Y330000D03*
D11*
X2622500Y385400D02*
X2591800Y385400D01*
X2622500Y385400D02*
X2633800Y385400D01*
X2639200Y380000D01*
X2827500Y576250D02*
X2827500Y580000D01*
X2816250Y591250D01*
X2690000Y591250D01*
X2683750Y585000D01*
X2667500Y585000D01*
X2622500Y401250D02*
X2622500Y385400D01*
X2828124Y575400D02*
X2827500Y576250D01*
X2622500Y385400D02*
X2622500Y385000D01*
X2851250Y300000D02*
X2851250Y291250D01*
X2851250Y300000D02*
X2830000Y321250D01*
X2793750Y357500D02*
X2657500Y357500D01*
X2645000Y370000D02*
X2645000Y373750D01*
X2638750Y380000D01*
X2851250Y291250D02*
X2852126Y290360D01*
X2639200Y380000D02*
X2638750Y380000D01*
D25*
X2667500Y585000D03*
X2622500Y401250D03*
X2830000Y321250D03*
X2793750Y357500D03*
X2657500Y357500D03*
X2645000Y370000D03*
D11*
X2633800Y425400D02*
X2591800Y425400D01*
X2633800Y425400D02*
X2639200Y420000D01*
X2821250Y576250D02*
X2821250Y580000D01*
X2816250Y585000D01*
X2810000Y585000D01*
X2820000Y277500D02*
X2838750Y277500D01*
X2845000Y283750D01*
X2845000Y290000D01*
X2821624Y575400D02*
X2821250Y576250D01*
X2845626Y290360D02*
X2845000Y290000D01*
X2640000Y415000D02*
X2640000Y420000D01*
X2640000Y415000D02*
X2645000Y410000D01*
X2640000Y420000D02*
X2639200Y420000D01*
D25*
X2810000Y585000D03*
X2820000Y277500D03*
X2645000Y410000D03*
D11*
X2633800Y465400D02*
X2591800Y465400D01*
X2633800Y465400D02*
X2639200Y460000D01*
X2807500Y575000D02*
X2815000Y575000D01*
X2838750Y303750D02*
X2838750Y291250D01*
X2815000Y575000D02*
X2815124Y575400D01*
X2838750Y291250D02*
X2839126Y290360D01*
X2645000Y470000D02*
X2637500Y462500D01*
X2639200Y460000D01*
D25*
X2807500Y575000D03*
X2838750Y303750D03*
X2645000Y470000D03*
D11*
X2633800Y505400D02*
X2591800Y505400D01*
X2633800Y505400D02*
X2634600Y504600D01*
X2639200Y500000D01*
X2683750Y566250D02*
X2805000Y566250D01*
X2638750Y526250D02*
X2638750Y508750D01*
X2634600Y504600D01*
X2805000Y566250D02*
X2806124Y566400D01*
X2832500Y310000D02*
X2832500Y291250D01*
X2832500Y310000D02*
X2823750Y318750D01*
X2823750Y346250D01*
X2825000Y347500D01*
X2832500Y291250D02*
X2832626Y290360D01*
D25*
X2683750Y566250D03*
X2638750Y526250D03*
X2825000Y347500D03*
D11*
X2633800Y545400D02*
X2591800Y545400D01*
X2633800Y545400D02*
X2639200Y540000D01*
X2668750Y560000D02*
X2805000Y560000D01*
X2645000Y550000D02*
X2637500Y542500D01*
X2805000Y560000D02*
X2806124Y559900D01*
X2639200Y540000D02*
X2637500Y542500D01*
X2825000Y303750D02*
X2825000Y291250D01*
X2661250Y463750D02*
X2661250Y547500D01*
X2657500Y551250D01*
X2825000Y291250D02*
X2826126Y290360D01*
D25*
X2668750Y560000D03*
X2645000Y550000D03*
X2825000Y303750D03*
X2661250Y463750D03*
X2657500Y551250D03*
D11*
X2633800Y585400D02*
X2591800Y585400D01*
X2633800Y585400D02*
X2639200Y580000D01*
X2666250Y553750D02*
X2795000Y553750D01*
X2805000Y553750D01*
X2666250Y553750D02*
X2657500Y562500D01*
X2645000Y570000D02*
X2645000Y573750D01*
X2638750Y580000D01*
X2805000Y553750D02*
X2806124Y553400D01*
X2639200Y580000D02*
X2638750Y580000D01*
X2818750Y363750D02*
X2818750Y291250D01*
X2819626Y290360D01*
D25*
X2657500Y562500D03*
X2645000Y570000D03*
X2818750Y363750D03*
X2795000Y553750D03*
D11*
X2633800Y625400D02*
X2591800Y625400D01*
X2633800Y625400D02*
X2639200Y620000D01*
X2713750Y547500D02*
X2805000Y547500D01*
X2645000Y610000D02*
X2645000Y613750D01*
X2638750Y620000D01*
X2805000Y547500D02*
X2806124Y546900D01*
X2639200Y620000D02*
X2638750Y620000D01*
X2812500Y330000D02*
X2812500Y291250D01*
X2813126Y290360D01*
D25*
X2713750Y547500D03*
X2645000Y610000D03*
X2812500Y330000D03*
D11*
X2633800Y665400D02*
X2591800Y665400D01*
X2633800Y665400D02*
X2639200Y660000D01*
X2863750Y1083750D02*
X2867500Y1083750D01*
X2875000Y1076250D01*
X2875000Y888750D01*
X2862500Y876250D01*
X2846250Y761250D02*
X2842500Y761250D01*
X2838750Y757500D01*
X2806250Y757500D01*
X2788750Y775000D01*
X2788750Y781250D01*
X2792500Y785000D01*
X2792500Y791250D01*
X2863750Y1083750D02*
X2863124Y1084200D01*
X2793126Y792240D02*
X2792500Y791250D01*
X2645000Y670000D02*
X2637500Y662500D01*
X2681250Y670000D02*
X2681250Y673750D01*
X2782500Y775000D01*
X2788750Y775000D01*
X2637500Y662500D02*
X2639200Y660000D01*
D25*
X2862500Y876250D03*
X2846250Y761250D03*
X2645000Y670000D03*
X2681250Y670000D03*
D11*
X2626250Y705400D02*
X2591800Y705400D01*
X2626250Y705400D02*
X2633800Y705400D01*
X2639200Y700000D01*
X2863750Y1091250D02*
X2876250Y1091250D01*
X2880000Y1095000D01*
X2880000Y1112500D01*
X2838750Y1153750D01*
X2790000Y1153750D01*
X2658750Y1022500D01*
X2658750Y948750D01*
X2626250Y727500D02*
X2626250Y705400D01*
X2863124Y1090700D02*
X2863750Y1091250D01*
X2626250Y705400D02*
X2626250Y705000D01*
X2798750Y782500D02*
X2798750Y791250D01*
X2798750Y782500D02*
X2795000Y778750D01*
X2798750Y791250D02*
X2799626Y792240D01*
D25*
X2658750Y948750D03*
X2626250Y727500D03*
X2795000Y778750D03*
D11*
X2633800Y745400D02*
X2591800Y745400D01*
X2633800Y745400D02*
X2639200Y740000D01*
X2863750Y1097500D02*
X2873750Y1097500D01*
X2827500Y773750D02*
X2818750Y773750D01*
X2811250Y781250D02*
X2806250Y786250D01*
X2811250Y781250D02*
X2818750Y773750D01*
X2806250Y786250D02*
X2806250Y791250D01*
X2863124Y1097200D02*
X2863750Y1097500D01*
X2806126Y792240D02*
X2806250Y791250D01*
X2645000Y750000D02*
X2637500Y742500D01*
X2801250Y771250D02*
X2811250Y781250D01*
X2639200Y740000D02*
X2637500Y742500D01*
D25*
X2873750Y1097500D03*
X2827500Y773750D03*
X2645000Y750000D03*
X2801250Y771250D03*
D11*
X2633800Y785400D02*
X2591800Y785400D01*
X2633800Y785400D02*
X2639200Y780000D01*
X2863750Y1103750D02*
X2870000Y1103750D01*
X2873750Y1107500D01*
X2835000Y775000D02*
X2835000Y767500D01*
X2835000Y775000D02*
X2827500Y782500D01*
X2816250Y782500D01*
X2813750Y785000D01*
X2813750Y791250D01*
X2863124Y1103700D02*
X2863750Y1103750D01*
X2812626Y792240D02*
X2813750Y791250D01*
X2645000Y790000D02*
X2637500Y782500D01*
X2758750Y790000D02*
X2771250Y802500D01*
X2808750Y802500D01*
X2812500Y798750D01*
X2812500Y792500D01*
X2639200Y780000D02*
X2637500Y782500D01*
X2812500Y792500D02*
X2812626Y792240D01*
D25*
X2873750Y1107500D03*
X2835000Y767500D03*
X2645000Y790000D03*
X2758750Y790000D03*
D11*
X2633800Y825400D02*
X2591800Y825400D01*
X2633800Y825400D02*
X2639200Y820000D01*
X2862500Y1111250D02*
X2862500Y1117500D01*
X2855000Y912500D02*
X2855000Y857500D01*
X2831250Y833750D01*
X2808750Y833750D01*
X2805000Y830000D01*
X2805000Y815000D02*
X2805000Y812500D01*
X2805000Y815000D02*
X2805000Y830000D01*
X2805000Y812500D02*
X2818750Y798750D01*
X2818750Y792500D01*
X2863124Y1110200D02*
X2862500Y1111250D01*
X2818750Y792500D02*
X2819126Y792240D01*
X2645000Y827500D02*
X2638750Y821250D01*
X2645000Y827500D02*
X2673750Y827500D01*
X2686250Y815000D01*
X2805000Y815000D01*
X2639200Y820000D02*
X2638750Y821250D01*
D25*
X2862500Y1117500D03*
X2855000Y912500D03*
D11*
X2633800Y865400D02*
X2591800Y865400D01*
X2633800Y865400D02*
X2639200Y860000D01*
X2853750Y1120000D02*
X2853750Y1130000D01*
X2827500Y800000D02*
X2826250Y798750D01*
X2827500Y800000D02*
X2832500Y805000D01*
X2826250Y798750D02*
X2826250Y792500D01*
X2854124Y1119200D02*
X2853750Y1120000D01*
X2826250Y792500D02*
X2825626Y792240D01*
X2640000Y857500D02*
X2640000Y860000D01*
X2640000Y857500D02*
X2660000Y837500D01*
X2811250Y816250D02*
X2827500Y800000D01*
X2640000Y860000D02*
X2639200Y860000D01*
D25*
X2853750Y1130000D03*
X2832500Y805000D03*
X2660000Y837500D03*
X2811250Y816250D03*
D11*
X2633800Y905400D02*
X2591800Y905400D01*
X2633800Y905400D02*
X2634600Y904600D01*
X2639200Y900000D01*
X2847500Y1120000D02*
X2847500Y1123750D01*
X2821250Y1150000D01*
X2791250Y1150000D01*
X2665000Y1023750D01*
X2665000Y935000D01*
X2640000Y910000D02*
X2634600Y904600D01*
X2847624Y1119200D02*
X2847500Y1120000D01*
X2832500Y791250D02*
X2832500Y782500D01*
X2841250Y773750D01*
X2841250Y765000D01*
X2837500Y761250D01*
X2821250Y761250D01*
X2811250Y771250D01*
X2832500Y791250D02*
X2832126Y792240D01*
D25*
X2665000Y935000D03*
X2640000Y910000D03*
X2811250Y771250D03*
D11*
X2633800Y945400D02*
X2591800Y945400D01*
X2633800Y945400D02*
X2639200Y940000D01*
X2840000Y1120000D02*
X2840000Y1125000D01*
X2818750Y1146250D01*
X2792500Y1146250D01*
X2671250Y1025000D01*
X2671250Y970000D01*
X2645000Y950000D02*
X2637500Y942500D01*
X2840000Y1120000D02*
X2841124Y1119200D01*
X2637500Y942500D02*
X2639200Y940000D01*
X2838750Y798750D02*
X2838750Y792500D01*
X2838750Y798750D02*
X2842500Y802500D01*
X2847500Y802500D01*
X2852500Y797500D01*
X2852500Y758750D01*
X2807500Y713750D01*
X2730000Y713750D01*
X2838626Y792240D02*
X2838750Y792500D01*
D25*
X2671250Y970000D03*
X2645000Y950000D03*
X2730000Y713750D03*
D11*
X2633800Y985400D02*
X2591800Y985400D01*
X2633800Y985400D02*
X2639200Y980000D01*
X2833750Y1120000D02*
X2833750Y1125000D01*
X2816250Y1142500D01*
X2793750Y1142500D01*
X2677500Y1026250D01*
X2677500Y977500D01*
X2645000Y990000D02*
X2637500Y982500D01*
X2833750Y1120000D02*
X2834624Y1119200D01*
X2637500Y982500D02*
X2639200Y980000D01*
X2837500Y865000D02*
X2837500Y858750D01*
X2825000Y846250D01*
X2800000Y846250D01*
X2700000Y977500D02*
X2677500Y977500D01*
X2837500Y865000D02*
X2838626Y865360D01*
D25*
X2677500Y977500D03*
X2645000Y990000D03*
X2800000Y846250D03*
X2700000Y977500D03*
D11*
X2630000Y1025400D02*
X2591800Y1025400D01*
X2630000Y1025400D02*
X2633800Y1025400D01*
X2639200Y1020000D01*
X2827500Y1120000D02*
X2827500Y1126250D01*
X2817500Y1136250D01*
X2796250Y1136250D01*
X2630000Y1027500D02*
X2630000Y1025400D01*
X2827500Y1120000D02*
X2828124Y1119200D01*
X2630000Y1025400D02*
X2630000Y1025000D01*
X2832500Y871250D02*
X2832500Y866250D01*
X2832500Y871250D02*
X2836250Y875000D01*
X2847500Y875000D01*
X2850000Y872500D01*
X2850000Y857500D01*
X2832500Y840000D01*
X2792500Y840000D01*
X2645000Y1003750D02*
X2645000Y1013750D01*
X2638750Y1020000D01*
X2832500Y866250D02*
X2832126Y865360D01*
X2639200Y1020000D02*
X2638750Y1020000D01*
D25*
X2796250Y1136250D03*
X2630000Y1027500D03*
X2792500Y840000D03*
X2645000Y1003750D03*
D11*
X2633800Y1065400D02*
X2591800Y1065400D01*
X2633800Y1065400D02*
X2639200Y1060000D01*
X2821250Y1120000D02*
X2821250Y1123750D01*
X2815000Y1130000D01*
X2705000Y1130000D02*
X2657500Y1082500D01*
X2645000Y1070000D02*
X2637500Y1062500D01*
X2821250Y1120000D02*
X2821624Y1119200D01*
X2639200Y1060000D02*
X2637500Y1062500D01*
X2825000Y865000D02*
X2825000Y858750D01*
X2818750Y852500D01*
X2807500Y852500D01*
X2825000Y865000D02*
X2825626Y865360D01*
D25*
X2815000Y1130000D03*
X2705000Y1130000D03*
X2657500Y1082500D03*
X2645000Y1070000D03*
X2807500Y852500D03*
D11*
X2633800Y1105400D02*
X2591800Y1105400D01*
X2633800Y1105400D02*
X2639200Y1100000D01*
X2778750Y1118750D02*
X2815000Y1118750D01*
X2778750Y1118750D02*
X2770000Y1110000D01*
X2645000Y1110000D02*
X2637500Y1102500D01*
X2815000Y1118750D02*
X2815124Y1119200D01*
X2639200Y1100000D02*
X2637500Y1102500D01*
X2818750Y890000D02*
X2818750Y866250D01*
X2818750Y890000D02*
X2803750Y905000D01*
X2787500Y1093750D02*
X2771250Y1110000D01*
X2770000Y1110000D01*
X2818750Y866250D02*
X2819126Y865360D01*
D25*
X2770000Y1110000D03*
X2645000Y1110000D03*
X2803750Y905000D03*
X2787500Y1093750D03*
D11*
X2633800Y1145400D02*
X2591800Y1145400D01*
X2633800Y1145400D02*
X2639200Y1140000D01*
X2792500Y1111250D02*
X2805000Y1111250D01*
X2645000Y1130000D02*
X2645000Y1133750D01*
X2638750Y1140000D01*
X2805000Y1111250D02*
X2806124Y1110200D01*
X2639200Y1140000D02*
X2638750Y1140000D01*
X2812500Y887500D02*
X2812500Y866250D01*
X2812500Y887500D02*
X2807500Y892500D01*
X2812500Y866250D02*
X2812626Y865360D01*
D25*
X2792500Y1111250D03*
X2645000Y1130000D03*
X2807500Y892500D03*
D11*
X2633800Y1185400D02*
X2591800Y1185400D01*
X2633800Y1185400D02*
X2639200Y1180000D01*
X2786250Y1103750D02*
X2805000Y1103750D01*
X2640000Y1150000D02*
X2640000Y1180000D01*
X2805000Y1103750D02*
X2806124Y1103700D01*
X2640000Y1180000D02*
X2639200Y1180000D01*
X2805000Y882500D02*
X2805000Y866250D01*
X2806126Y865360D01*
D25*
X2786250Y1103750D03*
X2640000Y1150000D03*
X2805000Y882500D03*
D11*
X2633800Y1225400D02*
X2591800Y1225400D01*
X2633800Y1225400D02*
X2639200Y1220000D01*
X2801250Y1096250D02*
X2805000Y1096250D01*
X2801250Y1096250D02*
X2781250Y1076250D01*
X2781250Y917500D01*
X2787500Y911250D01*
X2797500Y895000D02*
X2797500Y867500D01*
X2798750Y866250D01*
X2805000Y1096250D02*
X2806124Y1097200D01*
X2798750Y866250D02*
X2799626Y865360D01*
X2638750Y1190000D02*
X2638750Y1220000D01*
X2768750Y1088750D02*
X2781250Y1076250D01*
X2639200Y1220000D02*
X2638750Y1220000D01*
D25*
X2787500Y911250D03*
X2797500Y895000D03*
X2638750Y1190000D03*
X2768750Y1088750D03*
D11*
X2633800Y1265400D02*
X2591800Y1265400D01*
X2633800Y1265400D02*
X2639200Y1260000D01*
X2801250Y1090000D02*
X2805000Y1090000D01*
X2801250Y1090000D02*
X2785000Y1073750D01*
X2785000Y922500D01*
X2793750Y913750D01*
X2793750Y908750D01*
X2777500Y892500D01*
X2772500Y892500D01*
X2786250Y878750D02*
X2792500Y872500D01*
X2792500Y866250D01*
X2805000Y1090000D02*
X2806124Y1090700D01*
X2792500Y866250D02*
X2793126Y865360D01*
X2638750Y1230000D02*
X2638750Y1260000D01*
X2639200Y1260000D01*
D25*
X2772500Y892500D03*
X2786250Y878750D03*
X2638750Y1230000D03*
D11*
X2633800Y1305400D02*
X2591800Y1305400D01*
X2633800Y1305400D02*
X2639200Y1300000D01*
X2843750Y2098750D02*
X2852500Y2098750D01*
X2853750Y2100000D01*
X2843750Y1863750D02*
X2837500Y1863750D01*
X2788750Y1815000D01*
X2788750Y1807500D01*
X2843124Y2098000D02*
X2843750Y2098750D01*
X2788750Y1807500D02*
X2788126Y1807240D01*
X2600000Y1326250D02*
X2600000Y1305000D01*
X2776250Y1791250D02*
X2778750Y1791250D01*
X2787500Y1800000D01*
X2787500Y1806250D01*
X2600000Y1305000D02*
X2591800Y1305400D01*
X2787500Y1806250D02*
X2788126Y1807240D01*
D25*
X2853750Y2100000D03*
X2843750Y1863750D03*
X2600000Y1326250D03*
X2776250Y1791250D03*
D11*
X2633800Y1345400D02*
X2591800Y1345400D01*
X2633800Y1345400D02*
X2639200Y1340000D01*
X2843750Y2105000D02*
X2850000Y2105000D01*
X2851250Y2106250D01*
X2856250Y2106250D01*
X2860000Y2102500D01*
X2860000Y2085000D01*
X2857500Y2082500D01*
X2856250Y1858750D02*
X2853750Y1858750D01*
X2821250Y1826250D01*
X2805000Y1826250D01*
X2795000Y1816250D01*
X2795000Y1807500D01*
X2843124Y2104500D02*
X2843750Y2105000D01*
X2795000Y1807500D02*
X2794626Y1807240D01*
X2606250Y1366250D02*
X2606250Y1345000D01*
X2758750Y1785000D02*
X2778750Y1785000D01*
X2793750Y1800000D01*
X2793750Y1806250D01*
X2606250Y1345000D02*
X2591800Y1345400D01*
X2793750Y1806250D02*
X2794626Y1807240D01*
D25*
X2857500Y2082500D03*
X2856250Y1858750D03*
X2606250Y1366250D03*
X2758750Y1785000D03*
D11*
X2633800Y1385400D02*
X2591800Y1385400D01*
X2633800Y1385400D02*
X2634600Y1384600D01*
X2639200Y1380000D01*
X2843750Y2111250D02*
X2847500Y2111250D01*
X2857500Y2121250D01*
X2857500Y2142500D01*
X2836250Y2163750D01*
X2783750Y2163750D01*
X2753750Y2133750D01*
X2753750Y2068750D01*
X2715000Y2030000D02*
X2715000Y1736250D01*
X2718750Y1732500D01*
X2732500Y1732500D01*
X2800000Y1800000D01*
X2800000Y1806250D01*
X2843124Y2111000D02*
X2843750Y2111250D01*
X2801126Y1807240D02*
X2800000Y1806250D01*
X2635000Y1410000D02*
X2635000Y1385000D01*
X2718750Y1493750D02*
X2718750Y1732500D01*
X2635000Y1385000D02*
X2634600Y1384600D01*
D25*
X2753750Y2068750D03*
X2715000Y2030000D03*
X2635000Y1410000D03*
X2718750Y1493750D03*
D11*
X2633800Y1425400D02*
X2591800Y1425400D01*
X2633800Y1425400D02*
X2634600Y1424600D01*
X2639200Y1420000D01*
X2843124Y2117500D02*
X2847500Y2117500D01*
X2851250Y2121250D01*
X2851250Y2140000D01*
X2867500Y1793750D02*
X2835000Y1761250D01*
X2788750Y1761250D01*
X2785000Y1765000D01*
X2785000Y1778750D01*
X2807500Y1801250D01*
X2807500Y1806250D01*
X2807626Y1807240D01*
X2635000Y1450000D02*
X2635000Y1425000D01*
X2788750Y1603750D02*
X2788750Y1761250D01*
X2635000Y1425000D02*
X2634600Y1424600D01*
D25*
X2851250Y2140000D03*
X2867500Y1793750D03*
X2635000Y1450000D03*
X2788750Y1603750D03*
D11*
X2625000Y1465400D02*
X2591800Y1465400D01*
X2625000Y1465400D02*
X2633800Y1465400D01*
X2639200Y1460000D01*
X2843750Y2125000D02*
X2847500Y2128750D01*
X2847500Y2135000D01*
X2825000Y2157500D01*
X2786250Y2157500D01*
X2747500Y2121250D02*
X2747500Y2066250D01*
X2765000Y2048750D01*
X2765000Y1916250D01*
X2737500Y1888750D01*
X2737500Y1861250D01*
X2732500Y1856250D01*
X2732500Y1838750D01*
X2741250Y1830000D01*
X2793750Y1830000D01*
X2807500Y1820000D02*
X2813750Y1813750D01*
X2813750Y1807500D01*
X2843124Y2124000D02*
X2843750Y2125000D01*
X2813750Y1807500D02*
X2814126Y1807240D01*
X2625000Y1498750D02*
X2625000Y1465400D01*
X2625000Y1465000D01*
D25*
X2786250Y2157500D03*
X2747500Y2121250D03*
X2793750Y1830000D03*
X2807500Y1820000D03*
X2625000Y1498750D03*
D11*
X2631250Y1505400D02*
X2591800Y1505400D01*
X2631250Y1505400D02*
X2633800Y1505400D01*
X2639200Y1500000D01*
X2835000Y2132500D02*
X2841250Y2132500D01*
X2843750Y1826250D02*
X2833750Y1826250D01*
X2821250Y1813750D01*
X2821250Y1807500D01*
X2835000Y2132500D02*
X2834124Y2133000D01*
X2821250Y1807500D02*
X2820626Y1807240D01*
X2631250Y1531250D02*
X2631250Y1505400D01*
X2817500Y1785000D02*
X2817500Y1797500D01*
X2820000Y1800000D01*
X2820000Y1806250D01*
X2631250Y1505400D02*
X2631250Y1505000D01*
X2820000Y1806250D02*
X2820626Y1807240D01*
D25*
X2841250Y2132500D03*
X2843750Y1826250D03*
X2631250Y1531250D03*
X2817500Y1785000D03*
D11*
X2633800Y1545400D02*
X2591800Y1545400D01*
X2633800Y1545400D02*
X2634600Y1544600D01*
X2639200Y1540000D01*
X2828750Y2133750D02*
X2828750Y2143750D01*
X2851250Y1885000D02*
X2851250Y1880000D01*
X2853750Y1877500D01*
X2853750Y1865000D01*
X2826250Y1837500D01*
X2823750Y1837500D01*
X2823750Y1797500D02*
X2823750Y1793750D01*
X2823750Y1797500D02*
X2826250Y1800000D01*
X2826250Y1806250D01*
X2827624Y2133000D02*
X2828750Y2133750D01*
X2827126Y1807240D02*
X2826250Y1806250D01*
X2635000Y1570000D02*
X2635000Y1545000D01*
X2634600Y1544600D01*
D25*
X2828750Y2143750D03*
X2851250Y1885000D03*
X2823750Y1837500D03*
X2823750Y1793750D03*
X2635000Y1570000D03*
D11*
X2633800Y1585400D02*
X2591800Y1585400D01*
X2633800Y1585400D02*
X2634600Y1584600D01*
X2639200Y1580000D01*
X2821250Y2133750D02*
X2821250Y2151250D01*
X2840000Y1795000D02*
X2845000Y1795000D01*
X2840000Y1795000D02*
X2833750Y1801250D01*
X2833750Y1806250D01*
X2821124Y2133000D02*
X2821250Y2133750D01*
X2833626Y1807240D02*
X2833750Y1806250D01*
X2645000Y1595000D02*
X2634600Y1584600D01*
X2823750Y1773750D02*
X2823750Y1778750D01*
X2840000Y1795000D01*
D25*
X2821250Y2151250D03*
X2845000Y1795000D03*
X2645000Y1595000D03*
X2823750Y1773750D03*
D11*
X2633800Y1625400D02*
X2591800Y1625400D01*
X2633800Y1625400D02*
X2639200Y1620000D01*
X2815000Y2133750D02*
X2815000Y2143750D01*
X2847500Y1875000D02*
X2842500Y1870000D01*
X2837500Y1870000D01*
X2833750Y1873750D01*
X2833750Y1880000D01*
X2814624Y2133000D02*
X2815000Y2133750D01*
X2833626Y1880360D02*
X2833750Y1880000D01*
X2645000Y1630000D02*
X2637500Y1622500D01*
X2791250Y1767500D02*
X2836250Y1767500D01*
X2861250Y1792500D01*
X2861250Y1826250D01*
X2637500Y1622500D02*
X2639200Y1620000D01*
D25*
X2815000Y2143750D03*
X2847500Y1875000D03*
X2645000Y1630000D03*
X2791250Y1767500D03*
X2861250Y1826250D03*
D11*
X2633800Y1665400D02*
X2591800Y1665400D01*
X2633800Y1665400D02*
X2634600Y1664600D01*
X2639200Y1660000D01*
X2807500Y2133750D02*
X2807500Y2137500D01*
X2798750Y2146250D01*
X2778750Y2146250D01*
X2760000Y2127500D01*
X2760000Y2058750D01*
X2768750Y2050000D01*
X2768750Y1915000D01*
X2761250Y1907500D01*
X2761250Y1875000D01*
X2812500Y1860000D02*
X2812500Y1857500D01*
X2812500Y1860000D02*
X2826250Y1873750D01*
X2826250Y1880000D01*
X2808124Y2133000D02*
X2807500Y2133750D01*
X2827126Y1880360D02*
X2826250Y1880000D01*
X2635000Y1677500D02*
X2635000Y1665000D01*
X2692500Y1735000D02*
X2692500Y1783750D01*
X2635000Y1665000D02*
X2634600Y1664600D01*
D25*
X2761250Y1875000D03*
X2812500Y1857500D03*
X2635000Y1677500D03*
X2692500Y1735000D03*
X2692500Y1783750D03*
D11*
X2625000Y1705400D02*
X2591800Y1705400D01*
X2625000Y1705400D02*
X2633800Y1705400D01*
X2639200Y1700000D01*
X2801250Y2133750D02*
X2801250Y2137500D01*
X2797500Y2141250D01*
X2782500Y2141250D01*
X2781250Y2140000D01*
X2801250Y2133750D02*
X2801624Y2133000D01*
X2625000Y1705400D02*
X2625000Y1705000D01*
X2820000Y1873750D02*
X2820000Y1880000D01*
X2820000Y1873750D02*
X2793750Y1847500D01*
X2820000Y1880000D02*
X2820626Y1880360D01*
D25*
X2781250Y2140000D03*
X2625000Y1705000D03*
X2793750Y1847500D03*
D11*
X2631250Y1745400D02*
X2591800Y1745400D01*
X2631250Y1745400D02*
X2633800Y1745400D01*
X2639200Y1740000D01*
X2787500Y2132500D02*
X2795000Y2132500D01*
X2813750Y1893750D02*
X2813750Y1881250D01*
X2795000Y2132500D02*
X2795124Y2133000D01*
X2813750Y1881250D02*
X2814126Y1880360D01*
X2631250Y1771250D02*
X2631250Y1745400D01*
X2631250Y1745000D01*
D25*
X2787500Y2132500D03*
X2813750Y1893750D03*
X2631250Y1771250D03*
D11*
X2633800Y1785400D02*
X2591800Y1785400D01*
X2633800Y1785400D02*
X2639200Y1780000D01*
X2782500Y2125000D02*
X2785000Y2125000D01*
X2782500Y2125000D02*
X2775000Y2132500D01*
X2817500Y1900000D02*
X2823750Y1893750D01*
X2817500Y1900000D02*
X2811250Y1900000D01*
X2807500Y1896250D01*
X2807500Y1881250D01*
X2786124Y2124000D02*
X2785000Y2125000D01*
X2807500Y1881250D02*
X2807626Y1880360D01*
X2645000Y1790000D02*
X2637500Y1782500D01*
X2639200Y1780000D01*
D25*
X2775000Y2132500D03*
X2823750Y1893750D03*
X2645000Y1790000D03*
D11*
X2633800Y1825400D02*
X2591800Y1825400D01*
X2633800Y1825400D02*
X2634600Y1824600D01*
X2639200Y1820000D01*
X2778750Y2117500D02*
X2786124Y2117500D01*
X2778750Y2117500D02*
X2763750Y2102500D01*
X2763750Y2060000D01*
X2780000Y2043750D01*
X2780000Y1915000D01*
X2785000Y1910000D01*
X2801250Y1893750D02*
X2801250Y1881250D01*
X2801126Y1880360D01*
X2635000Y1850000D02*
X2635000Y1825000D01*
X2634600Y1824600D01*
D25*
X2785000Y1910000D03*
X2801250Y1893750D03*
X2635000Y1850000D03*
D11*
X2633800Y1865400D02*
X2591800Y1865400D01*
X2633800Y1865400D02*
X2639200Y1860000D01*
X2776250Y2110000D02*
X2785000Y2110000D01*
X2776250Y2110000D02*
X2767500Y2101250D01*
X2767500Y2061250D01*
X2795000Y2033750D01*
X2795000Y1881250D01*
X2785000Y2110000D02*
X2786124Y2111000D01*
X2795000Y1881250D02*
X2794626Y1880360D01*
X2645000Y1870000D02*
X2637500Y1862500D01*
X2795000Y1867500D02*
X2795000Y1880000D01*
X2639200Y1860000D02*
X2637500Y1862500D01*
X2794626Y1880360D02*
X2795000Y1880000D01*
D25*
X2645000Y1870000D03*
X2795000Y1867500D03*
D11*
X2633800Y1905400D02*
X2591800Y1905400D01*
X2633800Y1905400D02*
X2634600Y1904600D01*
X2639200Y1900000D01*
X2778750Y2103750D02*
X2785000Y2103750D01*
X2778750Y2103750D02*
X2773750Y2098750D01*
X2786250Y1931250D02*
X2786250Y1917500D01*
X2791250Y1912500D01*
X2791250Y1890000D01*
X2788750Y1887500D01*
X2788750Y1881250D01*
X2785000Y2103750D02*
X2786124Y2104500D01*
X2788750Y1881250D02*
X2788126Y1880360D01*
X2635000Y1905000D02*
X2635000Y1912500D01*
X2635000Y1905000D02*
X2634600Y1904600D01*
D25*
X2773750Y2098750D03*
X2786250Y1931250D03*
X2635000Y1912500D03*
D11*
X2625000Y1945400D02*
X2591800Y1945400D01*
X2625000Y1945400D02*
X2633800Y1945400D01*
X2639200Y1940000D01*
X2823750Y2592500D02*
X2838750Y2592500D01*
X2852500Y2606250D01*
X2852500Y2621250D01*
X2823750Y2592500D02*
X2823124Y2591800D01*
X2625000Y1945400D02*
X2625000Y1945000D01*
X2812500Y2255000D02*
X2812500Y2261250D01*
X2812500Y2255000D02*
X2810000Y2252500D01*
X2788750Y2252500D01*
X2786250Y2255000D01*
X2812500Y2261250D02*
X2813126Y2262240D01*
D25*
X2852500Y2621250D03*
X2625000Y1945000D03*
X2786250Y2255000D03*
D11*
X2633800Y1985400D02*
X2591800Y1985400D01*
X2633800Y1985400D02*
X2639200Y1980000D01*
X2823750Y2598750D02*
X2840000Y2598750D01*
X2846250Y2605000D01*
X2846250Y2636250D01*
X2606250Y2006250D02*
X2606250Y1985000D01*
X2823124Y2598300D02*
X2823750Y2598750D01*
X2606250Y1985000D02*
X2591800Y1985400D01*
X2818750Y2262500D02*
X2818750Y2275000D01*
X2865000Y2635000D02*
X2852500Y2647500D01*
X2818750Y2262500D02*
X2819626Y2262240D01*
D25*
X2846250Y2636250D03*
X2606250Y2006250D03*
X2818750Y2275000D03*
X2865000Y2635000D03*
X2852500Y2647500D03*
D11*
X2633800Y2025400D02*
X2591800Y2025400D01*
X2633800Y2025400D02*
X2634600Y2024600D01*
X2639200Y2020000D01*
X2823750Y2605000D02*
X2837500Y2605000D01*
X2828750Y2275000D02*
X2828750Y2271250D01*
X2826250Y2268750D01*
X2826250Y2262500D01*
X2823124Y2604800D02*
X2823750Y2605000D01*
X2826250Y2262500D02*
X2826126Y2262240D01*
X2635000Y2050000D02*
X2635000Y2025000D01*
X2791250Y2206250D02*
X2791250Y2208750D01*
X2821250Y2238750D01*
X2635000Y2025000D02*
X2634600Y2024600D01*
D25*
X2837500Y2605000D03*
X2828750Y2275000D03*
X2635000Y2050000D03*
X2791250Y2206250D03*
X2821250Y2238750D03*
D11*
X2633800Y2065400D02*
X2591800Y2065400D01*
X2633800Y2065400D02*
X2634600Y2064600D01*
X2639200Y2060000D01*
X2823750Y2611250D02*
X2836250Y2611250D01*
X2840000Y2615000D01*
X2840000Y2625000D01*
X2840000Y2248750D02*
X2847500Y2248750D01*
X2840000Y2248750D02*
X2833750Y2255000D01*
X2833750Y2261250D01*
X2823750Y2611250D02*
X2823124Y2611300D01*
X2832626Y2262240D02*
X2833750Y2261250D01*
X2635000Y2090000D02*
X2635000Y2065000D01*
X2776250Y2251250D02*
X2781250Y2251250D01*
X2783750Y2248750D01*
X2827500Y2248750D01*
X2833750Y2255000D01*
X2635000Y2065000D02*
X2634600Y2064600D01*
D25*
X2840000Y2625000D03*
X2847500Y2248750D03*
X2635000Y2090000D03*
X2776250Y2251250D03*
D11*
X2623750Y2105400D02*
X2591800Y2105400D01*
X2623750Y2105400D02*
X2633800Y2105400D01*
X2639200Y2100000D01*
X2823750Y2617500D02*
X2833750Y2617500D01*
X2838750Y2275000D02*
X2838750Y2262500D01*
X2823750Y2617500D02*
X2823124Y2617800D01*
X2838750Y2262500D02*
X2839126Y2262240D01*
X2623750Y2138750D02*
X2623750Y2105400D01*
X2623750Y2105000D01*
D25*
X2833750Y2617500D03*
X2838750Y2275000D03*
X2623750Y2138750D03*
D11*
X2633800Y2145400D02*
X2591800Y2145400D01*
X2633800Y2145400D02*
X2639200Y2140000D01*
X2815000Y2627500D02*
X2822500Y2635000D01*
X2822500Y2640000D01*
X2807500Y2655000D01*
X2732500Y2655000D01*
X2611250Y2163750D02*
X2611250Y2145000D01*
X2814124Y2626800D02*
X2815000Y2627500D01*
X2611250Y2145000D02*
X2591800Y2145400D01*
X2845000Y2262500D02*
X2845000Y2277500D01*
X2837500Y2285000D01*
X2781250Y2285000D01*
X2777500Y2288750D01*
X2777500Y2293750D01*
X2781250Y2297500D01*
X2791250Y2297500D01*
X2845000Y2262500D02*
X2845626Y2262240D01*
D25*
X2732500Y2655000D03*
X2611250Y2163750D03*
X2791250Y2297500D03*
D11*
X2633800Y2185400D02*
X2591800Y2185400D01*
X2633800Y2185400D02*
X2634600Y2184600D01*
X2639200Y2180000D01*
X2808750Y2627500D02*
X2808750Y2632500D01*
X2813750Y2637500D01*
X2816250Y2637500D01*
X2852500Y2277500D02*
X2852500Y2262500D01*
X2807624Y2626800D02*
X2808750Y2627500D01*
X2852500Y2262500D02*
X2852126Y2262240D01*
X2635000Y2210000D02*
X2635000Y2185000D01*
X2783750Y2303750D02*
X2826250Y2303750D01*
X2635000Y2185000D02*
X2634600Y2184600D01*
D25*
X2816250Y2637500D03*
X2852500Y2277500D03*
X2635000Y2210000D03*
X2783750Y2303750D03*
X2826250Y2303750D03*
D11*
X2633800Y2225400D02*
X2591800Y2225400D01*
X2633800Y2225400D02*
X2639200Y2220000D01*
X2801250Y2627500D02*
X2801250Y2640000D01*
X2803750Y2642500D01*
X2856250Y2290000D02*
X2856250Y2282500D01*
X2858750Y2280000D01*
X2858750Y2262500D01*
X2801124Y2626800D02*
X2801250Y2627500D01*
X2858750Y2262500D02*
X2858626Y2262240D01*
X2645000Y2230000D02*
X2637500Y2222500D01*
X2783750Y2291250D02*
X2855000Y2291250D01*
X2856250Y2290000D01*
X2639200Y2220000D02*
X2637500Y2222500D01*
D25*
X2803750Y2642500D03*
X2856250Y2290000D03*
X2645000Y2230000D03*
X2783750Y2291250D03*
D11*
X2633800Y2265400D02*
X2591800Y2265400D01*
X2633800Y2265400D02*
X2639200Y2260000D01*
X2795000Y2627500D02*
X2795000Y2637500D01*
X2857500Y2328750D02*
X2851250Y2322500D01*
X2857500Y2328750D02*
X2857500Y2335000D01*
X2794624Y2626800D02*
X2795000Y2627500D01*
X2858626Y2335360D02*
X2857500Y2335000D01*
X2645000Y2270000D02*
X2637500Y2262500D01*
X2777500Y2315000D02*
X2808750Y2315000D01*
X2811250Y2312500D01*
X2639200Y2260000D02*
X2637500Y2262500D01*
D25*
X2795000Y2637500D03*
X2851250Y2322500D03*
X2645000Y2270000D03*
X2777500Y2315000D03*
X2811250Y2312500D03*
D11*
X2630000Y2305400D02*
X2591800Y2305400D01*
X2630000Y2305400D02*
X2633800Y2305400D01*
X2639200Y2300000D01*
X2788750Y2627500D02*
X2788750Y2641250D01*
X2796250Y2648750D01*
X2848750Y2372500D02*
X2848750Y2358750D01*
X2851250Y2356250D01*
X2851250Y2336250D01*
X2788124Y2626800D02*
X2788750Y2627500D01*
X2851250Y2336250D02*
X2852126Y2335360D01*
X2630000Y2332500D02*
X2630000Y2305400D01*
X2757500Y2625000D02*
X2776250Y2643750D01*
X2786250Y2643750D01*
X2788750Y2641250D01*
X2630000Y2305400D02*
X2630000Y2305000D01*
D25*
X2796250Y2648750D03*
X2848750Y2372500D03*
X2630000Y2332500D03*
X2757500Y2625000D03*
D11*
X2618750Y2345400D02*
X2591800Y2345400D01*
X2618750Y2345400D02*
X2633800Y2345400D01*
X2639200Y2340000D01*
X2782500Y2627500D02*
X2782500Y2637500D01*
X2845000Y2353750D02*
X2845000Y2336250D01*
X2781624Y2626800D02*
X2782500Y2627500D01*
X2845000Y2336250D02*
X2845626Y2335360D01*
X2618750Y2345400D02*
X2618750Y2366250D01*
X2618750Y2345400D02*
X2618750Y2345000D01*
D25*
X2782500Y2637500D03*
X2845000Y2353750D03*
X2618750Y2366250D03*
D11*
X2633800Y2385400D02*
X2591800Y2385400D01*
X2633800Y2385400D02*
X2634600Y2384600D01*
X2639200Y2380000D01*
X2767500Y2626250D02*
X2775000Y2626250D01*
X2638750Y2396250D02*
X2638750Y2388750D01*
X2634600Y2384600D01*
X2775000Y2626250D02*
X2775124Y2626800D01*
X2838750Y2351250D02*
X2838750Y2336250D01*
X2838750Y2351250D02*
X2831250Y2358750D01*
X2838750Y2336250D02*
X2839126Y2335360D01*
D25*
X2767500Y2626250D03*
X2638750Y2396250D03*
X2831250Y2358750D03*
D11*
X2628750Y2425400D02*
X2591800Y2425400D01*
X2628750Y2425400D02*
X2633800Y2425400D01*
X2639200Y2420000D01*
X2743750Y2617500D02*
X2765000Y2617500D01*
X2766124Y2617800D01*
X2628750Y2425400D02*
X2628750Y2425000D01*
X2832500Y2348750D02*
X2832500Y2336250D01*
X2811250Y2363750D02*
X2785000Y2390000D01*
X2832500Y2336250D02*
X2832626Y2335360D01*
D25*
X2743750Y2617500D03*
X2628750Y2425000D03*
X2832500Y2348750D03*
X2811250Y2363750D03*
X2785000Y2390000D03*
D11*
X2633800Y2465400D02*
X2591800Y2465400D01*
X2633800Y2465400D02*
X2634600Y2464600D01*
X2639200Y2460000D01*
X2755000Y2611250D02*
X2765000Y2611250D01*
X2635000Y2483750D02*
X2635000Y2465000D01*
X2765000Y2611250D02*
X2766124Y2611300D01*
X2635000Y2465000D02*
X2634600Y2464600D01*
X2825000Y2381250D02*
X2825000Y2336250D01*
X2825000Y2381250D02*
X2791250Y2415000D01*
X2770000Y2415000D01*
X2662500Y2522500D01*
X2652500Y2522500D01*
X2825000Y2336250D02*
X2826126Y2335360D01*
D25*
X2755000Y2611250D03*
X2635000Y2483750D03*
X2652500Y2522500D03*
D11*
X2633800Y2505400D02*
X2591800Y2505400D01*
X2633800Y2505400D02*
X2639200Y2500000D01*
X2747500Y2603750D02*
X2765000Y2603750D01*
X2647500Y2510000D02*
X2638750Y2501250D01*
X2765000Y2603750D02*
X2766124Y2604800D01*
X2638750Y2501250D02*
X2639200Y2500000D01*
X2818750Y2365000D02*
X2818750Y2336250D01*
X2818750Y2365000D02*
X2781250Y2402500D01*
X2770000Y2402500D01*
X2660000Y2512500D01*
X2660000Y2516250D01*
X2818750Y2336250D02*
X2819626Y2335360D01*
D25*
X2747500Y2603750D03*
X2647500Y2510000D03*
X2660000Y2516250D03*
D11*
X2633800Y2545400D02*
X2591800Y2545400D01*
X2633800Y2545400D02*
X2639200Y2540000D01*
X2732500Y2597500D02*
X2765000Y2597500D01*
X2645000Y2550000D02*
X2637500Y2542500D01*
X2765000Y2597500D02*
X2766124Y2598300D01*
X2639200Y2540000D02*
X2637500Y2542500D01*
X2812500Y2353750D02*
X2812500Y2336250D01*
X2812500Y2353750D02*
X2640000Y2526250D01*
X2640000Y2540000D01*
X2812500Y2336250D02*
X2813126Y2335360D01*
X2640000Y2540000D02*
X2639200Y2540000D01*
D25*
X2732500Y2597500D03*
X2645000Y2550000D03*
D11*
X2840000Y1886250D02*
X2840000Y1881250D01*
X2840000Y1886250D02*
X2801250Y1925000D01*
X2645000Y1950000D02*
X2635000Y1950000D01*
X2618750Y1966250D01*
X2725000Y2715000D02*
X2725000Y2725000D01*
X2730000Y2730000D01*
X2840000Y1881250D02*
X2840126Y1880360D01*
D25*
X2801250Y1925000D03*
X2645000Y1950000D03*
X2618750Y1966250D03*
X2725000Y2715000D03*
D11*
X2865000Y298750D02*
X2865000Y291250D01*
X2865000Y298750D02*
X2830000Y333750D01*
X2645000Y518750D02*
X2645000Y528750D01*
X2641250Y532500D01*
X2621250Y532500D01*
X2615000Y526250D01*
X2565000Y526250D01*
X2693750Y2711250D02*
X2748750Y2766250D01*
X2766250Y2766250D01*
X2770000Y2770000D01*
X2865000Y291250D02*
X2865126Y290360D01*
D25*
X2830000Y333750D03*
X2645000Y518750D03*
X2565000Y526250D03*
X2693750Y2711250D03*
D11*
X2816250Y517500D02*
X2816250Y508750D01*
X2817500Y507500D01*
X2815000Y1061250D02*
X2807500Y1061250D01*
X2815124Y518400D02*
X2816250Y517500D01*
X2815000Y1061250D02*
X2815124Y1062200D01*
X1270000Y2821250D02*
X1258750Y2821250D01*
X1258700Y2821000D01*
X2787500Y2076250D02*
X2795000Y2076250D01*
X2775000Y2568750D02*
X2767500Y2568750D01*
X2795000Y2076250D02*
X2795124Y2076000D01*
X2775000Y2568750D02*
X2775124Y2569800D01*
X2645000Y2406250D02*
X1685000Y2406250D01*
D25*
X2817500Y507500D03*
X2807500Y1061250D03*
X1270000Y2821250D03*
X2787500Y2076250D03*
X2767500Y2568750D03*
X1685000Y2406250D03*
X2645000Y2406250D03*
D11*
X2822500Y517500D02*
X2822500Y512500D01*
X2827500Y507500D01*
X2821250Y1051250D02*
X2821250Y1061250D01*
X2821624Y518400D02*
X2822500Y517500D01*
X2821250Y1061250D02*
X2821624Y1062200D01*
X1260000Y2800000D02*
X1257500Y2800000D01*
X1250000Y2792500D01*
X1205000Y2792500D01*
X1193750Y2803750D01*
X1193750Y2851250D01*
X1207500Y2865000D01*
X1225000Y2865000D01*
X1237500Y2852500D01*
X1260600Y2801000D02*
X1260000Y2800000D01*
X1237700Y2852400D02*
X1237500Y2852500D01*
X2781250Y2568750D02*
X2781250Y2562500D01*
X2777500Y2558750D01*
X2801250Y2075000D02*
X2801250Y2065000D01*
X2781250Y2568750D02*
X2781624Y2569800D01*
X2801624Y2076000D02*
X2801250Y2075000D01*
X1611250Y2800000D02*
X1261250Y2800000D01*
X1611250Y2800000D02*
X1846250Y2565000D01*
X2612500Y2565000D01*
X2715000Y2588750D02*
X2715000Y2667500D01*
X2715000Y2588750D02*
X2773750Y2530000D01*
X1261250Y2800000D02*
X1260600Y2801000D01*
D25*
X2827500Y507500D03*
X2821250Y1051250D03*
X2777500Y2558750D03*
X2801250Y2065000D03*
X2612500Y2565000D03*
X2715000Y2667500D03*
X2773750Y2530000D03*
D11*
X2843124Y2085000D02*
X2846250Y2085000D01*
X2855000Y2076250D01*
X2860000Y2076250D01*
X2863750Y2080000D01*
X2863750Y2182500D01*
X2831250Y2215000D02*
X2820000Y2226250D01*
X2831250Y2215000D02*
X2863750Y2182500D01*
X2827500Y2626250D02*
X2843750Y2642500D01*
X2848750Y2642500D01*
X2858750Y2632500D01*
X2858750Y2607500D01*
X2831250Y2580000D01*
X2823750Y2580000D01*
X2823124Y2578800D01*
X2862500Y526250D02*
X2862500Y513750D01*
X2848750Y500000D01*
X2833750Y726250D02*
X2868750Y761250D01*
X2868750Y903750D02*
X2868750Y1065000D01*
X2863750Y1070000D01*
X2863124Y527400D02*
X2862500Y526250D01*
X2863750Y1070000D02*
X2863124Y1071200D01*
X2786250Y2170000D02*
X2831250Y2215000D01*
X2657500Y2041250D02*
X2657500Y1717500D01*
X2620000Y766250D02*
X2593750Y766250D01*
X2620000Y766250D02*
X2633750Y752500D01*
X2811250Y703750D02*
X2833750Y726250D01*
D25*
X2820000Y2226250D03*
X2827500Y2626250D03*
X2848750Y500000D03*
X2833750Y726250D03*
X2868750Y761250D03*
X2868750Y903750D03*
X2786250Y2170000D03*
X2657500Y2041250D03*
X2657500Y1717500D03*
X2593750Y766250D03*
X2633750Y752500D03*
X2811250Y703750D03*
D11*
X2815000Y2447500D02*
X2827500Y2447500D01*
X2815000Y2447500D02*
X2801250Y2461250D01*
X2801250Y2530000D01*
X2858750Y2587500D01*
X2785000Y2775000D02*
X2785000Y2785000D01*
X2790000Y2790000D01*
X2827500Y2447500D02*
X2827998Y2446550D01*
D25*
X2858750Y2587500D03*
X2785000Y2775000D03*
D11*
X2808750Y2435000D02*
X2827500Y2435000D01*
X2808750Y2435000D02*
X2790000Y2453750D01*
X2770000Y2453750D01*
X2708750Y2515000D01*
X2708750Y2682500D01*
X2753750Y2772500D02*
X2791250Y2810000D01*
X2810000Y2810000D01*
X2827500Y2435000D02*
X2827998Y2433850D01*
D25*
X2708750Y2682500D03*
X2753750Y2772500D03*
D11*
X2828750Y2458750D02*
X2832500Y2458750D01*
X2841250Y2450000D01*
X2841250Y2443750D01*
X2838750Y2441250D01*
X2816250Y2441250D01*
X2793750Y2463750D01*
X2793750Y2523750D01*
X2726250Y2591250D01*
X2726250Y2673750D01*
X2735000Y2682500D01*
X2791250Y2738750D02*
X2791250Y2773750D01*
X2830000Y2812500D01*
X2830000Y2820000D02*
X2830000Y2830000D01*
X2830000Y2820000D02*
X2830000Y2812500D01*
X2827998Y2459250D02*
X2828750Y2458750D01*
X1521250Y2822500D02*
X1492500Y2851250D01*
X2600000Y2822500D02*
X2821250Y2822500D01*
X2823750Y2820000D01*
X2830000Y2820000D01*
X1492500Y2851250D02*
X1491700Y2852400D01*
D25*
X2735000Y2682500D03*
X2791250Y2738750D03*
X1521250Y2822500D03*
X2600000Y2822500D03*
D11*
X2798750Y2421250D02*
X2827500Y2421250D01*
X2783750Y2525000D02*
X2783750Y2528750D01*
X2722500Y2590000D01*
X2722500Y2678750D01*
X2797500Y2753750D02*
X2797500Y2775000D01*
X2850000Y2827500D01*
X2850000Y2850000D01*
X2827500Y2421250D02*
X2827998Y2421150D01*
X1491250Y2868750D02*
X1491250Y2877500D01*
X1491250Y2868750D02*
X1480000Y2857500D01*
X1480000Y2838750D01*
X1491250Y2877500D02*
X1491700Y2877800D01*
D25*
X2798750Y2421250D03*
X2783750Y2525000D03*
X2722500Y2678750D03*
X2797500Y2753750D03*
X1480000Y2838750D03*
D11*
X1237500Y2878750D02*
X1212500Y2878750D01*
X1212300Y2877800D01*
X1237500Y2878750D02*
X1237700Y2877800D01*
X2765000Y320000D02*
X2765000Y255000D01*
X2765000Y320000D02*
X2842500Y397500D01*
X2842500Y497500D02*
X2842500Y502500D01*
X2842500Y497500D02*
X2842500Y397500D01*
X2845000Y505000D02*
X2853750Y513750D01*
X2845000Y505000D02*
X2842500Y502500D01*
X2853750Y513750D02*
X2853750Y517500D01*
X2765000Y255000D02*
X2764200Y255000D01*
X2853750Y517500D02*
X2854124Y518400D01*
X2805000Y540000D02*
X2796250Y540000D01*
X2788750Y532500D01*
X2788750Y522500D01*
X2813750Y497500D01*
X2842500Y497500D01*
X2806124Y540400D02*
X2805000Y540000D01*
X2865000Y223750D02*
X2865000Y217500D01*
X2865000Y223750D02*
X2858750Y230000D01*
X2842500Y230000D01*
X2770000Y245000D02*
X2770000Y248750D01*
X2763750Y255000D01*
X2865000Y217500D02*
X2865126Y217240D01*
X2764200Y255000D02*
X2763750Y255000D01*
X2858750Y807500D02*
X2875000Y823750D01*
X2846250Y791250D02*
X2846250Y778750D01*
X2875000Y823750D02*
X2875000Y824200D01*
X2846250Y791250D02*
X2845126Y792240D01*
X2745000Y830000D02*
X2745000Y855000D01*
X2810000Y920000D02*
X2853750Y963750D01*
X2810000Y920000D02*
X2745000Y855000D01*
X2853750Y1041250D02*
X2853750Y1061250D01*
X2853750Y1041250D02*
X2853750Y963750D01*
X2745000Y830000D02*
X2744200Y830000D01*
X2853750Y1061250D02*
X2854124Y1062200D01*
X2805000Y1083750D02*
X2801250Y1083750D01*
X2788750Y1071250D01*
X2788750Y1066250D01*
X2813750Y1041250D01*
X2853750Y1041250D01*
X2806124Y1084200D02*
X2805000Y1083750D01*
X2810000Y920000D02*
X2848750Y881250D01*
X2842500Y507500D02*
X2845000Y505000D01*
X2865000Y1838750D02*
X2880000Y1838750D01*
X2865000Y1838750D02*
X2841250Y1815000D01*
X2841250Y1808750D02*
X2841250Y1807500D01*
X2841250Y1808750D02*
X2841250Y1815000D01*
X2880000Y1838750D02*
X2880000Y1839200D01*
X2841250Y1807500D02*
X2840126Y1807240D01*
X2880000Y2091250D02*
X2880000Y2099200D01*
X2880000Y2091250D02*
X2861250Y2072500D01*
X2837500Y2072500D01*
X2835000Y2075000D01*
X2834124Y2076000D01*
X2785000Y2097500D02*
X2781250Y2097500D01*
X2773750Y2090000D01*
X2773750Y2076250D01*
X2795000Y2055000D01*
X2825000Y2055000D01*
X2837500Y2067500D01*
X2837500Y2072500D01*
X2786124Y2098000D02*
X2785000Y2097500D01*
X2865000Y1845000D02*
X2865000Y1838750D01*
X2865000Y2068750D02*
X2861250Y2072500D01*
X2740000Y1855000D02*
X2740000Y1845000D01*
X2731250Y1863750D02*
X2731250Y1897500D01*
X2761250Y1927500D01*
X2761250Y2047500D01*
X2741250Y2067500D01*
X2741250Y2231250D01*
X2753750Y2243750D01*
X2753750Y2245000D02*
X2753750Y2260000D01*
X2753750Y2245000D02*
X2753750Y2243750D01*
X2740000Y1845000D02*
X2739200Y1845000D01*
X2753750Y2260000D02*
X2754200Y2260000D01*
X2865000Y2257500D02*
X2865000Y2256250D01*
X2865000Y2257500D02*
X2865000Y2261250D01*
X2865000Y2256250D02*
X2851250Y2242500D01*
X2826250Y2242500D01*
X2823750Y2245000D01*
X2753750Y2245000D01*
X2865000Y2261250D02*
X2865126Y2262240D01*
X2876250Y2103750D02*
X2880000Y2100000D01*
X2876250Y2103750D02*
X2875000Y2103750D01*
X2867500Y2111250D01*
X2867500Y2226250D01*
X2851250Y2242500D01*
X2880000Y2100000D02*
X2880000Y2099200D01*
X1242500Y2806250D02*
X1242500Y2820000D01*
X1242500Y2806250D02*
X1242500Y2801250D01*
X1243600Y2801000D01*
X1242500Y2820000D02*
X1241700Y2821000D01*
X1242500Y2806250D02*
X1206250Y2806250D01*
X1205800Y2806000D01*
X1205000Y2806250D02*
X1205000Y2810000D01*
X1197500Y2817500D01*
X1197500Y2837500D01*
X1211250Y2851250D01*
X1205000Y2806250D02*
X1205800Y2806000D01*
X1211250Y2851250D02*
X1212300Y2852400D01*
X1406250Y2851250D02*
X1415000Y2851250D01*
X1406250Y2851250D02*
X1383750Y2828750D01*
X1250000Y2828750D01*
X1242500Y2821250D01*
X1415000Y2851250D02*
X1415500Y2852400D01*
X1242500Y2821250D02*
X1241700Y2821000D01*
X2850000Y2593750D02*
X2880000Y2593750D01*
X2850000Y2593750D02*
X2826250Y2570000D01*
X2815000Y2570000D01*
X2814124Y2569800D01*
X2765000Y2591250D02*
X2761250Y2591250D01*
X2753750Y2583750D01*
X2753750Y2568750D01*
X2775000Y2547500D01*
X2803750Y2547500D01*
X2813750Y2557500D01*
X2813750Y2568750D01*
X2766124Y2591800D02*
X2765000Y2591250D01*
X2814124Y2569800D02*
X2813750Y2568750D01*
X2702500Y2690000D02*
X2690000Y2690000D01*
X2702500Y2690000D02*
X2705000Y2692500D01*
X2821250Y2692500D01*
X2875000Y2638750D02*
X2887500Y2626250D01*
X2875000Y2638750D02*
X2821250Y2692500D01*
X2887500Y2626250D02*
X2887500Y2601250D01*
X2880000Y2593750D01*
X2880000Y2594200D01*
X2690000Y2690000D02*
X2672500Y2707500D01*
X2865000Y2257500D02*
X2873750Y2257500D01*
X2875000Y2638750D02*
X2878750Y2638750D01*
X2865126Y2262240D02*
X2865000Y2257500D01*
X2861250Y1062500D02*
X2855000Y1062500D01*
X2855000Y1795000D02*
X2841250Y1808750D01*
X2855000Y1062500D02*
X2854124Y1062200D01*
X2840126Y1807240D02*
X2841250Y1808750D01*
D25*
X2842500Y230000D03*
X2770000Y245000D03*
X2858750Y807500D03*
X2846250Y778750D03*
X2848750Y881250D03*
X2842500Y507500D03*
X2865000Y1845000D03*
X2865000Y2068750D03*
X2740000Y1855000D03*
X2731250Y1863750D03*
X2672500Y2707500D03*
X2873750Y2257500D03*
X2878750Y2638750D03*
X2861250Y1062500D03*
X2855000Y1795000D03*
D11*
X2868750Y2481250D02*
X2831250Y2481250D01*
X2868750Y2481250D02*
X2880000Y2481250D01*
X2831250Y2481250D02*
X2828750Y2483750D01*
X2880000Y2481250D02*
X2880000Y2480800D01*
X2828750Y2483750D02*
X2827998Y2484650D01*
X2868750Y2438750D02*
X2880000Y2427500D01*
X2880000Y2426500D01*
D25*
X2868750Y2438750D03*
X2868750Y2481250D03*
M02*
