G04 EAGLE Gerber RS-274X export*
G75*
%MOMM*%
%FSLAX34Y34*%
%LPD*%
%INBottom Copper*%
%IPPOS*%
%AMOC8*
5,1,8,0,0,1.08239X$1,22.5*%
G01*
%ADD10C,1.879600*%
%ADD11C,0.152400*%
%ADD12C,0.756400*%


D10*
X1212300Y2852400D03*
X1237700Y2852400D03*
X1263100Y2852400D03*
X1288500Y2852400D03*
X1313900Y2852400D03*
X1339300Y2852400D03*
X1364700Y2852400D03*
X1390100Y2852400D03*
X1415500Y2852400D03*
X1440900Y2852400D03*
X1466300Y2852400D03*
X1491700Y2852400D03*
X1517100Y2852400D03*
X1517100Y2877800D03*
X1491700Y2877800D03*
X1466300Y2877800D03*
X1440900Y2877800D03*
X1415500Y2877800D03*
X1390100Y2877800D03*
X1364700Y2877800D03*
X1339300Y2877800D03*
X1313900Y2877800D03*
X1288500Y2877800D03*
X1263100Y2877800D03*
X1237700Y2877800D03*
X1212300Y2877800D03*
X1542500Y2852400D03*
X1542500Y2877800D03*
X1567900Y2852400D03*
X1567900Y2877800D03*
X1593300Y2852400D03*
X1593300Y2877800D03*
X1618700Y2852400D03*
X1618700Y2877800D03*
X1644100Y2852400D03*
X1644100Y2877800D03*
X1669500Y2852400D03*
X1669500Y2877800D03*
X1694900Y2852400D03*
X1694900Y2877800D03*
D11*
X2821250Y2128750D02*
X2821250Y2065000D01*
X2821250Y2128750D02*
X2805000Y2145000D01*
X2805000Y2461250D01*
X2807500Y2463750D01*
X2835000Y1131250D02*
X2835000Y1051250D01*
X2835000Y1131250D02*
X2837500Y1133750D01*
X2837500Y2048750D01*
X2821250Y2065000D01*
X2800000Y2493750D02*
X2800000Y2557500D01*
X2800000Y2493750D02*
X2818750Y2475000D01*
X2818750Y2470000D01*
X2812500Y2463750D01*
X2807500Y2463750D01*
D12*
X2821250Y2065000D03*
X2807500Y2463750D03*
X2835000Y1051250D03*
X2800000Y2557500D03*
D11*
X2780000Y2278750D02*
X2737500Y2236250D01*
X2661250Y658750D02*
X2661250Y655000D01*
X2656250Y650000D02*
X2583750Y577500D01*
X2656250Y650000D02*
X2661250Y655000D01*
X2583750Y577500D02*
X2583750Y216250D01*
X2636250Y163750D01*
X2687500Y163750D01*
X2752500Y228750D01*
X2758750Y228750D01*
X2778750Y208750D01*
X2700000Y1742500D02*
X2727500Y1770000D01*
X2700000Y1300000D02*
X2616250Y1216250D01*
X2616250Y690000D01*
X2656250Y650000D01*
D12*
X2737500Y2236250D03*
X2780000Y2278750D03*
X2661250Y658750D03*
X2778750Y208750D03*
X2727500Y1770000D03*
X2700000Y1742500D03*
X2700000Y1300000D03*
D11*
X2666250Y852500D02*
X2786250Y852500D01*
X2666250Y852500D02*
X2633750Y820000D01*
X2633750Y810000D01*
X2603750Y760000D02*
X2603750Y607500D01*
X2603750Y760000D02*
X2603750Y803750D01*
X2603750Y607500D02*
X2571250Y575000D01*
X2571250Y486250D01*
X2635000Y472500D02*
X2635000Y467500D01*
X2790000Y312500D01*
X2772500Y1910000D02*
X2751250Y1931250D01*
X2731250Y2260000D02*
X2786250Y2315000D01*
X2786250Y2342500D01*
X2173750Y2246250D02*
X1848750Y2571250D01*
X2645000Y2246250D02*
X2717500Y2246250D01*
X2731250Y2260000D01*
X2603750Y760000D02*
X2591250Y760000D01*
X2587500Y763750D01*
X2587500Y1658750D01*
X2686250Y1757500D01*
X2696250Y1900000D02*
X2701250Y1900000D01*
X2738750Y1937500D01*
X2745000Y1937500D01*
X2751250Y1931250D01*
D12*
X2786250Y852500D03*
X2633750Y810000D03*
X2603750Y803750D03*
X2571250Y486250D03*
X2635000Y472500D03*
X2790000Y312500D03*
X2772500Y1910000D03*
X2751250Y1931250D03*
X2731250Y2260000D03*
X2786250Y2342500D03*
X1848750Y2571250D03*
X2173750Y2246250D03*
X2645000Y2246250D03*
X2686250Y1757500D03*
X2696250Y1900000D03*
D11*
X2610000Y843750D02*
X2610000Y608750D01*
X2577500Y576250D01*
X2577500Y446250D01*
X2645000Y446250D02*
X2788750Y302500D01*
X2772500Y1900000D02*
X2741250Y1931250D01*
X2158750Y2286250D02*
X1873750Y2571250D01*
X2645000Y2286250D02*
X2716250Y2286250D01*
X2610000Y1361250D02*
X2610000Y843750D01*
X2610000Y1361250D02*
X2618750Y1370000D01*
X2618750Y1636250D01*
X2721250Y1738750D01*
D12*
X2610000Y843750D03*
X2577500Y446250D03*
X2645000Y446250D03*
X2788750Y302500D03*
X2772500Y1900000D03*
X2741250Y1931250D03*
X1873750Y2571250D03*
X2158750Y2286250D03*
X2645000Y2286250D03*
X2716250Y2286250D03*
X2721250Y1738750D03*
D11*
X2685000Y691250D02*
X2685000Y675000D01*
X2687500Y672500D01*
X2687500Y667500D01*
X2647500Y627500D01*
X2638750Y627500D01*
X2590000Y578750D01*
X2590000Y246250D01*
X2577500Y243750D02*
X2577500Y217500D01*
X2635000Y160000D01*
X2688750Y160000D01*
X2751250Y222500D01*
X2756250Y222500D01*
X2751250Y1818750D02*
X2736250Y1818750D01*
X2708750Y1791250D01*
X2702500Y2140000D02*
X2702500Y2143750D01*
X2792500Y2233750D01*
X2792500Y2273750D01*
X2791250Y2275000D01*
X2395000Y2083750D02*
X1907500Y2571250D01*
X2628750Y2077500D02*
X2640000Y2077500D01*
X2702500Y2140000D01*
X2703750Y831250D02*
X2682500Y810000D01*
X2706250Y1046250D02*
X2706250Y1082500D01*
D12*
X2685000Y691250D03*
X2590000Y246250D03*
X2577500Y243750D03*
X2756250Y222500D03*
X2751250Y1818750D03*
X2708750Y1791250D03*
X2702500Y2140000D03*
X2791250Y2275000D03*
X1907500Y2571250D03*
X2395000Y2083750D03*
X2628750Y2077500D03*
X2682500Y810000D03*
X2703750Y831250D03*
X2706250Y1046250D03*
X2706250Y1082500D03*
D11*
X2691250Y706250D02*
X2691250Y666250D01*
X2648750Y623750D01*
X2640000Y623750D01*
X2602500Y586250D01*
X2602500Y206250D01*
X2582500Y203750D02*
X2582500Y133750D01*
X2632500Y83750D01*
X2661250Y83750D01*
X2768750Y191250D01*
X2768750Y208750D01*
X2731250Y1830000D02*
X2721250Y1830000D01*
X2708750Y1842500D01*
X2708750Y2192500D02*
X2777500Y2261250D01*
X2343750Y2126250D02*
X1897500Y2572500D01*
X2617500Y2126250D02*
X2642500Y2126250D01*
X2708750Y2192500D01*
X2582500Y207500D02*
X2582500Y203750D01*
X2582500Y207500D02*
X2343750Y446250D01*
X2343750Y2126250D01*
D12*
X2691250Y706250D03*
X2602500Y206250D03*
X2582500Y203750D03*
X2768750Y208750D03*
X2731250Y1830000D03*
X2708750Y1842500D03*
X2708750Y2192500D03*
X2777500Y2261250D03*
X1897500Y2572500D03*
X2343750Y2126250D03*
X2617500Y2126250D03*
D11*
X1450000Y2877500D02*
X1441250Y2877500D01*
X1450000Y2877500D02*
X1462500Y2865000D01*
X1503750Y2865000D01*
X1516250Y2852500D01*
X1441250Y2877500D02*
X1440900Y2877800D01*
X1516250Y2852500D02*
X1517100Y2852400D01*
X1610000Y2877500D02*
X1617500Y2877500D01*
X1610000Y2877500D02*
X1597500Y2865000D01*
X1581250Y2865000D01*
X1568750Y2877500D01*
X1617500Y2877500D02*
X1618700Y2877800D01*
X1568750Y2877500D02*
X1567900Y2877800D01*
X2790000Y2553750D02*
X2790000Y2495000D01*
X2812500Y2472500D01*
X2795000Y530000D02*
X2651250Y530000D01*
X2817500Y1820000D02*
X2798750Y1838750D01*
X2831250Y2043750D02*
X2811250Y2063750D01*
X2795000Y1068750D02*
X2795000Y1060000D01*
X2813750Y1041250D01*
X2813750Y850000D01*
X2801250Y837500D02*
X2797500Y833750D01*
X2801250Y837500D02*
X2813750Y850000D01*
X2797500Y833750D02*
X2772500Y833750D01*
X2787500Y1838750D02*
X2798750Y1838750D01*
X2787500Y1838750D02*
X2667500Y1718750D01*
X2801250Y837500D02*
X2811250Y827500D01*
X2790000Y2553750D02*
X2783750Y2560000D01*
X2783750Y2561250D01*
X2770000Y2575000D01*
X2740000Y2575000D01*
X2661250Y2496250D01*
D12*
X2790000Y2553750D03*
X2812500Y2472500D03*
X2795000Y530000D03*
X2651250Y530000D03*
X2817500Y1820000D03*
X2798750Y1838750D03*
X2811250Y2063750D03*
X2831250Y2043750D03*
X2795000Y1068750D03*
X2772500Y833750D03*
X2667500Y1718750D03*
X2811250Y827500D03*
X2661250Y2496250D03*
D11*
X2855000Y243750D02*
X2855000Y233750D01*
X2831250Y210000D01*
X2828750Y210000D01*
X2822500Y203750D01*
X2635000Y97500D02*
X2635000Y90000D01*
X2635000Y97500D02*
X2738750Y201250D01*
D12*
X2855000Y243750D03*
X2822500Y203750D03*
X2635000Y90000D03*
X2738750Y201250D03*
D11*
X2865000Y243750D02*
X2865000Y262500D01*
X2748750Y205000D02*
X2748750Y185000D01*
D12*
X2865000Y262500D03*
X2865000Y243750D03*
X2748750Y205000D03*
X2748750Y185000D03*
D11*
X2762500Y77500D02*
X2645000Y77500D01*
X2755000Y182500D02*
X2755000Y212500D01*
X2755000Y182500D02*
X2662500Y90000D01*
X2645000Y90000D01*
D12*
X2762500Y77500D03*
X2645000Y77500D03*
X2755000Y212500D03*
X2645000Y90000D03*
D11*
X2871250Y241250D02*
X2871250Y573750D01*
X2871250Y241250D02*
X2833750Y203750D01*
X2832500Y203750D01*
X2638750Y197500D02*
X2638750Y170000D01*
X2638750Y197500D02*
X2628750Y207500D01*
X2628750Y241250D01*
X2652500Y265000D01*
X2816250Y265000D01*
X2855000Y303750D01*
X2855000Y576250D01*
X2858750Y580000D01*
X2865000Y580000D01*
X2871250Y573750D01*
D12*
X2871250Y573750D03*
X2832500Y203750D03*
X2638750Y170000D03*
D11*
X2861250Y267500D02*
X2861250Y573750D01*
X2861250Y267500D02*
X2832500Y238750D01*
X2832500Y230000D01*
X2635000Y242500D02*
X2635000Y210000D01*
X2635000Y242500D02*
X2643750Y251250D01*
X2820000Y251250D01*
X2832500Y238750D01*
D12*
X2861250Y573750D03*
X2832500Y230000D03*
X2635000Y210000D03*
D11*
X2651250Y590000D02*
X2657500Y590000D01*
X2651250Y590000D02*
X2628750Y567500D01*
X2628750Y250000D01*
D12*
X2657500Y590000D03*
X2628750Y250000D03*
D11*
X2847500Y586250D02*
X2867500Y586250D01*
X2877500Y576250D01*
X2877500Y228750D01*
X2852500Y203750D01*
X2657500Y243750D02*
X2645000Y243750D01*
X2657500Y243750D02*
X2660000Y246250D01*
X2760000Y246250D01*
X2808750Y197500D01*
X2846250Y197500D01*
X2852500Y203750D01*
D12*
X2847500Y586250D03*
X2852500Y203750D03*
X2645000Y243750D03*
D11*
X2670000Y601250D02*
X2677500Y601250D01*
X2670000Y601250D02*
X2651250Y620000D01*
X2641250Y620000D01*
X2610000Y588750D01*
X2610000Y323750D01*
X2851250Y197500D02*
X2860000Y197500D01*
X2851250Y197500D02*
X2847500Y193750D01*
X2802500Y193750D01*
X2756250Y240000D01*
X2662500Y240000D01*
D12*
X2677500Y601250D03*
X2610000Y323750D03*
X2860000Y197500D03*
X2662500Y240000D03*
D11*
X2671250Y595000D02*
X2685000Y595000D01*
X2671250Y595000D02*
X2650000Y616250D01*
X2642500Y616250D01*
X2616250Y590000D01*
X2616250Y363750D01*
X2703750Y271250D02*
X2782500Y271250D01*
X2703750Y271250D02*
X2645000Y330000D01*
D12*
X2685000Y595000D03*
X2616250Y363750D03*
X2782500Y271250D03*
X2645000Y330000D03*
D11*
X2667500Y585000D02*
X2667500Y588750D01*
X2660000Y596250D01*
X2652500Y596250D01*
X2622500Y566250D01*
X2622500Y401250D01*
X2793750Y357500D02*
X2830000Y321250D01*
X2657500Y357500D02*
X2645000Y370000D01*
D12*
X2667500Y585000D03*
X2622500Y401250D03*
X2830000Y321250D03*
X2793750Y357500D03*
X2657500Y357500D03*
X2645000Y370000D03*
D11*
X2810000Y581250D02*
X2810000Y585000D01*
X2810000Y581250D02*
X2813750Y577500D01*
X2813750Y512500D01*
X2811250Y510000D01*
X2811250Y385000D01*
X2845000Y351250D01*
X2845000Y301250D01*
X2821250Y277500D01*
X2820000Y277500D01*
X2670000Y410000D02*
X2645000Y410000D01*
X2670000Y410000D02*
X2802500Y277500D01*
X2820000Y277500D01*
D12*
X2810000Y585000D03*
X2820000Y277500D03*
X2645000Y410000D03*
D11*
X2807500Y383750D02*
X2807500Y575000D01*
X2807500Y383750D02*
X2838750Y352500D01*
X2838750Y315000D02*
X2838750Y303750D01*
X2838750Y315000D02*
X2838750Y352500D01*
X2663750Y470000D02*
X2645000Y470000D01*
X2663750Y470000D02*
X2818750Y315000D01*
X2838750Y315000D01*
D12*
X2807500Y575000D03*
X2838750Y303750D03*
X2645000Y470000D03*
D11*
X2653750Y536250D02*
X2683750Y566250D01*
X2653750Y536250D02*
X2648750Y536250D01*
X2642500Y530000D02*
X2638750Y526250D01*
X2642500Y530000D02*
X2648750Y536250D01*
X2642500Y530000D02*
X2825000Y347500D01*
D12*
X2683750Y566250D03*
X2638750Y526250D03*
X2825000Y347500D03*
D11*
X2668750Y560000D02*
X2663750Y560000D01*
X2656250Y552500D02*
X2653750Y550000D01*
X2656250Y552500D02*
X2663750Y560000D01*
X2653750Y550000D02*
X2645000Y550000D01*
X2821250Y303750D02*
X2825000Y303750D01*
X2821250Y303750D02*
X2661250Y463750D01*
X2657500Y551250D02*
X2656250Y552500D01*
D12*
X2668750Y560000D03*
X2645000Y550000D03*
X2825000Y303750D03*
X2661250Y463750D03*
X2657500Y551250D03*
D11*
X2657500Y562500D02*
X2652500Y562500D01*
X2645000Y570000D01*
X2818750Y367500D02*
X2818750Y363750D01*
X2818750Y367500D02*
X2801250Y385000D01*
X2801250Y547500D01*
X2795000Y553750D01*
D12*
X2657500Y562500D03*
X2645000Y570000D03*
X2818750Y363750D03*
X2795000Y553750D03*
D11*
X2676250Y585000D02*
X2651250Y610000D01*
X2676250Y585000D02*
X2713750Y547500D01*
X2651250Y610000D02*
X2645000Y610000D01*
X2632500Y510000D02*
X2812500Y330000D01*
X2632500Y510000D02*
X2632500Y566250D01*
X2645000Y578750D01*
X2670000Y578750D01*
X2676250Y585000D01*
D12*
X2713750Y547500D03*
X2645000Y610000D03*
X2812500Y330000D03*
D11*
X2862500Y812500D02*
X2862500Y876250D01*
X2862500Y812500D02*
X2865000Y810000D01*
X2865000Y780000D01*
X2846250Y761250D01*
X2681250Y670000D02*
X2645000Y670000D01*
D12*
X2862500Y876250D03*
X2846250Y761250D03*
X2645000Y670000D03*
X2681250Y670000D03*
D11*
X2658750Y937500D02*
X2658750Y948750D01*
X2658750Y937500D02*
X2623750Y902500D01*
X2623750Y778750D02*
X2623750Y730000D01*
X2623750Y778750D02*
X2623750Y902500D01*
X2623750Y730000D02*
X2626250Y727500D01*
X2623750Y778750D02*
X2795000Y778750D01*
D12*
X2658750Y948750D03*
X2626250Y727500D03*
X2795000Y778750D03*
D11*
X2858750Y1082500D02*
X2873750Y1097500D01*
X2858750Y1082500D02*
X2858750Y907500D01*
X2838750Y887500D01*
X2838750Y785000D01*
X2827500Y773750D01*
X2780000Y750000D02*
X2645000Y750000D01*
X2780000Y750000D02*
X2801250Y771250D01*
D12*
X2873750Y1097500D03*
X2827500Y773750D03*
X2645000Y750000D03*
X2801250Y771250D03*
D11*
X2880000Y1101250D02*
X2873750Y1107500D01*
X2880000Y1101250D02*
X2880000Y923750D01*
X2842500Y886250D01*
X2842500Y783750D01*
X2835000Y776250D01*
X2835000Y767500D01*
X2758750Y790000D02*
X2645000Y790000D01*
D12*
X2873750Y1107500D03*
X2835000Y767500D03*
X2645000Y790000D03*
X2758750Y790000D03*
D11*
X2862500Y1110000D02*
X2862500Y1117500D01*
X2862500Y1110000D02*
X2855000Y1102500D01*
X2855000Y912500D01*
D12*
X2862500Y1117500D03*
X2855000Y912500D03*
D11*
X2853750Y1106250D02*
X2853750Y1130000D01*
X2853750Y1106250D02*
X2841250Y1093750D01*
X2841250Y895000D01*
X2832500Y886250D01*
X2832500Y805000D01*
X2760000Y837500D02*
X2660000Y837500D01*
X2760000Y837500D02*
X2781250Y816250D01*
X2811250Y816250D01*
D12*
X2853750Y1130000D03*
X2832500Y805000D03*
X2660000Y837500D03*
X2811250Y816250D03*
D11*
X2665000Y935000D02*
X2640000Y910000D01*
X2778750Y803750D02*
X2811250Y771250D01*
X2778750Y803750D02*
X2631250Y803750D01*
X2627500Y807500D01*
X2627500Y897500D01*
X2640000Y910000D01*
D12*
X2665000Y935000D03*
X2640000Y910000D03*
X2811250Y771250D03*
D11*
X2671250Y970000D02*
X2665000Y970000D01*
X2645000Y950000D01*
X2631250Y713750D02*
X2730000Y713750D01*
X2631250Y713750D02*
X2620000Y725000D01*
X2620000Y925000D01*
X2645000Y950000D01*
D12*
X2671250Y970000D03*
X2645000Y950000D03*
X2730000Y713750D03*
D11*
X2677500Y977500D02*
X2657500Y977500D01*
X2645000Y990000D01*
X2800000Y873750D02*
X2800000Y846250D01*
X2800000Y873750D02*
X2700000Y973750D01*
X2700000Y977500D01*
D12*
X2677500Y977500D03*
X2645000Y990000D03*
X2800000Y846250D03*
X2700000Y977500D03*
D11*
X2701250Y1136250D02*
X2796250Y1136250D01*
X2701250Y1136250D02*
X2641250Y1196250D01*
X2636250Y1196250D01*
X2630000Y1190000D01*
X2630000Y1027500D01*
X2792500Y863750D02*
X2792500Y840000D01*
X2792500Y863750D02*
X2683750Y972500D01*
X2683750Y980000D01*
X2660000Y1003750D01*
X2645000Y1003750D01*
D12*
X2796250Y1136250D03*
X2630000Y1027500D03*
X2792500Y840000D03*
X2645000Y1003750D03*
D11*
X2705000Y1130000D02*
X2815000Y1130000D01*
X2657500Y1082500D02*
X2645000Y1070000D01*
X2807500Y871250D02*
X2807500Y852500D01*
X2807500Y871250D02*
X2706250Y972500D01*
X2706250Y1008750D01*
X2645000Y1070000D01*
D12*
X2815000Y1130000D03*
X2705000Y1130000D03*
X2657500Y1082500D03*
X2645000Y1070000D03*
X2807500Y852500D03*
D11*
X2770000Y1110000D02*
X2645000Y1110000D01*
X2803750Y1041250D02*
X2803750Y905000D01*
X2803750Y1041250D02*
X2785000Y1060000D01*
X2785000Y1091250D01*
X2787500Y1093750D01*
D12*
X2770000Y1110000D03*
X2645000Y1110000D03*
X2803750Y905000D03*
X2787500Y1093750D03*
D11*
X2783750Y1111250D02*
X2792500Y1111250D01*
X2783750Y1111250D02*
X2771250Y1123750D01*
X2651250Y1123750D01*
X2645000Y1130000D01*
X2807500Y900000D02*
X2807500Y892500D01*
X2807500Y900000D02*
X2810000Y902500D01*
X2810000Y1040000D01*
X2788750Y1061250D01*
X2788750Y1086250D01*
X2793750Y1091250D01*
X2793750Y1110000D01*
X2792500Y1111250D01*
D12*
X2792500Y1111250D03*
X2645000Y1130000D03*
X2807500Y892500D03*
D11*
X2786250Y1103750D02*
X2770000Y1120000D01*
X2646250Y1120000D01*
X2638750Y1127500D01*
X2638750Y1148750D01*
X2640000Y1150000D01*
X2801250Y882500D02*
X2805000Y882500D01*
X2801250Y882500D02*
X2781250Y902500D01*
X2781250Y1098750D01*
X2786250Y1103750D01*
D12*
X2786250Y1103750D03*
X2640000Y1150000D03*
X2805000Y882500D03*
D11*
X2787500Y905000D02*
X2787500Y911250D01*
X2787500Y905000D02*
X2797500Y895000D01*
X2638750Y1157500D02*
X2638750Y1190000D01*
X2638750Y1157500D02*
X2633750Y1152500D01*
X2633750Y1112500D01*
X2657500Y1088750D01*
X2768750Y1088750D01*
D12*
X2787500Y911250D03*
X2797500Y895000D03*
X2638750Y1190000D03*
X2768750Y1088750D03*
D11*
X2772500Y892500D02*
X2786250Y878750D01*
X2638750Y1203750D02*
X2638750Y1230000D01*
X2638750Y1203750D02*
X2623750Y1188750D01*
X2623750Y1025000D01*
X2638750Y1010000D01*
X2658750Y1010000D01*
X2772500Y896250D01*
X2772500Y892500D01*
D12*
X2772500Y892500D03*
X2786250Y878750D03*
X2638750Y1230000D03*
D11*
X2853750Y2097500D02*
X2853750Y2100000D01*
X2853750Y2097500D02*
X2841250Y2085000D01*
X2841250Y1866250D01*
X2843750Y1863750D01*
X2600000Y1633750D02*
X2600000Y1326250D01*
X2600000Y1633750D02*
X2752500Y1786250D01*
X2752500Y1787500D01*
X2756250Y1791250D01*
X2776250Y1791250D01*
D12*
X2853750Y2100000D03*
X2843750Y1863750D03*
X2600000Y1326250D03*
X2776250Y1791250D03*
D11*
X2857500Y1860000D02*
X2857500Y2082500D01*
X2857500Y1860000D02*
X2856250Y1858750D01*
X2606250Y1632500D02*
X2606250Y1366250D01*
X2606250Y1632500D02*
X2758750Y1785000D01*
D12*
X2857500Y2082500D03*
X2856250Y1858750D03*
X2606250Y1366250D03*
X2758750Y1785000D03*
D11*
X2715000Y2030000D02*
X2753750Y2068750D01*
X2718750Y1493750D02*
X2635000Y1410000D01*
D12*
X2753750Y2068750D03*
X2715000Y2030000D03*
X2635000Y1410000D03*
X2718750Y1493750D03*
D11*
X2851250Y2136250D02*
X2851250Y2140000D01*
X2851250Y2136250D02*
X2878750Y2108750D01*
X2878750Y1805000D01*
X2867500Y1793750D01*
X2788750Y1603750D02*
X2635000Y1450000D01*
D12*
X2851250Y2140000D03*
X2867500Y1793750D03*
X2635000Y1450000D03*
X2788750Y1603750D03*
D11*
X2786250Y2157500D02*
X2783750Y2157500D01*
X2747500Y2121250D01*
X2793750Y1830000D02*
X2797500Y1830000D01*
X2807500Y1820000D01*
X2625000Y1631250D02*
X2625000Y1498750D01*
X2625000Y1631250D02*
X2807500Y1813750D01*
X2807500Y1820000D01*
D12*
X2786250Y2157500D03*
X2747500Y2121250D03*
X2793750Y1830000D03*
X2807500Y1820000D03*
X2625000Y1498750D03*
D11*
X2871250Y2102500D02*
X2841250Y2132500D01*
X2871250Y2102500D02*
X2871250Y1827500D01*
X2863750Y1820000D01*
X2850000Y1820000D01*
X2843750Y1826250D01*
X2631250Y1565000D02*
X2631250Y1531250D01*
X2631250Y1565000D02*
X2628750Y1567500D01*
X2628750Y1596250D01*
X2817500Y1785000D01*
D12*
X2841250Y2132500D03*
X2843750Y1826250D03*
X2631250Y1531250D03*
X2817500Y1785000D03*
D11*
X2828750Y2136250D02*
X2828750Y2143750D01*
X2828750Y2136250D02*
X2855000Y2110000D01*
X2857500Y2110000D01*
X2863750Y2103750D01*
X2863750Y2096250D01*
X2856250Y2088750D01*
X2855000Y2088750D01*
X2851250Y2085000D01*
X2851250Y1885000D01*
X2823750Y1837500D02*
X2823750Y1793750D01*
X2635000Y1593750D02*
X2635000Y1570000D01*
X2635000Y1593750D02*
X2823750Y1782500D01*
X2823750Y1793750D01*
D12*
X2828750Y2143750D03*
X2851250Y1885000D03*
X2823750Y1837500D03*
X2823750Y1793750D03*
X2635000Y1570000D03*
D11*
X2821250Y2151250D02*
X2831250Y2151250D01*
X2875000Y2107500D01*
X2875000Y1825000D01*
X2845000Y1795000D01*
X2823750Y1773750D02*
X2645000Y1595000D01*
D12*
X2821250Y2151250D03*
X2845000Y1795000D03*
X2645000Y1595000D03*
X2823750Y1773750D03*
D11*
X2852500Y2106250D02*
X2815000Y2143750D01*
X2852500Y2106250D02*
X2856250Y2106250D01*
X2860000Y2102500D01*
X2860000Y2097500D01*
X2855000Y2092500D01*
X2853750Y2092500D01*
X2845000Y2083750D01*
X2845000Y1877500D01*
X2847500Y1875000D01*
X2653750Y1630000D02*
X2645000Y1630000D01*
X2653750Y1630000D02*
X2791250Y1767500D01*
X2861250Y1826250D02*
X2861250Y1840000D01*
X2850000Y1851250D01*
X2850000Y1872500D01*
X2847500Y1875000D01*
D12*
X2815000Y2143750D03*
X2847500Y1875000D03*
X2645000Y1630000D03*
X2791250Y1767500D03*
X2861250Y1826250D03*
D11*
X2773750Y1875000D02*
X2761250Y1875000D01*
X2773750Y1875000D02*
X2791250Y1857500D01*
X2812500Y1857500D01*
X2692500Y1735000D02*
X2635000Y1677500D01*
X2692500Y1783750D02*
X2732500Y1823750D01*
X2733750Y1823750D01*
X2761250Y1851250D01*
X2761250Y1875000D01*
D12*
X2761250Y1875000D03*
X2812500Y1857500D03*
X2635000Y1677500D03*
X2692500Y1735000D03*
X2692500Y1783750D03*
D11*
X2781250Y2115000D02*
X2781250Y2140000D01*
X2781250Y2115000D02*
X2631250Y1965000D01*
X2631250Y1917500D01*
X2625000Y1911250D01*
X2625000Y1765000D02*
X2625000Y1705000D01*
X2625000Y1765000D02*
X2625000Y1911250D01*
X2788750Y1847500D02*
X2793750Y1847500D01*
X2788750Y1847500D02*
X2706250Y1765000D01*
X2625000Y1765000D01*
D12*
X2781250Y2140000D03*
X2625000Y1705000D03*
X2793750Y1847500D03*
D11*
X2787500Y2090000D02*
X2787500Y2132500D01*
X2787500Y2090000D02*
X2777500Y2080000D01*
X2777500Y1957500D01*
X2813750Y1921250D01*
X2813750Y1916250D02*
X2813750Y1893750D01*
X2813750Y1916250D02*
X2813750Y1921250D01*
X2631250Y1845000D02*
X2631250Y1771250D01*
X2631250Y1845000D02*
X2628750Y1847500D01*
X2628750Y1867500D01*
X2655000Y1893750D01*
X2775000Y1893750D01*
X2778750Y1897500D01*
X2778750Y1912500D01*
X2782500Y1916250D01*
X2813750Y1916250D01*
D12*
X2787500Y2132500D03*
X2813750Y1893750D03*
X2631250Y1771250D03*
D11*
X2775000Y2132500D02*
X2775000Y2142500D01*
X2778750Y2146250D01*
X2783750Y2146250D01*
X2793750Y2136250D01*
X2793750Y2091250D01*
X2781250Y2078750D01*
X2781250Y1958750D01*
X2823750Y1916250D01*
X2823750Y1893750D01*
X2647500Y1790000D02*
X2645000Y1790000D01*
X2647500Y1790000D02*
X2706250Y1848750D01*
X2742500Y1848750D01*
X2755000Y1861250D01*
X2755000Y1877500D01*
X2758750Y1881250D01*
X2772500Y1881250D01*
X2792500Y1861250D01*
X2797500Y1861250D01*
X2823750Y1887500D01*
X2823750Y1893750D01*
D12*
X2775000Y2132500D03*
X2823750Y1893750D03*
X2645000Y1790000D03*
D11*
X2791250Y1903750D02*
X2801250Y1893750D01*
X2791250Y1903750D02*
X2785000Y1910000D01*
X2635000Y1868750D02*
X2635000Y1850000D01*
X2635000Y1868750D02*
X2656250Y1890000D01*
X2777500Y1890000D01*
X2791250Y1903750D01*
D12*
X2785000Y1910000D03*
X2801250Y1893750D03*
X2635000Y1850000D03*
D11*
X2645000Y1870000D02*
X2742500Y1870000D01*
X2757500Y1885000D01*
X2777500Y1885000D01*
X2795000Y1867500D01*
D12*
X2645000Y1870000D03*
X2795000Y1867500D03*
D11*
X2773750Y1943750D02*
X2773750Y1956250D01*
X2773750Y2098750D01*
X2773750Y1943750D02*
X2786250Y1931250D01*
X2635000Y1948750D02*
X2635000Y1912500D01*
X2635000Y1948750D02*
X2642500Y1956250D01*
X2773750Y1956250D01*
D12*
X2773750Y2098750D03*
X2786250Y1931250D03*
X2635000Y1912500D03*
D11*
X2852500Y2621250D02*
X2812500Y2661250D01*
X2722500Y2661250D01*
X2605000Y2543750D01*
X2605000Y2083750D02*
X2605000Y2016250D01*
X2605000Y2083750D02*
X2605000Y2543750D01*
X2605000Y2016250D02*
X2625000Y1996250D01*
X2625000Y1945000D01*
X2786250Y2232500D02*
X2786250Y2255000D01*
X2786250Y2232500D02*
X2637500Y2083750D01*
X2605000Y2083750D01*
D12*
X2852500Y2621250D03*
X2625000Y1945000D03*
X2786250Y2255000D03*
D11*
X2842500Y2636250D02*
X2846250Y2636250D01*
X2842500Y2636250D02*
X2813750Y2665000D01*
X2721250Y2665000D01*
X2601250Y2545000D01*
X2601250Y2011250D01*
X2606250Y2006250D01*
X2818750Y2247500D02*
X2818750Y2275000D01*
X2818750Y2247500D02*
X2815000Y2243750D01*
X2815000Y2236250D01*
X2818750Y2232500D01*
X2840000Y2232500D01*
X2882500Y2275000D01*
X2882500Y2617500D01*
X2865000Y2635000D01*
X2852500Y2642500D02*
X2852500Y2647500D01*
X2852500Y2642500D02*
X2846250Y2636250D01*
D12*
X2846250Y2636250D03*
X2606250Y2006250D03*
X2818750Y2275000D03*
X2865000Y2635000D03*
X2852500Y2647500D03*
D11*
X2837500Y2605000D02*
X2837500Y2580000D01*
X2848750Y2568750D01*
X2848750Y2510000D01*
X2875000Y2483750D01*
X2875000Y2281250D01*
X2857500Y2263750D01*
X2840000Y2263750D01*
X2828750Y2275000D01*
X2791250Y2206250D02*
X2635000Y2050000D01*
X2821250Y2238750D02*
X2821250Y2245000D01*
X2840000Y2263750D01*
D12*
X2837500Y2605000D03*
X2828750Y2275000D03*
X2635000Y2050000D03*
X2791250Y2206250D03*
X2821250Y2238750D03*
D11*
X2840000Y2611250D02*
X2840000Y2625000D01*
X2840000Y2611250D02*
X2852500Y2598750D01*
X2852500Y2511250D01*
X2878750Y2485000D01*
X2878750Y2280000D01*
X2847500Y2248750D01*
X2635000Y2110000D02*
X2635000Y2090000D01*
X2635000Y2110000D02*
X2776250Y2251250D01*
D12*
X2840000Y2625000D03*
X2847500Y2248750D03*
X2635000Y2090000D03*
X2776250Y2251250D03*
D11*
X2833750Y2610000D02*
X2833750Y2617500D01*
X2833750Y2610000D02*
X2831250Y2607500D01*
X2831250Y2581250D01*
X2845000Y2567500D01*
X2845000Y2498750D01*
X2862500Y2481250D01*
X2862500Y2365000D01*
X2870000Y2357500D01*
X2870000Y2281250D01*
X2856250Y2267500D01*
X2846250Y2267500D01*
X2838750Y2275000D01*
X2623750Y2352500D02*
X2623750Y2138750D01*
X2623750Y2352500D02*
X2612500Y2363750D01*
X2612500Y2541250D01*
X2720000Y2648750D01*
X2787500Y2648750D01*
X2793750Y2655000D01*
X2807500Y2655000D01*
X2833750Y2628750D01*
X2833750Y2617500D01*
D12*
X2833750Y2617500D03*
X2838750Y2275000D03*
X2623750Y2138750D03*
D11*
X2721250Y2655000D02*
X2732500Y2655000D01*
X2721250Y2655000D02*
X2608750Y2542500D01*
X2608750Y2166250D01*
X2611250Y2163750D01*
X2791250Y2290000D02*
X2791250Y2297500D01*
X2791250Y2290000D02*
X2786250Y2285000D01*
X2777500Y2285000D01*
X2630000Y2137500D01*
X2630000Y2136250D01*
X2626250Y2132500D01*
X2621250Y2132500D01*
X2611250Y2142500D01*
X2611250Y2163750D01*
D12*
X2732500Y2655000D03*
X2611250Y2163750D03*
X2791250Y2297500D03*
D11*
X2816250Y2575000D02*
X2816250Y2637500D01*
X2816250Y2575000D02*
X2837500Y2553750D01*
X2837500Y2491250D01*
X2855000Y2473750D01*
X2855000Y2362500D01*
X2862500Y2355000D01*
X2862500Y2287500D01*
X2852500Y2277500D01*
X2635000Y2228750D02*
X2635000Y2210000D01*
X2635000Y2228750D02*
X2646250Y2240000D01*
X2720000Y2240000D01*
X2783750Y2303750D01*
X2826250Y2303750D02*
X2852500Y2277500D01*
D12*
X2816250Y2637500D03*
X2852500Y2277500D03*
X2635000Y2210000D03*
X2783750Y2303750D03*
X2826250Y2303750D03*
D11*
X2803750Y2577500D02*
X2803750Y2642500D01*
X2803750Y2577500D02*
X2830000Y2551250D01*
X2830000Y2488750D01*
X2842500Y2476250D01*
X2842500Y2370000D01*
X2857500Y2355000D01*
X2857500Y2291250D01*
X2856250Y2290000D01*
X2717500Y2230000D02*
X2645000Y2230000D01*
X2717500Y2230000D02*
X2778750Y2291250D01*
X2783750Y2291250D01*
D12*
X2803750Y2642500D03*
X2856250Y2290000D03*
X2645000Y2230000D03*
X2783750Y2291250D03*
D11*
X2795000Y2581250D02*
X2795000Y2637500D01*
X2795000Y2581250D02*
X2822500Y2553750D01*
X2822500Y2491250D01*
X2830000Y2483750D01*
X2830000Y2387500D01*
X2828750Y2386250D01*
X2828750Y2378750D01*
X2851250Y2356250D01*
X2851250Y2322500D01*
X2732500Y2270000D02*
X2645000Y2270000D01*
X2732500Y2270000D02*
X2777500Y2315000D01*
X2811250Y2312500D02*
X2841250Y2312500D01*
X2851250Y2322500D01*
D12*
X2795000Y2637500D03*
X2851250Y2322500D03*
X2645000Y2270000D03*
X2777500Y2315000D03*
X2811250Y2312500D03*
D11*
X2806250Y2648750D02*
X2796250Y2648750D01*
X2806250Y2648750D02*
X2810000Y2645000D01*
X2810000Y2576250D01*
X2833750Y2552500D01*
X2833750Y2490000D01*
X2848750Y2475000D01*
X2848750Y2372500D01*
X2630000Y2391250D02*
X2630000Y2332500D01*
X2630000Y2391250D02*
X2622500Y2398750D01*
X2622500Y2541250D01*
X2706250Y2625000D01*
X2757500Y2625000D01*
D12*
X2796250Y2648750D03*
X2848750Y2372500D03*
X2630000Y2332500D03*
X2757500Y2625000D03*
D11*
X2782500Y2635000D02*
X2782500Y2588750D01*
X2813750Y2557500D01*
X2813750Y2495000D01*
X2826250Y2482500D01*
X2826250Y2467500D01*
X2812500Y2453750D01*
X2812500Y2386250D01*
X2845000Y2353750D01*
X2618750Y2366250D02*
X2618750Y2542500D01*
X2711250Y2635000D01*
X2782500Y2635000D01*
X2782500Y2637500D01*
D12*
X2782500Y2637500D03*
X2845000Y2353750D03*
X2618750Y2366250D03*
D11*
X2767500Y2610000D02*
X2767500Y2626250D01*
X2761250Y2603750D02*
X2660000Y2502500D01*
X2761250Y2603750D02*
X2767500Y2610000D01*
X2660000Y2502500D02*
X2658750Y2502500D01*
X2641250Y2485000D01*
X2641250Y2411250D01*
X2638750Y2408750D01*
X2638750Y2396250D01*
X2831250Y2362500D02*
X2831250Y2358750D01*
X2831250Y2362500D02*
X2808750Y2385000D01*
X2808750Y2455000D01*
X2822500Y2468750D01*
X2822500Y2481250D01*
X2806250Y2497500D01*
X2806250Y2560000D01*
X2762500Y2603750D01*
X2761250Y2603750D01*
D12*
X2767500Y2626250D03*
X2638750Y2396250D03*
X2831250Y2358750D03*
D11*
X2743750Y2617500D02*
X2740000Y2617500D01*
X2678750Y2556250D01*
X2642500Y2556250D01*
X2628750Y2542500D01*
X2628750Y2425000D01*
X2826250Y2348750D02*
X2832500Y2348750D01*
X2826250Y2348750D02*
X2811250Y2363750D01*
X2785000Y2390000D02*
X2636250Y2390000D01*
X2628750Y2397500D01*
X2628750Y2425000D01*
D12*
X2743750Y2617500D03*
X2628750Y2425000D03*
X2832500Y2348750D03*
X2811250Y2363750D03*
X2785000Y2390000D03*
D11*
X2755000Y2602500D02*
X2755000Y2611250D01*
X2755000Y2602500D02*
X2658750Y2506250D01*
X2657500Y2506250D01*
X2650000Y2498750D02*
X2635000Y2483750D01*
X2650000Y2498750D02*
X2657500Y2506250D01*
X2646250Y2516250D02*
X2652500Y2522500D01*
X2646250Y2516250D02*
X2645000Y2516250D01*
X2641250Y2512500D01*
X2641250Y2507500D01*
X2650000Y2498750D01*
D12*
X2755000Y2611250D03*
X2635000Y2483750D03*
X2652500Y2522500D03*
D11*
X2660000Y2516250D02*
X2653750Y2510000D01*
X2660000Y2516250D02*
X2747500Y2603750D01*
X2653750Y2510000D02*
X2647500Y2510000D01*
D12*
X2747500Y2603750D03*
X2647500Y2510000D03*
X2660000Y2516250D03*
D11*
X2725000Y2597500D02*
X2732500Y2597500D01*
X2725000Y2597500D02*
X2677500Y2550000D01*
X2645000Y2550000D01*
D12*
X2732500Y2597500D03*
X2645000Y2550000D03*
D11*
X2766250Y1925000D02*
X2801250Y1925000D01*
X2766250Y1925000D02*
X2741250Y1950000D01*
X2645000Y1950000D01*
X2618750Y1966250D02*
X2618750Y1985000D01*
X2597500Y2006250D01*
X2597500Y2562500D01*
X2725000Y2690000D01*
X2725000Y2715000D01*
D12*
X2801250Y1925000D03*
X2645000Y1950000D03*
X2618750Y1966250D03*
X2725000Y2715000D03*
D11*
X2645000Y518750D02*
X2830000Y333750D01*
X2565000Y526250D02*
X2565000Y2582500D01*
X2693750Y2711250D01*
D12*
X2830000Y333750D03*
X2645000Y518750D03*
X2565000Y526250D03*
X2693750Y2711250D03*
D11*
X2817500Y1046250D02*
X2817500Y507500D01*
X2817500Y1046250D02*
X2807500Y1056250D01*
X2807500Y1061250D01*
X1270000Y2821250D02*
X1270000Y2845000D01*
X1263750Y2851250D01*
X1263100Y2852400D01*
X2787500Y2080000D02*
X2787500Y2076250D01*
X2787500Y2080000D02*
X2797500Y2090000D01*
X2797500Y2386250D01*
X2767500Y2416250D01*
X2767500Y2568750D01*
X1685000Y2406250D02*
X1270000Y2821250D01*
X2645000Y2406250D02*
X2757500Y2406250D01*
X2767500Y2416250D01*
X2807500Y1113750D02*
X2807500Y1061250D01*
X2807500Y1113750D02*
X2830000Y1136250D01*
X2830000Y2027500D01*
X2787500Y2070000D01*
X2787500Y2076250D01*
D12*
X2817500Y507500D03*
X2807500Y1061250D03*
X1270000Y2821250D03*
X2787500Y2076250D03*
X2767500Y2568750D03*
X1685000Y2406250D03*
X2645000Y2406250D03*
D11*
X2827500Y765000D02*
X2827500Y507500D01*
X2827500Y765000D02*
X2821250Y771250D01*
X2821250Y1051250D01*
X2777500Y2411250D02*
X2777500Y2530000D01*
X2777500Y2558750D01*
X2777500Y2411250D02*
X2801250Y2387500D01*
X2801250Y2065000D01*
X2612500Y2565000D02*
X2715000Y2667500D01*
X2773750Y2530000D02*
X2777500Y2530000D01*
X2821250Y1122500D02*
X2821250Y1051250D01*
X2821250Y1122500D02*
X2833750Y1135000D01*
X2833750Y2032500D01*
X2801250Y2065000D01*
D12*
X2827500Y507500D03*
X2821250Y1051250D03*
X2777500Y2558750D03*
X2801250Y2065000D03*
X2612500Y2565000D03*
X2715000Y2667500D03*
X2773750Y2530000D03*
D11*
X2811250Y2235000D02*
X2820000Y2226250D01*
X2811250Y2235000D02*
X2811250Y2276250D01*
X2816250Y2281250D01*
X2841250Y2281250D01*
X2846250Y2276250D01*
X2846250Y2275000D01*
X2850000Y2271250D01*
X2855000Y2271250D01*
X2866250Y2282500D01*
X2866250Y2356250D01*
X2858750Y2363750D01*
X2858750Y2480000D01*
X2841250Y2497500D01*
X2841250Y2566250D01*
X2827500Y2580000D01*
X2827500Y2626250D01*
X2841250Y500000D02*
X2848750Y500000D01*
X2841250Y500000D02*
X2833750Y507500D01*
X2833750Y726250D01*
X2868750Y761250D02*
X2868750Y903750D01*
X2657500Y2041250D02*
X2786250Y2170000D01*
X2657500Y1717500D02*
X2657500Y1713750D01*
X2593750Y1650000D01*
X2593750Y766250D01*
X2633750Y752500D02*
X2666250Y720000D01*
X2795000Y720000D01*
X2811250Y703750D01*
D12*
X2820000Y2226250D03*
X2827500Y2626250D03*
X2848750Y500000D03*
X2833750Y726250D03*
X2868750Y761250D03*
X2868750Y903750D03*
X2786250Y2170000D03*
X2657500Y2041250D03*
X2657500Y1717500D03*
X2593750Y766250D03*
X2633750Y752500D03*
X2811250Y703750D03*
D11*
X2858750Y2587500D02*
X2858750Y2701250D01*
X2785000Y2775000D01*
X1476250Y2851250D02*
X1467500Y2851250D01*
X1476250Y2851250D02*
X1487500Y2840000D01*
X2720000Y2840000D01*
X2785000Y2775000D01*
X1467500Y2851250D02*
X1466300Y2852400D01*
D12*
X2858750Y2587500D03*
X2785000Y2775000D03*
D11*
X2708750Y2727500D02*
X2708750Y2682500D01*
X2708750Y2727500D02*
X2753750Y2772500D01*
X1450000Y2851250D02*
X1441250Y2851250D01*
X1450000Y2851250D02*
X1571250Y2730000D01*
X2706250Y2730000D01*
X2708750Y2727500D01*
X1441250Y2851250D02*
X1440900Y2852400D01*
D12*
X2708750Y2682500D03*
X2753750Y2772500D03*
D11*
X2791250Y2738750D02*
X2735000Y2682500D01*
X2600000Y2822500D02*
X1521250Y2822500D01*
D12*
X2735000Y2682500D03*
X2791250Y2738750D03*
X1521250Y2822500D03*
X2600000Y2822500D03*
D11*
X2798750Y2435000D02*
X2798750Y2421250D01*
X2798750Y2435000D02*
X2801250Y2437500D01*
X2801250Y2478750D01*
X2783750Y2496250D01*
X2783750Y2525000D01*
X2790000Y2746250D02*
X2797500Y2753750D01*
X2790000Y2746250D02*
X2722500Y2678750D01*
X1483750Y2838750D02*
X1480000Y2838750D01*
X1483750Y2838750D02*
X1486250Y2836250D01*
X2700000Y2836250D01*
X2790000Y2746250D01*
D12*
X2798750Y2421250D03*
X2783750Y2525000D03*
X2722500Y2678750D03*
X2797500Y2753750D03*
X1480000Y2838750D03*
D11*
X2842500Y230000D02*
X2836250Y223750D01*
X2791250Y223750D01*
X2770000Y245000D01*
X2858750Y791250D02*
X2858750Y807500D01*
X2858750Y791250D02*
X2846250Y778750D01*
X2858750Y807500D02*
X2858750Y871250D01*
X2848750Y881250D01*
X2842500Y582500D02*
X2842500Y507500D01*
X2842500Y582500D02*
X2840000Y585000D01*
X2840000Y763750D01*
X2846250Y770000D01*
X2846250Y778750D01*
X2865000Y1845000D02*
X2865000Y2068750D01*
X2731250Y1863750D02*
X2740000Y1855000D01*
X1425000Y2851250D02*
X1416250Y2851250D01*
X1425000Y2851250D02*
X1568750Y2707500D01*
X2672500Y2707500D01*
X1416250Y2851250D02*
X1415500Y2852400D01*
X2873750Y2261250D02*
X2873750Y2257500D01*
X2873750Y2261250D02*
X2886250Y2273750D01*
X2886250Y2631250D01*
X2878750Y2638750D01*
X2861250Y1103750D02*
X2861250Y1062500D01*
X2861250Y1103750D02*
X2868750Y1111250D01*
X2868750Y1781250D01*
X2855000Y1795000D01*
D12*
X2842500Y230000D03*
X2770000Y245000D03*
X2858750Y807500D03*
X2846250Y778750D03*
X2848750Y881250D03*
X2842500Y507500D03*
X2865000Y1845000D03*
X2865000Y2068750D03*
X2740000Y1855000D03*
X2731250Y1863750D03*
X2672500Y2707500D03*
X2873750Y2257500D03*
X2878750Y2638750D03*
X2861250Y1062500D03*
X2855000Y1795000D03*
D11*
X2868750Y2438750D02*
X2868750Y2481250D01*
D12*
X2868750Y2438750D03*
X2868750Y2481250D03*
M02*
