G04 EAGLE Gerber RS-274X export*
G75*
%MOMM*%
%FSLAX34Y34*%
%LPD*%
%INSoldermask Bottom*%
%IPPOS*%
%AMOC8*
5,1,8,0,0,1.08239X$1,22.5*%
G01*
%ADD10C,2.082800*%
%ADD11C,0.959600*%


D10*
X1212300Y2852400D03*
X1237700Y2852400D03*
X1263100Y2852400D03*
X1288500Y2852400D03*
X1313900Y2852400D03*
X1339300Y2852400D03*
X1364700Y2852400D03*
X1390100Y2852400D03*
X1415500Y2852400D03*
X1440900Y2852400D03*
X1466300Y2852400D03*
X1491700Y2852400D03*
X1517100Y2852400D03*
X1517100Y2877800D03*
X1491700Y2877800D03*
X1466300Y2877800D03*
X1440900Y2877800D03*
X1415500Y2877800D03*
X1390100Y2877800D03*
X1364700Y2877800D03*
X1339300Y2877800D03*
X1313900Y2877800D03*
X1288500Y2877800D03*
X1263100Y2877800D03*
X1237700Y2877800D03*
X1212300Y2877800D03*
X1542500Y2852400D03*
X1542500Y2877800D03*
X1567900Y2852400D03*
X1567900Y2877800D03*
X1593300Y2852400D03*
X1593300Y2877800D03*
X1618700Y2852400D03*
X1618700Y2877800D03*
X1644100Y2852400D03*
X1644100Y2877800D03*
X1669500Y2852400D03*
X1669500Y2877800D03*
X1694900Y2852400D03*
X1694900Y2877800D03*
D11*
X2821250Y2065000D03*
X2807500Y2463750D03*
X2835000Y1051250D03*
X2800000Y2557500D03*
X2737500Y2236250D03*
X2780000Y2278750D03*
X2661250Y658750D03*
X2778750Y208750D03*
X2727500Y1770000D03*
X2700000Y1742500D03*
X2700000Y1300000D03*
X2786250Y852500D03*
X2633750Y810000D03*
X2603750Y803750D03*
X2571250Y486250D03*
X2635000Y472500D03*
X2790000Y312500D03*
X2772500Y1910000D03*
X2751250Y1931250D03*
X2731250Y2260000D03*
X2786250Y2342500D03*
X1848750Y2571250D03*
X2173750Y2246250D03*
X2645000Y2246250D03*
X2686250Y1757500D03*
X2696250Y1900000D03*
X2610000Y843750D03*
X2577500Y446250D03*
X2645000Y446250D03*
X2788750Y302500D03*
X2772500Y1900000D03*
X2741250Y1931250D03*
X1873750Y2571250D03*
X2158750Y2286250D03*
X2645000Y2286250D03*
X2716250Y2286250D03*
X2721250Y1738750D03*
X2685000Y691250D03*
X2590000Y246250D03*
X2577500Y243750D03*
X2756250Y222500D03*
X2751250Y1818750D03*
X2708750Y1791250D03*
X2702500Y2140000D03*
X2791250Y2275000D03*
X1907500Y2571250D03*
X2395000Y2083750D03*
X2628750Y2077500D03*
X2682500Y810000D03*
X2703750Y831250D03*
X2706250Y1046250D03*
X2706250Y1082500D03*
X2691250Y706250D03*
X2602500Y206250D03*
X2582500Y203750D03*
X2768750Y208750D03*
X2731250Y1830000D03*
X2708750Y1842500D03*
X2708750Y2192500D03*
X2777500Y2261250D03*
X1897500Y2572500D03*
X2343750Y2126250D03*
X2617500Y2126250D03*
X2790000Y2553750D03*
X2812500Y2472500D03*
X2795000Y530000D03*
X2651250Y530000D03*
X2817500Y1820000D03*
X2798750Y1838750D03*
X2811250Y2063750D03*
X2831250Y2043750D03*
X2795000Y1068750D03*
X2772500Y833750D03*
X2667500Y1718750D03*
X2811250Y827500D03*
X2661250Y2496250D03*
X2855000Y243750D03*
X2822500Y203750D03*
X2635000Y90000D03*
X2738750Y201250D03*
X2865000Y262500D03*
X2865000Y243750D03*
X2748750Y205000D03*
X2748750Y185000D03*
X2762500Y77500D03*
X2645000Y77500D03*
X2755000Y212500D03*
X2645000Y90000D03*
X2871250Y573750D03*
X2832500Y203750D03*
X2638750Y170000D03*
X2861250Y573750D03*
X2832500Y230000D03*
X2635000Y210000D03*
X2657500Y590000D03*
X2628750Y250000D03*
X2847500Y586250D03*
X2852500Y203750D03*
X2645000Y243750D03*
X2677500Y601250D03*
X2610000Y323750D03*
X2860000Y197500D03*
X2662500Y240000D03*
X2685000Y595000D03*
X2616250Y363750D03*
X2782500Y271250D03*
X2645000Y330000D03*
X2667500Y585000D03*
X2622500Y401250D03*
X2830000Y321250D03*
X2793750Y357500D03*
X2657500Y357500D03*
X2645000Y370000D03*
X2810000Y585000D03*
X2820000Y277500D03*
X2645000Y410000D03*
X2807500Y575000D03*
X2838750Y303750D03*
X2645000Y470000D03*
X2683750Y566250D03*
X2638750Y526250D03*
X2825000Y347500D03*
X2668750Y560000D03*
X2645000Y550000D03*
X2825000Y303750D03*
X2661250Y463750D03*
X2657500Y551250D03*
X2657500Y562500D03*
X2645000Y570000D03*
X2818750Y363750D03*
X2795000Y553750D03*
X2713750Y547500D03*
X2645000Y610000D03*
X2812500Y330000D03*
X2862500Y876250D03*
X2846250Y761250D03*
X2645000Y670000D03*
X2681250Y670000D03*
X2658750Y948750D03*
X2626250Y727500D03*
X2795000Y778750D03*
X2873750Y1097500D03*
X2827500Y773750D03*
X2645000Y750000D03*
X2801250Y771250D03*
X2873750Y1107500D03*
X2835000Y767500D03*
X2645000Y790000D03*
X2758750Y790000D03*
X2862500Y1117500D03*
X2855000Y912500D03*
X2853750Y1130000D03*
X2832500Y805000D03*
X2660000Y837500D03*
X2811250Y816250D03*
X2665000Y935000D03*
X2640000Y910000D03*
X2811250Y771250D03*
X2671250Y970000D03*
X2645000Y950000D03*
X2730000Y713750D03*
X2677500Y977500D03*
X2645000Y990000D03*
X2800000Y846250D03*
X2700000Y977500D03*
X2796250Y1136250D03*
X2630000Y1027500D03*
X2792500Y840000D03*
X2645000Y1003750D03*
X2815000Y1130000D03*
X2705000Y1130000D03*
X2657500Y1082500D03*
X2645000Y1070000D03*
X2807500Y852500D03*
X2770000Y1110000D03*
X2645000Y1110000D03*
X2803750Y905000D03*
X2787500Y1093750D03*
X2792500Y1111250D03*
X2645000Y1130000D03*
X2807500Y892500D03*
X2786250Y1103750D03*
X2640000Y1150000D03*
X2805000Y882500D03*
X2787500Y911250D03*
X2797500Y895000D03*
X2638750Y1190000D03*
X2768750Y1088750D03*
X2772500Y892500D03*
X2786250Y878750D03*
X2638750Y1230000D03*
X2853750Y2100000D03*
X2843750Y1863750D03*
X2600000Y1326250D03*
X2776250Y1791250D03*
X2857500Y2082500D03*
X2856250Y1858750D03*
X2606250Y1366250D03*
X2758750Y1785000D03*
X2753750Y2068750D03*
X2715000Y2030000D03*
X2635000Y1410000D03*
X2718750Y1493750D03*
X2851250Y2140000D03*
X2867500Y1793750D03*
X2635000Y1450000D03*
X2788750Y1603750D03*
X2786250Y2157500D03*
X2747500Y2121250D03*
X2793750Y1830000D03*
X2807500Y1820000D03*
X2625000Y1498750D03*
X2841250Y2132500D03*
X2843750Y1826250D03*
X2631250Y1531250D03*
X2817500Y1785000D03*
X2828750Y2143750D03*
X2851250Y1885000D03*
X2823750Y1837500D03*
X2823750Y1793750D03*
X2635000Y1570000D03*
X2821250Y2151250D03*
X2845000Y1795000D03*
X2645000Y1595000D03*
X2823750Y1773750D03*
X2815000Y2143750D03*
X2847500Y1875000D03*
X2645000Y1630000D03*
X2791250Y1767500D03*
X2861250Y1826250D03*
X2761250Y1875000D03*
X2812500Y1857500D03*
X2635000Y1677500D03*
X2692500Y1735000D03*
X2692500Y1783750D03*
X2781250Y2140000D03*
X2625000Y1705000D03*
X2793750Y1847500D03*
X2787500Y2132500D03*
X2813750Y1893750D03*
X2631250Y1771250D03*
X2775000Y2132500D03*
X2823750Y1893750D03*
X2645000Y1790000D03*
X2785000Y1910000D03*
X2801250Y1893750D03*
X2635000Y1850000D03*
X2645000Y1870000D03*
X2795000Y1867500D03*
X2773750Y2098750D03*
X2786250Y1931250D03*
X2635000Y1912500D03*
X2852500Y2621250D03*
X2625000Y1945000D03*
X2786250Y2255000D03*
X2846250Y2636250D03*
X2606250Y2006250D03*
X2818750Y2275000D03*
X2865000Y2635000D03*
X2852500Y2647500D03*
X2837500Y2605000D03*
X2828750Y2275000D03*
X2635000Y2050000D03*
X2791250Y2206250D03*
X2821250Y2238750D03*
X2840000Y2625000D03*
X2847500Y2248750D03*
X2635000Y2090000D03*
X2776250Y2251250D03*
X2833750Y2617500D03*
X2838750Y2275000D03*
X2623750Y2138750D03*
X2732500Y2655000D03*
X2611250Y2163750D03*
X2791250Y2297500D03*
X2816250Y2637500D03*
X2852500Y2277500D03*
X2635000Y2210000D03*
X2783750Y2303750D03*
X2826250Y2303750D03*
X2803750Y2642500D03*
X2856250Y2290000D03*
X2645000Y2230000D03*
X2783750Y2291250D03*
X2795000Y2637500D03*
X2851250Y2322500D03*
X2645000Y2270000D03*
X2777500Y2315000D03*
X2811250Y2312500D03*
X2796250Y2648750D03*
X2848750Y2372500D03*
X2630000Y2332500D03*
X2757500Y2625000D03*
X2782500Y2637500D03*
X2845000Y2353750D03*
X2618750Y2366250D03*
X2767500Y2626250D03*
X2638750Y2396250D03*
X2831250Y2358750D03*
X2743750Y2617500D03*
X2628750Y2425000D03*
X2832500Y2348750D03*
X2811250Y2363750D03*
X2785000Y2390000D03*
X2755000Y2611250D03*
X2635000Y2483750D03*
X2652500Y2522500D03*
X2747500Y2603750D03*
X2647500Y2510000D03*
X2660000Y2516250D03*
X2732500Y2597500D03*
X2645000Y2550000D03*
X2801250Y1925000D03*
X2645000Y1950000D03*
X2618750Y1966250D03*
X2725000Y2715000D03*
X2830000Y333750D03*
X2645000Y518750D03*
X2565000Y526250D03*
X2693750Y2711250D03*
X2817500Y507500D03*
X2807500Y1061250D03*
X1270000Y2821250D03*
X2787500Y2076250D03*
X2767500Y2568750D03*
X1685000Y2406250D03*
X2645000Y2406250D03*
X2827500Y507500D03*
X2821250Y1051250D03*
X2777500Y2558750D03*
X2801250Y2065000D03*
X2612500Y2565000D03*
X2715000Y2667500D03*
X2773750Y2530000D03*
X2820000Y2226250D03*
X2827500Y2626250D03*
X2848750Y500000D03*
X2833750Y726250D03*
X2868750Y761250D03*
X2868750Y903750D03*
X2786250Y2170000D03*
X2657500Y2041250D03*
X2657500Y1717500D03*
X2593750Y766250D03*
X2633750Y752500D03*
X2811250Y703750D03*
X2858750Y2587500D03*
X2785000Y2775000D03*
X2708750Y2682500D03*
X2753750Y2772500D03*
X2735000Y2682500D03*
X2791250Y2738750D03*
X1521250Y2822500D03*
X2600000Y2822500D03*
X2798750Y2421250D03*
X2783750Y2525000D03*
X2722500Y2678750D03*
X2797500Y2753750D03*
X1480000Y2838750D03*
X2842500Y230000D03*
X2770000Y245000D03*
X2858750Y807500D03*
X2846250Y778750D03*
X2848750Y881250D03*
X2842500Y507500D03*
X2865000Y1845000D03*
X2865000Y2068750D03*
X2740000Y1855000D03*
X2731250Y1863750D03*
X2672500Y2707500D03*
X2873750Y2257500D03*
X2878750Y2638750D03*
X2861250Y1062500D03*
X2855000Y1795000D03*
X2868750Y2438750D03*
X2868750Y2481250D03*
M02*
