G04 EAGLE Gerber RS-274X export*
G75*
%MOMM*%
%FSLAX34Y34*%
%LPD*%
%INSolderpaste Top*%
%IPPOS*%
%AMOC8*
5,1,8,0,0,1.08239X$1,22.5*%
G01*
%ADD10R,0.348000X1.397000*%
%ADD11R,1.000000X1.100000*%
%ADD12R,5.080000X2.540000*%
%ADD13R,1.050000X0.350000*%
%ADD14R,0.350000X1.050000*%
%ADD15R,4.200000X4.200000*%
%ADD16R,1.100000X1.000000*%
%ADD17R,1.981200X0.558800*%
%ADD18C,2.000000*%
%ADD19R,0.850000X0.900000*%
%ADD20R,0.900000X0.850000*%


D10*
X2865126Y217240D03*
X2858626Y217240D03*
X2852126Y217240D03*
X2839126Y217240D03*
X2845626Y217240D03*
X2832626Y217240D03*
X2826126Y217240D03*
X2819626Y217240D03*
X2813126Y217240D03*
X2806626Y217240D03*
X2865126Y290360D03*
X2858626Y290360D03*
X2852126Y290360D03*
X2845626Y290360D03*
X2839126Y290360D03*
X2832626Y290360D03*
X2826126Y290360D03*
X2819626Y290360D03*
X2813126Y290360D03*
X2806626Y290360D03*
X2800126Y290360D03*
X2793626Y290360D03*
X2793626Y217240D03*
X2800126Y217240D03*
X2845126Y792240D03*
X2838626Y792240D03*
X2832126Y792240D03*
X2819126Y792240D03*
X2825626Y792240D03*
X2812626Y792240D03*
X2806126Y792240D03*
X2799626Y792240D03*
X2793126Y792240D03*
X2786626Y792240D03*
X2845126Y865360D03*
X2838626Y865360D03*
X2832126Y865360D03*
X2825626Y865360D03*
X2819126Y865360D03*
X2812626Y865360D03*
X2806126Y865360D03*
X2799626Y865360D03*
X2793126Y865360D03*
X2786626Y865360D03*
X2780126Y865360D03*
X2773626Y865360D03*
X2773626Y792240D03*
X2780126Y792240D03*
X2840126Y1807240D03*
X2833626Y1807240D03*
X2827126Y1807240D03*
X2814126Y1807240D03*
X2820626Y1807240D03*
X2807626Y1807240D03*
X2801126Y1807240D03*
X2794626Y1807240D03*
X2788126Y1807240D03*
X2781626Y1807240D03*
X2840126Y1880360D03*
X2833626Y1880360D03*
X2827126Y1880360D03*
X2820626Y1880360D03*
X2814126Y1880360D03*
X2807626Y1880360D03*
X2801126Y1880360D03*
X2794626Y1880360D03*
X2788126Y1880360D03*
X2781626Y1880360D03*
X2775126Y1880360D03*
X2768626Y1880360D03*
X2768626Y1807240D03*
X2775126Y1807240D03*
X2865126Y2262240D03*
X2858626Y2262240D03*
X2852126Y2262240D03*
X2839126Y2262240D03*
X2845626Y2262240D03*
X2832626Y2262240D03*
X2826126Y2262240D03*
X2819626Y2262240D03*
X2813126Y2262240D03*
X2806626Y2262240D03*
X2865126Y2335360D03*
X2858626Y2335360D03*
X2852126Y2335360D03*
X2845626Y2335360D03*
X2839126Y2335360D03*
X2832626Y2335360D03*
X2826126Y2335360D03*
X2819626Y2335360D03*
X2813126Y2335360D03*
X2806626Y2335360D03*
X2800126Y2335360D03*
X2793626Y2335360D03*
X2793626Y2262240D03*
X2800126Y2262240D03*
D11*
X2768100Y2305800D03*
X2768100Y2288800D03*
D12*
X2591800Y25400D03*
X2591800Y65400D03*
X2591800Y105400D03*
X2591800Y145400D03*
X2591800Y185400D03*
X2591800Y225400D03*
X2591800Y265400D03*
X2591800Y305400D03*
X2591800Y345400D03*
X2591800Y385400D03*
X2591800Y425400D03*
X2591800Y465400D03*
X2591800Y505400D03*
X2591800Y545400D03*
X2591800Y585400D03*
X2591800Y625400D03*
X2591800Y665400D03*
X2591800Y705400D03*
X2591800Y745400D03*
X2591800Y785400D03*
X2591800Y825400D03*
X2591800Y865400D03*
X2591800Y905400D03*
X2591800Y945400D03*
X2591800Y985400D03*
X2591800Y1025400D03*
X2591800Y1065400D03*
X2591800Y1105400D03*
X2591800Y1145400D03*
X2591800Y1185400D03*
X2591800Y1225400D03*
X2591800Y1265400D03*
X2591800Y1305400D03*
X2591800Y1345400D03*
X2591800Y1385400D03*
X2591800Y1425400D03*
X2591800Y1465400D03*
X2591800Y1505400D03*
X2591800Y1545400D03*
X2591800Y1585400D03*
X2591800Y1625400D03*
X2591800Y1665400D03*
X2591800Y1705400D03*
X2591800Y1745400D03*
X2591800Y1785400D03*
X2591800Y1825400D03*
X2591800Y1865400D03*
X2591800Y1905400D03*
X2591800Y1945400D03*
X2591800Y1985400D03*
X2591800Y2025400D03*
X2591800Y2065400D03*
X2591800Y2105400D03*
X2591800Y2145400D03*
X2591800Y2185400D03*
X2591800Y2225400D03*
X2591800Y2265400D03*
X2591800Y2305400D03*
X2591800Y2345400D03*
X2591800Y2385400D03*
X2591800Y2425400D03*
X2591800Y2465400D03*
X2591800Y2505400D03*
X2591800Y2545400D03*
D13*
X2806124Y566400D03*
X2806124Y559900D03*
X2806124Y553400D03*
X2806124Y546900D03*
X2806124Y540400D03*
X2806124Y533900D03*
X2806124Y527400D03*
D14*
X2815124Y518400D03*
X2821624Y518400D03*
X2828124Y518400D03*
X2834624Y518400D03*
X2841124Y518400D03*
X2847624Y518400D03*
X2854124Y518400D03*
D13*
X2863124Y527400D03*
X2863124Y533900D03*
X2863124Y540400D03*
X2863124Y546900D03*
X2863124Y553400D03*
X2863124Y559900D03*
X2863124Y566400D03*
D14*
X2854124Y575400D03*
X2847624Y575400D03*
X2841124Y575400D03*
X2834624Y575400D03*
X2828124Y575400D03*
X2821624Y575400D03*
X2815124Y575400D03*
D15*
X2834624Y546900D03*
D11*
X1205800Y2806000D03*
X1205800Y2823000D03*
D16*
X1243600Y2801000D03*
X1260600Y2801000D03*
X1241700Y2821000D03*
X1258700Y2821000D03*
D13*
X2806124Y1110200D03*
X2806124Y1103700D03*
X2806124Y1097200D03*
X2806124Y1090700D03*
X2806124Y1084200D03*
X2806124Y1077700D03*
X2806124Y1071200D03*
D14*
X2815124Y1062200D03*
X2821624Y1062200D03*
X2828124Y1062200D03*
X2834624Y1062200D03*
X2841124Y1062200D03*
X2847624Y1062200D03*
X2854124Y1062200D03*
D13*
X2863124Y1071200D03*
X2863124Y1077700D03*
X2863124Y1084200D03*
X2863124Y1090700D03*
X2863124Y1097200D03*
X2863124Y1103700D03*
X2863124Y1110200D03*
D14*
X2854124Y1119200D03*
X2847624Y1119200D03*
X2841124Y1119200D03*
X2834624Y1119200D03*
X2828124Y1119200D03*
X2821624Y1119200D03*
X2815124Y1119200D03*
D15*
X2834624Y1090700D03*
D13*
X2786124Y2124000D03*
X2786124Y2117500D03*
X2786124Y2111000D03*
X2786124Y2104500D03*
X2786124Y2098000D03*
X2786124Y2091500D03*
X2786124Y2085000D03*
D14*
X2795124Y2076000D03*
X2801624Y2076000D03*
X2808124Y2076000D03*
X2814624Y2076000D03*
X2821124Y2076000D03*
X2827624Y2076000D03*
X2834124Y2076000D03*
D13*
X2843124Y2085000D03*
X2843124Y2091500D03*
X2843124Y2098000D03*
X2843124Y2104500D03*
X2843124Y2111000D03*
X2843124Y2117500D03*
X2843124Y2124000D03*
D14*
X2834124Y2133000D03*
X2827624Y2133000D03*
X2821124Y2133000D03*
X2814624Y2133000D03*
X2808124Y2133000D03*
X2801624Y2133000D03*
X2795124Y2133000D03*
D15*
X2814624Y2104500D03*
D13*
X2766124Y2617800D03*
X2766124Y2611300D03*
X2766124Y2604800D03*
X2766124Y2598300D03*
X2766124Y2591800D03*
X2766124Y2585300D03*
X2766124Y2578800D03*
D14*
X2775124Y2569800D03*
X2781624Y2569800D03*
X2788124Y2569800D03*
X2794624Y2569800D03*
X2801124Y2569800D03*
X2807624Y2569800D03*
X2814124Y2569800D03*
D13*
X2823124Y2578800D03*
X2823124Y2585300D03*
X2823124Y2591800D03*
X2823124Y2598300D03*
X2823124Y2604800D03*
X2823124Y2611300D03*
X2823124Y2617800D03*
D14*
X2814124Y2626800D03*
X2807624Y2626800D03*
X2801124Y2626800D03*
X2794624Y2626800D03*
X2788124Y2626800D03*
X2781624Y2626800D03*
X2775124Y2626800D03*
D15*
X2794624Y2598300D03*
D17*
X2780754Y2497350D03*
X2780754Y2484650D03*
X2780754Y2471950D03*
X2780754Y2459250D03*
X2780754Y2446550D03*
X2780754Y2433850D03*
X2780754Y2421150D03*
X2780754Y2408450D03*
X2827998Y2408450D03*
X2827998Y2421150D03*
X2827998Y2433850D03*
X2827998Y2446550D03*
X2827998Y2459250D03*
X2827998Y2471950D03*
X2827998Y2484650D03*
X2827998Y2497350D03*
D18*
X2670000Y2670000D03*
X2690000Y2690000D03*
X2710000Y2710000D03*
X2730000Y2730000D03*
X2750000Y2750000D03*
X2770000Y2770000D03*
X2790000Y2790000D03*
X2810000Y2810000D03*
X2830000Y2830000D03*
X2850000Y2850000D03*
D19*
X2639200Y20000D03*
X2650800Y20000D03*
X2639200Y60000D03*
X2650800Y60000D03*
X2639200Y100000D03*
X2650800Y100000D03*
X2639200Y140000D03*
X2650800Y140000D03*
X2639200Y180000D03*
X2650800Y180000D03*
X2639200Y220000D03*
X2650800Y220000D03*
X2639200Y260000D03*
X2650800Y260000D03*
X2639200Y300000D03*
X2650800Y300000D03*
X2639200Y340000D03*
X2650800Y340000D03*
X2639200Y380000D03*
X2650800Y380000D03*
X2639200Y420000D03*
X2650800Y420000D03*
X2639200Y460000D03*
X2650800Y460000D03*
X2639200Y500000D03*
X2650800Y500000D03*
X2639200Y540000D03*
X2650800Y540000D03*
X2639200Y580000D03*
X2650800Y580000D03*
X2639200Y620000D03*
X2650800Y620000D03*
X2639200Y660000D03*
X2650800Y660000D03*
X2639200Y700000D03*
X2650800Y700000D03*
X2639200Y740000D03*
X2650800Y740000D03*
X2639200Y780000D03*
X2650800Y780000D03*
X2639200Y820000D03*
X2650800Y820000D03*
X2639200Y860000D03*
X2650800Y860000D03*
X2639200Y900000D03*
X2650800Y900000D03*
X2639200Y940000D03*
X2650800Y940000D03*
X2639200Y980000D03*
X2650800Y980000D03*
X2639200Y1020000D03*
X2650800Y1020000D03*
X2639200Y1060000D03*
X2650800Y1060000D03*
X2639200Y1100000D03*
X2650800Y1100000D03*
X2639200Y1140000D03*
X2650800Y1140000D03*
X2639200Y1180000D03*
X2650800Y1180000D03*
X2639200Y1220000D03*
X2650800Y1220000D03*
X2639200Y1300000D03*
X2650800Y1300000D03*
X2639200Y1340000D03*
X2650800Y1340000D03*
X2639200Y1380000D03*
X2650800Y1380000D03*
X2639200Y1420000D03*
X2650800Y1420000D03*
X2639200Y1460000D03*
X2650800Y1460000D03*
X2639200Y1500000D03*
X2650800Y1500000D03*
X2639200Y1540000D03*
X2650800Y1540000D03*
X2639200Y1580000D03*
X2650800Y1580000D03*
X2639200Y1620000D03*
X2650800Y1620000D03*
X2639200Y1660000D03*
X2650800Y1660000D03*
X2639200Y1700000D03*
X2650800Y1700000D03*
X2639200Y1740000D03*
X2650800Y1740000D03*
X2639200Y1780000D03*
X2650800Y1780000D03*
X2639200Y1820000D03*
X2650800Y1820000D03*
X2639200Y1860000D03*
X2650800Y1860000D03*
X2639200Y1900000D03*
X2650800Y1900000D03*
X2639200Y1940000D03*
X2650800Y1940000D03*
X2639200Y1980000D03*
X2650800Y1980000D03*
X2639200Y2020000D03*
X2650800Y2020000D03*
X2639200Y2060000D03*
X2650800Y2060000D03*
X2639200Y2100000D03*
X2650800Y2100000D03*
X2639200Y2140000D03*
X2650800Y2140000D03*
X2639200Y2180000D03*
X2650800Y2180000D03*
X2639200Y2220000D03*
X2650800Y2220000D03*
X2639200Y2260000D03*
X2650800Y2260000D03*
X2639200Y2300000D03*
X2650800Y2300000D03*
X2639200Y2340000D03*
X2650800Y2340000D03*
X2639200Y2380000D03*
X2650800Y2380000D03*
X2639200Y2420000D03*
X2650800Y2420000D03*
X2639200Y2460000D03*
X2650800Y2460000D03*
X2639200Y2500000D03*
X2650800Y2500000D03*
X2639200Y1260000D03*
X2650800Y1260000D03*
X2639200Y2540000D03*
X2650800Y2540000D03*
X2764200Y255000D03*
X2775800Y255000D03*
X2744200Y830000D03*
X2755800Y830000D03*
X2739200Y1845000D03*
X2750800Y1845000D03*
X2754200Y2260000D03*
X2765800Y2260000D03*
D20*
X2875000Y824200D03*
X2875000Y835800D03*
X2880000Y1839200D03*
X2880000Y1850800D03*
X2880000Y2099200D03*
X2880000Y2110800D03*
X2880000Y2594200D03*
X2880000Y2605800D03*
X2880000Y2469200D03*
X2880000Y2480800D03*
D11*
X2880000Y2426500D03*
X2880000Y2443500D03*
M02*
