M48
;GenerationSoftware,Autodesk,EAGLE,9.4.0*%
;CreationDate,2019-05-03T20:00:21Z*%
FMAT,2
ICI,OFF
METRIC,TZ,000.000
T2C0.350
T1C1.016
%
G90
M71
T1
X169490Y287780
X121230Y285240
X123770Y285240
X126310Y285240
X128850Y285240
X131390Y285240
X133930Y285240
X136470Y285240
X139010Y285240
X141550Y285240
X144090Y285240
X146630Y285240
X149170Y285240
X151710Y285240
X151710Y287780
X149170Y287780
X146630Y287780
X144090Y287780
X141550Y287780
X139010Y287780
X136470Y287780
X133930Y287780
X131390Y287780
X128850Y287780
X126310Y287780
X123770Y287780
X121230Y287780
X154250Y285240
X154250Y287780
X156790Y285240
X156790Y287780
X159330Y285240
X159330Y287780
X161870Y285240
X161870Y287780
X164410Y285240
X164410Y287780
X166950Y285240
X166950Y287780
X169490Y285240
T2
X275625Y22250
X275125Y181875
X270875Y179125
X270250Y214000
X279125Y227500
X190750Y257125
X239500Y208375
X262875Y207750
X268250Y81000
X270375Y83125
X270625Y104625
X270625Y108250
X269125Y70625
X260250Y20625
X258250Y20375
X276875Y20875
X273125Y183000
X270875Y184250
X270875Y219250
X277750Y226125
X189750Y257250
X234375Y212625
X261750Y212625
X279000Y255375
X281250Y247250
X279500Y53000
X265125Y53000
X281750Y182000
X279875Y183875
X281125Y206375
X283125Y204375
X279500Y106875
X277250Y83375
X266750Y171875
X281125Y82750
X266125Y249625
X285500Y24375
X282250Y20375
X263500Y9000
X273875Y20125
X286500Y26250
X286500Y24375
X274875Y20500
X274875Y18500
X276250Y7750
X264500Y7750
X275500Y21250
X264500Y9000
X287125Y57375
X283250Y20375
X263875Y17000
X286125Y57375
X283250Y23000
X263500Y21000
X265750Y59000
X262875Y25000
X284750Y58625
X285250Y20375
X264500Y24375
X267750Y60125
X261000Y32375
X286000Y19750
X266250Y24000
X268500Y59500
X261625Y36375
X278250Y27125
X264500Y33000
X266750Y58500
X262250Y40125
X283000Y32125
X279375Y35750
X265750Y35750
X264500Y37000
X281000Y58500
X282000Y27750
X264500Y41000
X280750Y57500
X283875Y30375
X264500Y47000
X268375Y56625
X263875Y52625
X282500Y34750
X266875Y56000
X264500Y55000
X282500Y30375
X266125Y46375
X265750Y55125
X265750Y56250
X264500Y57000
X281875Y36375
X279500Y55375
X271375Y54750
X264500Y61000
X281250Y33000
X286250Y87625
X284625Y76125
X264500Y67000
X268125Y67000
X265875Y94875
X262625Y72750
X279500Y77875
X287375Y109750
X282750Y77375
X264500Y75000
X280125Y77125
X287375Y110750
X283500Y76750
X264500Y79000
X275875Y79000
X286250Y111750
X285500Y91250
X285375Y113000
X283250Y80500
X266000Y83750
X281125Y81625
X266500Y93500
X264000Y91000
X281125Y77125
X267125Y97000
X264500Y95000
X273000Y71375
X267750Y97750
X264500Y99000
X280000Y84625
X270000Y97750
X279625Y113625
X263000Y102750
X279250Y84000
X264500Y100375
X281500Y113000
X270500Y113000
X265750Y108250
X264500Y107000
X280750Y85250
X277000Y111000
X264500Y111000
X280375Y90500
X278750Y109375
X279250Y111125
X264500Y113000
X280750Y89250
X278625Y110375
X264000Y115000
X280500Y88250
X278750Y91125
X279750Y89500
X263875Y119000
X276875Y108875
X277250Y89250
X278625Y87875
X263875Y123000
X285375Y210000
X284375Y186375
X260000Y132625
X277625Y179125
X285750Y208250
X285625Y185875
X260625Y136625
X275875Y178500
X275375Y206875
X271500Y203000
X263500Y141000
X271875Y149375
X285125Y214000
X286750Y179375
X263500Y145000
X278875Y160375
X278625Y215750
X274750Y212125
X279375Y183000
X280750Y182000
X262500Y149875
X284125Y213250
X284375Y182625
X263125Y153125
X281750Y178500
X282875Y214375
X285125Y188500
X282375Y183750
X282375Y179375
X263500Y157000
X282125Y215125
X284500Y179500
X264500Y159500
X282375Y177375
X281500Y214375
X284750Y187500
X264500Y163000
X279125Y176750
X286125Y182625
X276125Y187500
X281250Y185750
X263500Y167750
X269250Y173500
X269250Y178375
X278125Y214000
X262500Y170500
X279375Y184750
X278750Y213250
X281375Y189375
X263125Y177125
X277500Y213250
X282375Y189375
X264500Y179000
X278500Y191000
X280125Y189375
X263500Y185000
X264500Y187000
X279500Y186750
X277375Y209875
X278625Y193125
X263500Y191250
X285250Y262125
X262500Y194500
X278625Y225500
X284625Y263625
X260625Y200625
X281875Y227500
X286500Y263500
X285250Y264750
X283750Y260500
X282875Y227500
X263500Y205000
X279125Y220625
X282125Y223875
X284000Y262500
X284750Y224875
X263500Y209000
X277625Y225125
X283375Y261750
X283875Y227500
X262375Y213875
X273250Y265500
X261125Y216375
X279125Y229750
X281625Y263750
X285250Y227750
X263500Y221000
X278375Y230375
X282625Y230375
X280375Y264250
X285625Y229000
X264500Y223000
X278375Y229125
X279500Y263750
X285125Y232250
X264500Y227000
X277750Y231500
X281125Y231250
X279625Y264875
X284875Y237250
X263000Y233250
X275750Y262500
X278250Y263750
X284500Y235375
X261875Y236625
X276750Y262625
X263875Y239625
X283125Y235875
X274375Y261750
X262875Y242500
X283250Y234875
X281125Y236375
X278500Y239000
X275500Y261125
X263500Y248375
X265250Y252250
X274750Y260375
X264750Y251000
X266000Y251625
X273250Y259750
X282125Y206500
X280125Y192500
X264500Y195000
X261875Y196625
X272500Y271500
X283000Y33375
X264500Y51875
X256500Y52625
X269375Y271125
X281750Y50750
X280750Y106125
X127000Y282125
X278750Y207625
X276750Y256875
X168500Y240625
X264500Y240625
X282750Y50750
X282125Y105125
X277750Y255875
X280125Y206500
X261250Y256500
X271500Y266750
X277375Y253000
X282000Y222625
X282750Y262625
X284875Y50000
X283375Y72625
X286875Y76125
X286875Y90375
X278625Y217000
X265750Y204125
X265750Y171750
X259375Y76625
X263375Y75250
X281125Y70375
X285875Y258750
X278500Y277500
X270875Y268250
X275375Y277250
X273500Y268250
X279125Y273875
X152125Y282250
X260000Y282250
X279875Y242125
X278375Y252500
X272250Y267875
X279750Y275375
X148000Y283875
X284250Y23000
X277000Y24500
X285875Y80750
X284625Y77875
X264500Y255000
X284250Y50750
X286500Y184500
X286500Y206875
X274000Y185500
X273125Y186375
X267250Y270750
X287375Y225750
X287875Y263875
X286125Y106250
X285500Y179500
X286875Y243875
X286875Y248125
X280750Y246375
X283500Y105125
X280000Y255750
X273750Y223625
X278000Y227875
X266125Y65875
X277875Y20875
X272750Y177000
X270000Y174250
X270000Y130000
X278625Y85250
X263375Y81000
X260375Y80375
X257125Y48625
X263500Y47250
X279000Y31250
X277250Y191000
X275125Y193125
X273125Y226000
X278625Y234250
X184875Y257125
X217375Y224625
X264500Y224625
X268625Y175750
X269625Y190000
X261000Y84375
X257750Y44625
X264500Y44625
X278875Y30250
X277250Y190000
X274125Y193125
X187375Y257125
X215875Y228625
X264500Y228625
X271625Y228625
X272125Y173875
X268500Y69125
X259000Y24625
X257750Y24375
X284875Y88125
M30